{
.appVersion = "1192";
copyright = "Open Source";
customParameters = (
{
name = unicodeRanges;
value = (
0,
1,
2
);
},
{
name = glyphOrder;
value = (
A,
B,
C,
D,
E,
F,
G,
H,
I,
J,
K,
L,
M,
N,
O,
P,
Q,
R,
S,
T,
U,
V,
W,
X,
Y,
Z,
a,
b,
c,
d,
e,
f,
g,
h,
i,
j,
k,
l,
m,
n,
o,
p,
q,
r,
s,
t,
u,
v,
w,
x,
y,
z,
zero,
one,
two,
three,
four,
five,
six,
seven,
eight,
nine,
numbersign,
percent,
degree,
dollar,
euro,
sterling,
cent,
exclam,
question,
exclamdown,
questiondown,
period,
comma,
hyphen,
endash,
emdash,
colon,
semicolon,
ellipsis,
guillemetleft,
guillemetright,
guilsinglleft,
guilsinglright,
quoteleft,
quoteright,
quotedblleft,
quotedblright,
quotesinglbase,
quotedblbase,
quotesingle,
quotedbl,
parenleft,
parenright,
bracketleft,
bracketright,
braceleft,
braceright,
slash,
backslash,
asterisk,
underscore,
bar,
plus,
minus,
equal,
multiply,
less,
greater,
ampersand,
at,
copyright,
bullet,
periodcentered,
asciicircum,
bullet,
Agrave,
Aacute,
Acircumflex,
Atilde,
Adieresis,
Aring,
AE,
Ccedilla,
Egrave,
Eacute,
Ecircumflex,
Edieresis,
Igrave,
Iacute,
Icircumflex,
Idieresis,
Ntilde,
Ograve,
Oacute,
Ocircumflex,
Otilde,
Odieresis,
Oslash,
OE,
Ugrave,
Uacute,
Ucircumflex,
Udieresis,
Yacute,
Ydieresis,
agrave,
aacute,
acircumflex,
atilde,
adieresis,
aring,
ae,
ccedilla,
egrave,
eacute,
ecircumflex,
edieresis,
igrave,
iacute,
icircumflex,
idieresis,
idotless,
ntilde,
ograve,
oacute,
ocircumflex,
otilde,
odieresis,
oslash,
oe,
germandbls,
ugrave,
uacute,
ucircumflex,
udieresis,
ygrave,
ydieresis
);
}
);
date = "2018-11-15 21:51:33 +0000";
designer = "Luigi Gorlero";
designerURL = "http://luigigorlero.com/";
familyName = Ribes;
featurePrefixes = (
{
automatic = 1;
code = "languagesystem DFLT dflt;\012";
disabled = 1;
name = Languagesystems;
}
);
features = (
{
automatic = 1;
code = "lookup ccmp_Other_1 {\012	@CombiningTopAccents = [dieresiscomb];\012	sub [i]' @CombiningTopAccents by [idotless];\012} ccmp_Other_1;\012";
name = ccmp;
},
{
automatic = 1;

glyphs = (
{
color = 6;
glyphname = A;
lastChange = "2019-03-21 21:53:54 +0000";
layers = (
{
background = {
hints = (
{
horizontal = 1;
place = "{207, 39}";
type = Stem;
},
{
horizontal = 1;
place = "{567, 139}";
type = Stem;
},
{
place = "{4, 650}";
type = Stem;
}
);
paths = (
{
closed = 1;
nodes = (
"506 0 LINE",
"654 0 LINE",
"342 706 LINE",
"272 706 LINE",
"4 0 LINE",
"44 0 LINE",
"122 207 LINE",
"418 207 LINE"
);
},
{
closed = 1;
nodes = (
"137 246 LINE",
"259 567 LINE",
"265 567 LINE",
"401 246 LINE"
);
}
);
};
layerId = "C1951C01-2078-4DCF-9B04-F28136C23FC3";
width = 700;
},
{
background = {
paths = (
{
closed = 1;
nodes = (
"118 246 LINE",
"118 207 LINE",
"478 207 LINE",
"478 246 LINE"
);
},
{
closed = 1;
nodes = (
"44 0 LINE",
"259 567 LINE",
"265 567 LINE",
"506 0 LINE",
"654 0 LINE",
"342 706 LINE",
"272 706 LINE",
"4 0 LINE"
);
}
);
};
layerId = "73C3FB79-0E24-4863-9919-819B2F26AD09";
paths = (
{
closed = 1;
nodes = (
"118 246 LINE",
"118 207 LINE",
"478 207 LINE",
"478 246 LINE"
);
},
{
closed = 1;
nodes = (
"44 0 LINE",
"259 567 LINE",
"265 567 LINE",
"506 0 LINE",
"654 0 LINE",
"342 706 LINE",
"272 706 LINE",
"4 0 LINE"
);
}
);
width = 658;
},
{
associatedMasterId = "73C3FB79-0E24-4863-9919-819B2F26AD09";
background = {
paths = (
{
closed = 1;
nodes = (
"116 246 LINE",
"116 206 LINE",
"476 206 LINE",
"476 246 LINE"
);
},
{
closed = 1;
nodes = (
"46 0 LINE",
"288 574 LINE",
"514 0 LINE",
"678 0 LINE",
"384 706 LINE",
"300 706 LINE",
"6 0 LINE"
);
}
);
};
layerId = "33E61869-8504-467C-AA61-18BF5DB70235";
name = "Nov 11 18, 20:37";
paths = (
{
closed = 1;
nodes = (
"116 246 LINE",
"116 205 LINE",
"476 205 LINE",
"476 246 LINE"
);
},
{
closed = 1;
nodes = (
"46 0 LINE",
"285 577 LINE",
"289 577 LINE",
"518 0 LINE",
"686 0 LINE",
"392 706 LINE",
"296 706 LINE",
"2 0 LINE"
);
}
);
width = 690;
}
);
leftKerningGroup = A;
note = nera;
rightKerningGroup = A;
unicode = 0041;
},
{
color = 3;
glyphname = B;
lastChange = "2019-03-21 21:53:54 +0000";
layers = (
{
background = {
hints = (
{
horizontal = 1;
place = "{0, 148}";
type = Stem;
},
{
horizontal = 1;
place = "{312, 39}";
type = Stem;
},
{
horizontal = 1;
place = "{560, 146}";
type = Stem;
},
{
place = "{56, 38}";
type = Stem;
},
{
place = "{516, 58}";
type = Stem;
},
{
place = "{520, 66}";
type = Stem;
}
);
paths = (
{
closed = 1;
nodes = (
"56 0 LINE",
"410 0 LINE SMOOTH",
"514 0 OFFCURVE",
"586 73 OFFCURVE",
"586 175 CURVE SMOOTH",
"586 261 OFFCURVE",
"530 322 OFFCURVE",
"454 334 CURVE",
"454 338 LINE",
"526 362 OFFCURVE",
"574 421 OFFCURVE",
"574 496 CURVE SMOOTH",
"574 616 OFFCURVE",
"486 706 OFFCURVE",
"366 706 CURVE SMOOTH",
"56 706 LINE"
);
},
{
closed = 1;
nodes = (
"94 351 LINE",
"94 560 LINE",
"386 560 LINE SMOOTH",
"462 560 OFFCURVE",
"516 517 OFFCURVE",
"516 455 CURVE SMOOTH",
"516 395 OFFCURVE",
"462 351 OFFCURVE",
"390 351 CURVE SMOOTH"
);
},
{
closed = 1;
nodes = (
"94 148 LINE",
"94 312 LINE",
"426 312 LINE SMOOTH",
"482 312 OFFCURVE",
"520 280 OFFCURVE",
"520 232 CURVE SMOOTH",
"520 184 OFFCURVE",
"482 148 OFFCURVE",
"422 148 CURVE SMOOTH"
);
}
);
};
layerId = "C1951C01-2078-4DCF-9B04-F28136C23FC3";
width = 600;
},
{
background = {
paths = (
{
closed = 1;
nodes = (
"410 0 LINE SMOOTH",
"510 0 OFFCURVE",
"582 75 OFFCURVE",
"582 177 CURVE SMOOTH",
"582 261 OFFCURVE",
"530 330 OFFCURVE",
"454 342 CURVE",
"454 346 LINE",
"520 370 OFFCURVE",
"566 428 OFFCURVE",
"566 500 CURVE SMOOTH",
"566 620 OFFCURVE",
"478 706 OFFCURVE",
"358 706 CURVE SMOOTH",
"56 706 LINE",
"56 0 LINE"
);
},
{
closed = 1;
nodes = (
"94 320 LINE",
"422 320 LINE",
"478 320 OFFCURVE",
"518 285 OFFCURVE",
"518 235 CURVE SMOOTH",
"518 183 OFFCURVE",
"478 148 OFFCURVE",
"418 148 CURVE",
"94 148 LINE"
);
},
{
closed = 1;
nodes = (
"94 560 LINE",
"382 560 LINE",
"456 560 OFFCURVE",
"508 517 OFFCURVE",
"508 457 CURVE SMOOTH",
"508 399 OFFCURVE",
"458 359 OFFCURVE",
"386 359 CURVE",
"94 359 LINE"
);
}
);
};
layerId = "73C3FB79-0E24-4863-9919-819B2F26AD09";
paths = (
{
closed = 1;
nodes = (
"410 0 LINE SMOOTH",
"510 0 OFFCURVE",
"582 75 OFFCURVE",
"582 177 CURVE SMOOTH",
"582 261 OFFCURVE",
"530 330 OFFCURVE",
"454 342 CURVE",
"454 346 LINE",
"520 370 OFFCURVE",
"566 428 OFFCURVE",
"566 500 CURVE SMOOTH",
"566 620 OFFCURVE",
"478 706 OFFCURVE",
"358 706 CURVE SMOOTH",
"56 706 LINE",
"56 0 LINE"
);
},
{
closed = 1;
nodes = (
"94 320 LINE",
"422 320 LINE",
"478 320 OFFCURVE",
"518 285 OFFCURVE",
"518 235 CURVE SMOOTH",
"518 183 OFFCURVE",
"478 148 OFFCURVE",
"418 148 CURVE",
"94 148 LINE"
);
},
{
closed = 1;
nodes = (
"94 560 LINE",
"382 560 LINE",
"456 560 OFFCURVE",
"508 517 OFFCURVE",
"508 457 CURVE SMOOTH",
"508 399 OFFCURVE",
"458 359 OFFCURVE",
"386 359 CURVE",
"94 359 LINE"
);
}
);
width = 622;
},
{
associatedMasterId = "73C3FB79-0E24-4863-9919-819B2F26AD09";
background = {
paths = (
{
closed = 1;
nodes = (
"-8 0 LINE",
"299 0 LINE SMOOTH",
"411 0 OFFCURVE",
"471 6 OFFCURVE",
"519 24 CURVE SMOOTH",
"597 52 OFFCURVE",
"646 115 OFFCURVE",
"646 197 CURVE SMOOTH",
"646 295 OFFCURVE",
"589 360 OFFCURVE",
"474 377 CURVE",
"575 404 OFFCURVE",
"615 460 OFFCURVE",
"615 537 CURVE SMOOTH",
"615 599 OFFCURVE",
"582 654 OFFCURVE",
"525 680 CURVE SMOOTH",
"481 700 OFFCURVE",
"423 706 OFFCURVE",
"332 706 CURVE SMOOTH",
"-8 706 LINE"
);
},
{
closed = 1;
nodes = (
"96 415 LINE",
"96 622 LINE",
"336 622 LINE SMOOTH",
"388 622 OFFCURVE",
"429 619 OFFCURVE",
"456 606 CURVE SMOOTH",
"492 590 OFFCURVE",
"510 559 OFFCURVE",
"510 522 CURVE SMOOTH",
"510 478 OFFCURVE",
"489 444 OFFCURVE",
"446 429 CURVE SMOOTH",
"420 419 OFFCURVE",
"385 415 OFFCURVE",
"335 415 CURVE SMOOTH"
);
},
{
closed = 1;
nodes = (
"96 331 LINE",
"346 331 LINE SMOOTH",
"400 331 OFFCURVE",
"441 325 OFFCURVE",
"473 310 CURVE SMOOTH",
"518 289 OFFCURVE",
"538 249 OFFCURVE",
"538 203 CURVE SMOOTH",
"538 150 OFFCURVE",
"511 112 OFFCURVE",
"458 96 CURVE SMOOTH",
"433 89 OFFCURVE",
"392 84 OFFCURVE",
"333 84 CURVE SMOOTH",
"96 84 LINE"
);
}
);
};
layerId = "8B8D4606-073F-419C-92B7-5B022C7837C2";
name = "May 16 17, 22:49";
paths = (
{
closed = 1;
nodes = (
"72 706 LINE",
"72 0 LINE",
"32 0 LINE",
"32 706 LINE"
);
},
{
closed = 1;
nodes = (
"392 320 LINE",
"489 320 OFFCURVE",
"562 395 OFFCURVE",
"562 496 CURVE SMOOTH",
"562 616 OFFCURVE",
"474 706 OFFCURVE",
"356 706 CURVE",
"388 554 LINE",
"459 554 OFFCURVE",
"512 512 OFFCURVE",
"512 457 CURVE SMOOTH",
"512 404 OFFCURVE",
"461 364 OFFCURVE",
"392 364 CURVE"
);
},
{
closed = 1;
nodes = (
"72 554 LINE",
"388 554 LINE",
"356 706 LINE",
"72 706 LINE"
);
},
{
closed = 1;
nodes = (
"72 320 LINE",
"392 320 LINE",
"392 364 LINE",
"72 364 LINE"
);
},
{
closed = 1;
nodes = (
"467 320 OFFCURVE",
"524 283 OFFCURVE",
"524 234 CURVE SMOOTH",
"524 184 OFFCURVE",
"466 146 OFFCURVE",
"388 146 CURVE",
"356 0 LINE",
"485 0 OFFCURVE",
"582 85 OFFCURVE",
"582 198 CURVE SMOOTH",
"582 293 OFFCURVE",
"501 364 OFFCURVE",
"392 364 CURVE",
"392 320 LINE"
);
},
{
closed = 1;
nodes = (
"356 0 LINE",
"388 146 LINE",
"72 146 LINE",
"72 0 LINE"
);
}
);
width = 606;
}
);
leftMetricsKey = N;
unicode = 0042;
},
{
glyphname = C;
lastChange = "2019-03-21 21:53:54 +0000";
layers = (
{
background = {
hints = (
{
horizontal = 1;
place = "{-10, 156}";
type = Stem;
},
{
horizontal = 1;
place = "{562, 154}";
type = Stem;
},
{
place = "{36, 36}";
type = Stem;
},
{
place = "{634, 16}";
type = Stem;
},
{
place = "{660, 16}";
type = Stem;
}
);
paths = (
{
closed = 1;
nodes = (
"650 406 LINE",
"650 586 OFFCURVE",
"526 716 OFFCURVE",
"354 716 CURVE SMOOTH",
"170 716 OFFCURVE",
"36 565 OFFCURVE",
"36 355 CURVE SMOOTH",
"36 143 OFFCURVE",
"180 -10 OFFCURVE",
"376 -10 CURVE SMOOTH",
"544 -10 OFFCURVE",
"672 122 OFFCURVE",
"676 298 CURVE",
"660 298 LINE",
"620 213 OFFCURVE",
"493 146 OFFCURVE",
"364 146 CURVE SMOOTH",
"197 146 OFFCURVE",
"72 236 OFFCURVE",
"72 351 CURVE SMOOTH",
"72 469 OFFCURVE",
"193 562 OFFCURVE",
"356 562 CURVE SMOOTH",
"477 562 OFFCURVE",
"596 494 OFFCURVE",
"634 406 CURVE"
);
}
);
};
layerId = "C1951C01-2078-4DCF-9B04-F28136C23FC3";
width = 600;
},
{
background = {
paths = (
{
closed = 1;
nodes = (
"650 406 LINE",
"650 586 OFFCURVE",
"526 716 OFFCURVE",
"354 716 CURVE SMOOTH",
"170 716 OFFCURVE",
"36 565 OFFCURVE",
"36 355 CURVE SMOOTH",
"36 143 OFFCURVE",
"180 -10 OFFCURVE",
"376 -10 CURVE SMOOTH",
"544 -10 OFFCURVE",
"672 122 OFFCURVE",
"676 298 CURVE",
"660 298 LINE",
"620 213 OFFCURVE",
"493 146 OFFCURVE",
"364 146 CURVE SMOOTH",
"197 146 OFFCURVE",
"72 236 OFFCURVE",
"72 351 CURVE SMOOTH",
"72 469 OFFCURVE",
"193 562 OFFCURVE",
"356 562 CURVE SMOOTH",
"477 562 OFFCURVE",
"596 494 OFFCURVE",
"634 406 CURVE"
);
}
);
};
layerId = "73C3FB79-0E24-4863-9919-819B2F26AD09";
paths = (
{
closed = 1;
nodes = (
"650 406 LINE",
"650 586 OFFCURVE",
"526 716 OFFCURVE",
"354 716 CURVE SMOOTH",
"170 716 OFFCURVE",
"36 565 OFFCURVE",
"36 355 CURVE SMOOTH",
"36 143 OFFCURVE",
"180 -10 OFFCURVE",
"376 -10 CURVE SMOOTH",
"544 -10 OFFCURVE",
"672 122 OFFCURVE",
"676 298 CURVE",
"660 298 LINE",
"620 213 OFFCURVE",
"493 146 OFFCURVE",
"364 146 CURVE SMOOTH",
"197 146 OFFCURVE",
"72 236 OFFCURVE",
"72 351 CURVE SMOOTH",
"72 469 OFFCURVE",
"193 562 OFFCURVE",
"356 562 CURVE SMOOTH",
"477 562 OFFCURVE",
"596 494 OFFCURVE",
"634 406 CURVE"
);
}
);
width = 708;
},
{
associatedMasterId = "73C3FB79-0E24-4863-9919-819B2F26AD09";
background = {
paths = (
{
closed = 1;
nodes = (
"678 406 LINE",
"670 583 OFFCURVE",
"539 716 OFFCURVE",
"372 716 CURVE SMOOTH",
"182 716 OFFCURVE",
"40 561 OFFCURVE",
"40 355 CURVE SMOOTH",
"40 146 OFFCURVE",
"184 -10 OFFCURVE",
"376 -10 CURVE SMOOTH",
"544 -10 OFFCURVE",
"676 122 OFFCURVE",
"684 298 CURVE",
"664 298 LINE",
"624 213 OFFCURVE",
"508 150 OFFCURVE",
"376 150 CURVE SMOOTH",
"202 150 OFFCURVE",
"72 237 OFFCURVE",
"72 353 CURVE SMOOTH",
"72 469 OFFCURVE",
"199 548 OFFCURVE",
"368 548 CURVE SMOOTH",
"504 548 OFFCURVE",
"623 487 OFFCURVE",
"658 406 CURVE"
);
}
);
};
layerId = "38D11F1E-0954-48A8-B581-7E20FB044415";
name = "Oct 21 18, 18:18";
paths = (
{
closed = 1;
nodes = (
"678 406 LINE",
"670 583 OFFCURVE",
"539 716 OFFCURVE",
"372 716 CURVE SMOOTH",
"182 716 OFFCURVE",
"40 561 OFFCURVE",
"40 355 CURVE SMOOTH",
"40 146 OFFCURVE",
"184 -10 OFFCURVE",
"376 -10 CURVE SMOOTH",
"544 -10 OFFCURVE",
"676 122 OFFCURVE",
"684 298 CURVE",
"664 298 LINE",
"624 213 OFFCURVE",
"508 150 OFFCURVE",
"376 150 CURVE SMOOTH",
"202 150 OFFCURVE",
"72 241 OFFCURVE",
"72 357 CURVE SMOOTH",
"72 473 OFFCURVE",
"199 558 OFFCURVE",
"368 558 CURVE SMOOTH",
"504 558 OFFCURVE",
"623 487 OFFCURVE",
"658 406 CURVE"
);
}
);
width = 720;
}
);
unicode = 0043;
},
{
glyphname = D;
lastChange = "2019-03-21 21:53:54 +0000";
layers = (
{
background = {
hints = (
{
horizontal = 1;
place = "{0, 152}";
type = Stem;
},
{
horizontal = 1;
place = "{556, 150}";
type = Stem;
},
{
place = "{56, 38}";
type = Stem;
},
{
place = "{577, 35}";
type = Stem;
}
);
paths = (
{
closed = 1;
nodes = (
"56 706 LINE",
"56 0 LINE",
"336 0 LINE SMOOTH",
"498 0 OFFCURVE",
"612 151 OFFCURVE",
"612 355 CURVE SMOOTH",
"612 559 OFFCURVE",
"492 706 OFFCURVE",
"328 706 CURVE SMOOTH"
);
},
{
closed = 1;
nodes = (
"94 152 LINE",
"94 556 LINE",
"348 556 LINE SMOOTH",
"482 556 OFFCURVE",
"577 469 OFFCURVE",
"577 353 CURVE SMOOTH",
"577 237 OFFCURVE",
"484 152 OFFCURVE",
"352 152 CURVE SMOOTH"
);
}
);
};
layerId = "C1951C01-2078-4DCF-9B04-F28136C23FC3";
width = 600;
},
{
background = {
paths = (
{
closed = 1;
nodes = (
"94 706 LINE",
"94 0 LINE",
"56 0 LINE",
"56 706 LINE"
);
},
{
closed = 1;
nodes = (
"336 0 LINE SMOOTH",
"498 0 OFFCURVE",
"612 151 OFFCURVE",
"612 355 CURVE SMOOTH",
"612 559 OFFCURVE",
"492 706 OFFCURVE",
"328 706 CURVE SMOOTH",
"94 706 LINE",
"94 556 LINE",
"348 556 LINE SMOOTH",
"482 556 OFFCURVE",
"577 469 OFFCURVE",
"577 353 CURVE SMOOTH",
"577 237 OFFCURVE",
"484 152 OFFCURVE",
"352 152 CURVE SMOOTH",
"94 152 LINE",
"94 0 LINE"
);
}
);
};
layerId = "73C3FB79-0E24-4863-9919-819B2F26AD09";
paths = (
{
closed = 1;
nodes = (
"94 706 LINE",
"94 0 LINE",
"56 0 LINE",
"56 706 LINE"
);
},
{
closed = 1;
nodes = (
"336 0 LINE SMOOTH",
"498 0 OFFCURVE",
"612 151 OFFCURVE",
"612 355 CURVE SMOOTH",
"612 559 OFFCURVE",
"492 706 OFFCURVE",
"328 706 CURVE SMOOTH",
"94 706 LINE",
"94 556 LINE",
"348 556 LINE SMOOTH",
"482 556 OFFCURVE",
"577 469 OFFCURVE",
"577 353 CURVE SMOOTH",
"577 237 OFFCURVE",
"484 152 OFFCURVE",
"352 152 CURVE SMOOTH",
"94 152 LINE",
"94 0 LINE"
);
}
);
width = 648;
}
);
leftMetricsKey = N;
unicode = 0044;
},
{
glyphname = E;
lastChange = "2019-03-21 21:53:54 +0000";
layers = (
{
background = {
hints = (
{
horizontal = 1;
place = "{0, 148}";
type = Stem;
},
{
horizontal = 1;
place = "{312, 39}";
type = Stem;
},
{
horizontal = 1;
place = "{560, 146}";
type = Stem;
},
{
place = "{56, 38}";
type = Stem;
}
);
paths = (
{
closed = 1;
nodes = (
"94 148 LINE",
"94 312 LINE",
"454 312 LINE",
"454 351 LINE",
"94 351 LINE",
"94 560 LINE",
"522 560 LINE",
"522 706 LINE",
"56 706 LINE",
"56 0 LINE",
"530 0 LINE",
"530 148 LINE"
);
}
);
};
layerId = "C1951C01-2078-4DCF-9B04-F28136C23FC3";
width = 600;
},
{
background = {
paths = (
{
closed = 1;
nodes = (
"94 706 LINE",
"94 0 LINE",
"56 0 LINE",
"56 706 LINE"
);
},
{
closed = 1;
nodes = (
"530 148 LINE",
"530 0 LINE",
"94 0 LINE",
"94 148 LINE"
);
},
{
closed = 1;
nodes = (
"522 706 LINE",
"522 560 LINE",
"94 560 LINE",
"94 706 LINE"
);
},
{
closed = 1;
nodes = (
"454 351 LINE",
"454 312 LINE",
"94 312 LINE",
"94 351 LINE"
);
}
);
};
layerId = "73C3FB79-0E24-4863-9919-819B2F26AD09";
paths = (
{
closed = 1;
nodes = (
"94 706 LINE",
"94 0 LINE",
"56 0 LINE",
"56 706 LINE"
);
},
{
closed = 1;
nodes = (
"530 148 LINE",
"530 0 LINE",
"94 0 LINE",
"94 148 LINE"
);
},
{
closed = 1;
nodes = (
"522 706 LINE",
"522 560 LINE",
"94 560 LINE",
"94 706 LINE"
);
},
{
closed = 1;
nodes = (
"454 351 LINE",
"454 312 LINE",
"94 312 LINE",
"94 351 LINE"
);
}
);
width = 570;
}
);
leftMetricsKey = N;
unicode = 0045;
},
{
glyphname = F;
lastChange = "2019-03-21 21:53:54 +0000";
layers = (
{
background = {
hints = (
{
horizontal = 1;
place = "{272, 39}";
type = Stem;
},
{
horizontal = 1;
place = "{556, 150}";
type = Stem;
},
{
place = "{56, 38}";
type = Stem;
}
);
paths = (
{
closed = 1;
nodes = (
"522 556 LINE",
"522 706 LINE",
"56 706 LINE",
"56 0 LINE",
"94 0 LINE",
"94 272 LINE",
"454 272 LINE",
"454 311 LINE",
"94 311 LINE",
"94 556 LINE"
);
}
);
};
layerId = "C1951C01-2078-4DCF-9B04-F28136C23FC3";
width = 600;
},
{
background = {
paths = (
{
closed = 1;
nodes = (
"94 706 LINE",
"94 0 LINE",
"56 0 LINE",
"56 706 LINE"
);
},
{
closed = 1;
nodes = (
"522 706 LINE",
"522 556 LINE",
"94 556 LINE",
"94 706 LINE"
);
},
{
closed = 1;
nodes = (
"454 311 LINE",
"454 272 LINE",
"94 272 LINE",
"94 311 LINE"
);
}
);
};
layerId = "73C3FB79-0E24-4863-9919-819B2F26AD09";
paths = (
{
closed = 1;
nodes = (
"94 706 LINE",
"94 0 LINE",
"56 0 LINE",
"56 706 LINE"
);
},
{
closed = 1;
nodes = (
"522 706 LINE",
"522 556 LINE",
"94 556 LINE",
"94 706 LINE"
);
},
{
closed = 1;
nodes = (
"454 311 LINE",
"454 272 LINE",
"94 272 LINE",
"94 311 LINE"
);
}
);
width = 538;
}
);
leftMetricsKey = N;
unicode = 0046;
},
{
glyphname = G;
lastChange = "2019-03-21 21:53:54 +0000";
layers = (
{
background = {
hints = (
{
horizontal = 1;
place = "{-10, 156}";
type = Stem;
},
{
horizontal = 1;
place = "{302, 36}";
type = Stem;
},
{
horizontal = 1;
place = "{562, 154}";
type = Stem;
},
{
place = "{36, 36}";
type = Stem;
},
{
place = "{646, 32}";
type = Stem;
},
{
place = "{627, 16}";
type = Stem;
}
);
paths = (
{
closed = 1;
nodes = (
"367 338 LINE",
"367 302 LINE",
"626 302 LINE",
"606 218 OFFCURVE",
"492 146 OFFCURVE",
"360 146 CURVE SMOOTH",
"195 146 OFFCURVE",
"72 234 OFFCURVE",
"72 351 CURVE SMOOTH",
"72 473 OFFCURVE",
"191 562 OFFCURVE",
"355 562 CURVE SMOOTH",
"475 562 OFFCURVE",
"591 496 OFFCURVE",
"627 408 CURVE",
"643 408 LINE",
"643 584 OFFCURVE",
"521 716 OFFCURVE",
"353 716 CURVE SMOOTH",
"169 716 OFFCURVE",
"36 565 OFFCURVE",
"36 355 CURVE SMOOTH",
"36 143 OFFCURVE",
"182 -10 OFFCURVE",
"376 -10 CURVE SMOOTH",
"492 -10 OFFCURVE",
"606 76 OFFCURVE",
"642 180 CURVE",
"650 180 LINE",
"642 0 LINE",
"678 0 LINE",
"678 338 LINE"
);
}
);
};
layerId = "C1951C01-2078-4DCF-9B04-F28136C23FC3";
width = 600;
},
{
background = {
paths = (
{
closed = 1;
nodes = (
"643 408 LINE",
"643 584 OFFCURVE",
"521 716 OFFCURVE",
"353 716 CURVE SMOOTH",
"169 716 OFFCURVE",
"36 565 OFFCURVE",
"36 355 CURVE SMOOTH",
"36 143 OFFCURVE",
"182 -10 OFFCURVE",
"376 -10 CURVE SMOOTH",
"492 -10 OFFCURVE",
"606 76 OFFCURVE",
"642 180 CURVE",
"638 302 LINE",
"626 302 LINE",
"606 218 OFFCURVE",
"492 146 OFFCURVE",
"360 146 CURVE SMOOTH",
"195 146 OFFCURVE",
"72 234 OFFCURVE",
"72 351 CURVE SMOOTH",
"72 473 OFFCURVE",
"191 562 OFFCURVE",
"355 562 CURVE SMOOTH",
"475 562 OFFCURVE",
"591 496 OFFCURVE",
"627 408 CURVE"
);
},
{
closed = 1;
nodes = (
"367 302 LINE",
"638 302 LINE",
"678 302 LINE",
"678 338 LINE",
"367 338 LINE"
);
},
{
closed = 1;
nodes = (
"678 302 LINE",
"638 302 LINE",
"642 180 LINE",
"650 180 LINE",
"642 0 LINE",
"678 0 LINE"
);
}
);
};
layerId = "73C3FB79-0E24-4863-9919-819B2F26AD09";
paths = (
{
closed = 1;
nodes = (
"643 408 LINE",
"643 584 OFFCURVE",
"521 716 OFFCURVE",
"353 716 CURVE SMOOTH",
"169 716 OFFCURVE",
"36 565 OFFCURVE",
"36 355 CURVE SMOOTH",
"36 143 OFFCURVE",
"182 -10 OFFCURVE",
"376 -10 CURVE SMOOTH",
"492 -10 OFFCURVE",
"606 76 OFFCURVE",
"642 180 CURVE",
"638 302 LINE",
"626 302 LINE",
"606 218 OFFCURVE",
"492 146 OFFCURVE",
"360 146 CURVE SMOOTH",
"195 146 OFFCURVE",
"72 234 OFFCURVE",
"72 351 CURVE SMOOTH",
"72 473 OFFCURVE",
"191 562 OFFCURVE",
"355 562 CURVE SMOOTH",
"475 562 OFFCURVE",
"591 496 OFFCURVE",
"627 408 CURVE"
);
},
{
closed = 1;
nodes = (
"367 302 LINE",
"638 302 LINE",
"678 302 LINE",
"678 338 LINE",
"367 338 LINE"
);
},
{
closed = 1;
nodes = (
"678 302 LINE",
"638 302 LINE",
"642 180 LINE",
"650 180 LINE",
"642 0 LINE",
"678 0 LINE"
);
}
);
width = 722;
}
);
unicode = 0047;
},
{
glyphname = H;
lastChange = "2019-03-21 21:53:54 +0000";
layers = (
{
background = {
hints = (
{
horizontal = 1;
place = "{257, 150}";
type = Stem;
},
{
place = "{56, 38}";
type = Stem;
},
{
place = "{581, 38}";
type = Stem;
}
);
paths = (
{
closed = 1;
nodes = (
"581 706 LINE",
"581 407 LINE",
"94 407 LINE",
"94 706 LINE",
"56 706 LINE",
"56 0 LINE",
"94 0 LINE",
"94 257 LINE",
"581 257 LINE",
"581 0 LINE",
"619 0 LINE",
"619 706 LINE"
);
}
);
};
layerId = "C1951C01-2078-4DCF-9B04-F28136C23FC3";
width = 600;
},
{
background = {
paths = (
{
closed = 1;
nodes = (
"94 706 LINE",
"94 0 LINE",
"56 0 LINE",
"56 706 LINE"
);
},
{
closed = 1;
nodes = (
"592 407 LINE",
"592 257 LINE",
"84 257 LINE",
"84 407 LINE"
);
},
{
closed = 1;
nodes = (
"619 706 LINE",
"619 0 LINE",
"581 0 LINE",
"581 706 LINE"
);
}
);
};
layerId = "73C3FB79-0E24-4863-9919-819B2F26AD09";
paths = (
{
closed = 1;
nodes = (
"94 706 LINE",
"94 0 LINE",
"56 0 LINE",
"56 706 LINE"
);
},
{
closed = 1;
nodes = (
"592 407 LINE",
"592 257 LINE",
"84 257 LINE",
"84 407 LINE"
);
},
{
closed = 1;
nodes = (
"619 706 LINE",
"619 0 LINE",
"581 0 LINE",
"581 706 LINE"
);
}
);
width = 675;
}
);
leftMetricsKey = N;
rightMetricsKey = N;
unicode = 0048;
},
{
glyphname = I;
lastChange = "2019-03-21 21:53:54 +0000";
layers = (
{
background = {
hints = (
{
horizontal = 1;
place = "{0, 706}";
type = Stem;
},
{
place = "{56, 38}";
type = Stem;
}
);
paths = (
{
closed = 1;
nodes = (
"56 706 LINE",
"94 706 LINE",
"94 0 LINE",
"56 0 LINE"
);
}
);
};
layerId = "C1951C01-2078-4DCF-9B04-F28136C23FC3";
width = 600;
},
{
background = {
paths = (
{
closed = 1;
nodes = (
"94 706 LINE",
"94 0 LINE",
"56 0 LINE",
"56 706 LINE"
);
}
);
};
layerId = "73C3FB79-0E24-4863-9919-819B2F26AD09";
paths = (
{
closed = 1;
nodes = (
"94 706 LINE",
"94 0 LINE",
"56 0 LINE",
"56 706 LINE"
);
}
);
width = 150;
},
{
associatedMasterId = "73C3FB79-0E24-4863-9919-819B2F26AD09";
background = {
paths = (
{
closed = 1;
nodes = (
"230 706 LINE",
"230 0 LINE",
"192 0 LINE",
"192 706 LINE"
);
}
);
};
layerId = "20A74628-D492-4786-9F0E-7BF7AD929F95";
name = "Nov 9 18, 14:31";
paths = (
{
closed = 1;
nodes = (
"230 706 LINE",
"230 0 LINE",
"192 0 LINE",
"192 706 LINE"
);
},
{
closed = 1;
nodes = (
"368 706 LINE",
"368 554 LINE",
"56 554 LINE",
"56 706 LINE"
);
},
{
closed = 1;
nodes = (
"376 150 LINE",
"376 0 LINE",
"64 0 LINE",
"64 150 LINE"
);
}
);
width = 432;
}
);
leftMetricsKey = N;
rightMetricsKey = N;
unicode = 0049;
},
{
glyphname = J;
lastChange = "2019-03-21 21:53:54 +0000";
layers = (
{
background = {
hints = (
{
horizontal = 1;
place = "{-112, 160}";
type = Stem;
},
{
place = "{304, 38}";
type = Stem;
}
);
paths = (
{
closed = 1;
nodes = (
"304 706 LINE",
"304 178 LINE SMOOTH",
"304 102 OFFCURVE",
"222 48 OFFCURVE",
"108 48 CURVE SMOOTH",
"76 48 OFFCURVE",
"42 52 OFFCURVE",
"14 58 CURVE",
"12 -105 LINE",
"40 -110 OFFCURVE",
"68 -112 OFFCURVE",
"100 -112 CURVE SMOOTH",
"240 -112 OFFCURVE",
"342 6 OFFCURVE",
"342 174 CURVE SMOOTH",
"342 706 LINE"
);
}
);
};
layerId = "C1951C01-2078-4DCF-9B04-F28136C23FC3";
width = 600;
},
{
background = {
paths = (
{
closed = 1;
nodes = (
"12 -105 LINE",
"40 -110 OFFCURVE",
"68 -112 OFFCURVE",
"100 -112 CURVE SMOOTH",
"240 -112 OFFCURVE",
"342 6 OFFCURVE",
"342 174 CURVE",
"304 178 LINE",
"304 102 OFFCURVE",
"222 48 OFFCURVE",
"108 48 CURVE SMOOTH",
"76 48 OFFCURVE",
"42 52 OFFCURVE",
"14 58 CURVE"
);
},
{
closed = 1;
nodes = (
"342 706 LINE",
"342 174 LINE",
"304 178 LINE",
"304 706 LINE"
);
}
);
};
layerId = "73C3FB79-0E24-4863-9919-819B2F26AD09";
paths = (
{
closed = 1;
nodes = (
"12 -105 LINE",
"40 -110 OFFCURVE",
"68 -112 OFFCURVE",
"100 -112 CURVE SMOOTH",
"240 -112 OFFCURVE",
"342 6 OFFCURVE",
"342 174 CURVE",
"304 178 LINE",
"304 102 OFFCURVE",
"222 48 OFFCURVE",
"108 48 CURVE SMOOTH",
"76 48 OFFCURVE",
"42 52 OFFCURVE",
"14 58 CURVE"
);
},
{
closed = 1;
nodes = (
"342 706 LINE",
"342 174 LINE",
"304 178 LINE",
"304 706 LINE"
);
}
);
width = 390;
},
{
associatedMasterId = "73C3FB79-0E24-4863-9919-819B2F26AD09";
background = {
paths = (
{
closed = 1;
nodes = (
"-10 44 LINE",
"34 13 OFFCURVE",
"89 -13 OFFCURVE",
"168 -13 CURVE SMOOTH",
"266 -13 OFFCURVE",
"325 21 OFFCURVE",
"356 77 CURVE SMOOTH",
"375 110 OFFCURVE",
"384 158 OFFCURVE",
"384 224 CURVE SMOOTH",
"384 706 LINE",
"304 706 LINE",
"304 231 LINE SMOOTH",
"304 187 OFFCURVE",
"298 142 OFFCURVE",
"287 118 CURVE SMOOTH",
"264 71 OFFCURVE",
"217 57 OFFCURVE",
"166 57 CURVE SMOOTH",
"114 57 OFFCURVE",
"68 78 OFFCURVE",
"32 109 CURVE"
);
}
);
};
layerId = "DF3B4D95-58A3-4F4D-A8CB-0C8E5949B406";
name = "Mar 28 17, 19:15";
paths = (
{
closed = 1;
nodes = (
"368 191 OFFCURVE",
"294 135 OFFCURVE",
"196 137 CURVE SMOOTH",
"142 138 OFFCURVE",
"71 164 OFFCURVE",
"32 197 CURVE",
"-12 197 LINE",
"2 79 OFFCURVE",
"95 -10 OFFCURVE",
"204 -11 CURVE SMOOTH",
"321 -12 OFFCURVE",
"408 108 OFFCURVE",
"408 268 CURVE",
"368 268 LINE"
);
},
{
closed = 1;
nodes = (
"368 268 LINE",
"408 268 LINE",
"408 706 LINE",
"368 706 LINE"
);
}
);
width = 464;
},
{
associatedMasterId = "73C3FB79-0E24-4863-9919-819B2F26AD09";
background = {
paths = (
{
closed = 1;
nodes = (
"-46 44 LINE",
"-2 13 OFFCURVE",
"53 -13 OFFCURVE",
"132 -13 CURVE SMOOTH",
"230 -13 OFFCURVE",
"289 21 OFFCURVE",
"320 77 CURVE SMOOTH",
"339 110 OFFCURVE",
"348 158 OFFCURVE",
"348 224 CURVE SMOOTH",
"348 706 LINE",
"268 706 LINE",
"268 231 LINE SMOOTH",
"268 187 OFFCURVE",
"262 142 OFFCURVE",
"251 118 CURVE SMOOTH",
"228 71 OFFCURVE",
"181 57 OFFCURVE",
"130 57 CURVE SMOOTH",
"78 57 OFFCURVE",
"32 78 OFFCURVE",
"-4 109 CURVE"
);
}
);
};
layerId = "79C6B77B-E3AA-49E3-8B22-3446AEB13C5D";
name = "Mar 28 17, 20:20";
paths = (
{
closed = 1;
nodes = (
"0 -11 LINE",
"176 -13 OFFCURVE",
"308 126 OFFCURVE",
"308 312 CURVE",
"268 312 LINE",
"268 214 OFFCURVE",
"153 139 OFFCURVE",
"0 137 CURVE"
);
},
{
closed = 1;
nodes = (
"268 312 LINE",
"308 312 LINE",
"308 706 LINE",
"268 706 LINE"
);
}
);
width = 350;
}
);
note = "Add non-descendent ss";
unicode = 004A;
},
{
glyphname = K;
lastChange = "2019-03-21 21:53:54 +0000";
layers = (
{
background = {
hints = (
{
horizontal = 1;
place = "{0, 706}";
type = Stem;
},
{
place = "{94, 80}";
type = Stem;
}
);
paths = (
{
closed = 1;
nodes = (
"56 0 LINE",
"56 706 LINE",
"94 706 LINE",
"94 297 LINE",
"494 706 LINE",
"548 706 LINE",
"280 424 LINE",
"604 0 LINE",
"408 0 LINE",
"174 316 LINE",
"94 232 LINE",
"94 0 LINE"
);
}
);
};
layerId = "C1951C01-2078-4DCF-9B04-F28136C23FC3";
width = 600;
},
{
background = {
paths = (
{
closed = 1;
nodes = (
"56 706 LINE",
"94 706 LINE",
"94 297 LINE",
"494 706 LINE",
"548 706 LINE",
"280 424 LINE",
"604 0 LINE",
"408 0 LINE",
"174 316 LINE",
"94 232 LINE",
"94 0 LINE",
"56 0 LINE"
);
}
);
};
layerId = "73C3FB79-0E24-4863-9919-819B2F26AD09";
paths = (
{
closed = 1;
nodes = (
"56 706 LINE",
"94 706 LINE",
"94 297 LINE",
"494 706 LINE",
"548 706 LINE",
"280 424 LINE",
"604 0 LINE",
"408 0 LINE",
"174 316 LINE",
"94 232 LINE",
"94 0 LINE",
"56 0 LINE"
);
}
);
width = 608;
}
);
leftMetricsKey = N;
unicode = 004B;
},
{
glyphname = L;
lastChange = "2019-03-21 21:53:54 +0000";
layers = (
{
background = {
hints = (
{
horizontal = 1;
place = "{0, 152}";
type = Stem;
},
{
place = "{56, 38}";
type = Stem;
}
);
paths = (
{
closed = 1;
nodes = (
"94 152 LINE",
"94 706 LINE",
"56 706 LINE",
"56 0 LINE",
"522 0 LINE",
"522 152 LINE"
);
}
);
};
layerId = "C1951C01-2078-4DCF-9B04-F28136C23FC3";
width = 600;
},
{
background = {
paths = (
{
closed = 1;
nodes = (
"94 706 LINE",
"94 0 LINE",
"56 0 LINE",
"56 706 LINE"
);
},
{
closed = 1;
nodes = (
"522 152 LINE",
"522 0 LINE",
"94 0 LINE",
"94 152 LINE"
);
}
);
};
layerId = "73C3FB79-0E24-4863-9919-819B2F26AD09";
paths = (
{
closed = 1;
nodes = (
"94 706 LINE",
"94 0 LINE",
"56 0 LINE",
"56 706 LINE"
);
},
{
closed = 1;
nodes = (
"522 152 LINE",
"522 0 LINE",
"94 0 LINE",
"94 152 LINE"
);
}
);
width = 542;
}
);
leftMetricsKey = N;
unicode = 004C;
},
{
color = 6;
glyphname = M;
lastChange = "2019-03-21 21:53:54 +0000";
layers = (
{
background = {
hints = (
{
horizontal = 1;
place = "{0, 706}";
type = Stem;
},
{
place = "{56, 668}";
type = Stem;
}
);
paths = (
{
closed = 1;
nodes = (
"56 0 LINE",
"56 706 LINE",
"92 706 LINE",
"397 208 LINE",
"690 706 LINE",
"724 706 LINE",
"724 0 LINE",
"686 0 LINE",
"686 454 LINE",
"404 0 LINE",
"386 0 LINE",
"94 456 LINE",
"94 0 LINE"
);
}
);
};
layerId = "C1951C01-2078-4DCF-9B04-F28136C23FC3";
width = 600;
},
{
background = {
paths = (
{
closed = 1;
nodes = (
"56 706 LINE",
"92 706 LINE",
"397 208 LINE",
"690 706 LINE",
"724 706 LINE",
"724 0 LINE",
"686 0 LINE",
"686 454 LINE",
"404 0 LINE",
"386 0 LINE",
"94 456 LINE",
"94 0 LINE",
"56 0 LINE"
);
}
);
};
layerId = "73C3FB79-0E24-4863-9919-819B2F26AD09";
paths = (
{
closed = 1;
nodes = (
"56 706 LINE",
"92 706 LINE",
"397 208 LINE",
"690 706 LINE",
"724 706 LINE",
"724 0 LINE",
"686 0 LINE",
"686 454 LINE",
"404 0 LINE",
"386 0 LINE",
"94 456 LINE",
"94 0 LINE",
"56 0 LINE"
);
}
);
width = 780;
},
{
associatedMasterId = "73C3FB79-0E24-4863-9919-819B2F26AD09";
background = {
paths = (
{
closed = 1;
nodes = (
"96 0 LINE",
"96 476 OFFCURVE",
"95 548 OFFCURVE",
"92 631 CURVE",
"156 485 OFFCURVE",
"209 374 OFFCURVE",
"385 0 CURVE",
"446 0 LINE",
"641 414 OFFCURVE",
"696 537 OFFCURVE",
"734 631 CURVE",
"730 542 OFFCURVE",
"730 425 OFFCURVE",
"730 0 CURVE",
"808 0 LINE",
"808 706 LINE",
"694 706 LINE",
"510 309 OFFCURVE",
"450 178 OFFCURVE",
"417 98 CURVE",
"383 182 OFFCURVE",
"324 309 OFFCURVE",
"133 706 CURVE",
"19 706 LINE",
"19 0 LINE"
);
}
);
};
layerId = "19080888-8616-46AD-841E-AEF310373839";
name = "Mar 26 17, 20:01";
paths = (
{
closed = 1;
nodes = (
"96 706 LINE",
"96 0 LINE",
"56 0 LINE",
"56 706 LINE"
);
},
{
closed = 1;
nodes = (
"770 706 LINE",
"770 0 LINE",
"730 0 LINE",
"730 706 LINE"
);
},
{
closed = 1;
nodes = (
"96 706 LINE",
"108 706 LINE",
"411 206 LINE",
"417 194 LINE",
"423 206 LINE",
"722 706 LINE",
"730 706 LINE",
"730 482 LINE",
"435 0 LINE",
"399 0 LINE",
"96 482 LINE"
);
}
);
width = 826;
},
{
associatedMasterId = "73C3FB79-0E24-4863-9919-819B2F26AD09";
background = {
paths = (
{
closed = 1;
nodes = (
"96 0 LINE",
"96 476 OFFCURVE",
"95 548 OFFCURVE",
"92 631 CURVE",
"156 485 OFFCURVE",
"209 374 OFFCURVE",
"385 0 CURVE",
"446 0 LINE",
"641 414 OFFCURVE",
"696 537 OFFCURVE",
"734 631 CURVE",
"730 542 OFFCURVE",
"730 425 OFFCURVE",
"730 0 CURVE",
"808 0 LINE",
"808 706 LINE",
"694 706 LINE",
"510 309 OFFCURVE",
"450 178 OFFCURVE",
"417 98 CURVE",
"383 182 OFFCURVE",
"324 309 OFFCURVE",
"133 706 CURVE",
"19 706 LINE",
"19 0 LINE"
);
}
);
};
layerId = "647364EA-D746-4B8F-8D42-EEDEEC11BFDC";
name = "Mar 26 17, 20:01";
paths = (
{
closed = 1;
nodes = (
"96 706 LINE",
"96 0 LINE",
"56 0 LINE",
"56 706 LINE"
);
},
{
closed = 1;
nodes = (
"734 706 LINE",
"734 0 LINE",
"694 0 LINE",
"694 706 LINE"
);
},
{
closed = 1;
nodes = (
"96 706 LINE",
"108 706 LINE",
"454 142 LINE",
"686 706 LINE",
"694 706 LINE",
"694 618 LINE",
"447 0 LINE",
"399 0 LINE",
"96 482 LINE"
);
}
);
width = 826;
},
{
associatedMasterId = "73C3FB79-0E24-4863-9919-819B2F26AD09";
background = {
paths = (
{
closed = 1;
nodes = (
"96 0 LINE",
"96 476 OFFCURVE",
"95 548 OFFCURVE",
"92 631 CURVE",
"156 485 OFFCURVE",
"209 374 OFFCURVE",
"385 0 CURVE",
"446 0 LINE",
"641 414 OFFCURVE",
"696 537 OFFCURVE",
"734 631 CURVE",
"730 542 OFFCURVE",
"730 425 OFFCURVE",
"730 0 CURVE",
"808 0 LINE",
"808 706 LINE",
"694 706 LINE",
"510 309 OFFCURVE",
"450 178 OFFCURVE",
"417 98 CURVE",
"383 182 OFFCURVE",
"324 309 OFFCURVE",
"133 706 CURVE",
"19 706 LINE",
"19 0 LINE"
);
}
);
};
layerId = "757F245F-AFBC-4222-9070-BD83546250EF";
name = "Mar 26 17, 20:07";
paths = (
{
closed = 1;
nodes = (
"96 706 LINE",
"96 0 LINE",
"56 0 LINE",
"56 706 LINE"
);
},
{
closed = 1;
nodes = (
"802 706 LINE",
"802 0 LINE",
"686 0 LINE",
"686 706 LINE"
);
},
{
closed = 1;
nodes = (
"96 706 LINE",
"108 706 LINE",
"445 147 LINE",
"678 706 LINE",
"686 706 LINE",
"686 614 LINE",
"435 0 LINE",
"399 0 LINE",
"96 482 LINE"
);
}
);
width = 890;
}
);
leftMetricsKey = N;
note = nera;
rightMetricsKey = N;
unicode = 004D;
},
{
color = 6;
glyphname = N;
lastChange = "2019-03-21 21:53:54 +0000";
layers = (
{
background = {
hints = (
{
horizontal = 1;
place = "{0, 706}";
type = Stem;
},
{
place = "{56, 566}";
type = Stem;
}
);
paths = (
{
closed = 1;
nodes = (
"56 0 LINE",
"56 706 LINE",
"92 706 LINE",
"584 200 LINE",
"584 706 LINE",
"622 706 LINE",
"622 0 LINE",
"588 0 LINE",
"94 502 LINE",
"94 0 LINE"
);
}
);
};
layerId = "C1951C01-2078-4DCF-9B04-F28136C23FC3";
width = 600;
},
{
background = {
paths = (
{
closed = 1;
nodes = (
"56 706 LINE",
"92 706 LINE",
"584 200 LINE",
"584 706 LINE",
"622 706 LINE",
"622 0 LINE",
"588 0 LINE",
"94 502 LINE",
"94 0 LINE",
"56 0 LINE"
);
}
);
};
layerId = "73C3FB79-0E24-4863-9919-819B2F26AD09";
paths = (
{
closed = 1;
nodes = (
"56 706 LINE",
"92 706 LINE",
"584 200 LINE",
"584 706 LINE",
"622 706 LINE",
"622 0 LINE",
"588 0 LINE",
"94 502 LINE",
"94 0 LINE",
"56 0 LINE"
);
}
);
width = 678;
}
);
unicode = 004E;
},
{
glyphname = O;
lastChange = "2019-03-21 21:53:54 +0000";
layers = (
{
background = {
hints = (
{
horizontal = 1;
place = "{-10, 156}";
type = Stem;
},
{
horizontal = 1;
place = "{562, 154}";
type = Stem;
},
{
place = "{36, 34}";
type = Stem;
},
{
place = "{658, 34}";
type = Stem;
}
);
paths = (
{
closed = 1;
nodes = (
"558 -10 OFFCURVE",
"692 143 OFFCURVE",
"692 353 CURVE SMOOTH",
"692 563 OFFCURVE",
"556 716 OFFCURVE",
"364 716 CURVE SMOOTH",
"172 716 OFFCURVE",
"36 563 OFFCURVE",
"36 353 CURVE SMOOTH",
"36 143 OFFCURVE",
"174 -10 OFFCURVE",
"366 -10 CURVE SMOOTH"
);
},
{
closed = 1;
nodes = (
"192 146 OFFCURVE",
"70 234 OFFCURVE",
"70 354 CURVE SMOOTH",
"70 474 OFFCURVE",
"192 562 OFFCURVE",
"364 562 CURVE SMOOTH",
"536 562 OFFCURVE",
"658 474 OFFCURVE",
"658 354 CURVE SMOOTH",
"658 234 OFFCURVE",
"536 146 OFFCURVE",
"364 146 CURVE SMOOTH"
);
}
);
};
guideLines = (
{
angle = 77;
position = "{407, 351}";
}
);
layerId = "C1951C01-2078-4DCF-9B04-F28136C23FC3";
paths = (
{
closed = 1;
nodes = (
"550 -10 OFFCURVE",
"719 129 OFFCURVE",
"719 315 CURVE",
"852 544 OFFCURVE",
"755 716 OFFCURVE",
"491 716 CURVE SMOOTH",
"265 716 OFFCURVE",
"95 575 OFFCURVE",
"95 387 CURVE",
"-36 160 OFFCURVE",
"62 -10 OFFCURVE",
"324 -10 CURVE SMOOTH"
);
},
{
closed = 1;
nodes = (
"218 142 OFFCURVE",
"111 216 OFFCURVE",
"111 315 CURVE SMOOTH",
"111 455 OFFCURVE",
"258 560 OFFCURVE",
"455 560 CURVE SMOOTH",
"597 560 OFFCURVE",
"703 486 OFFCURVE",
"703 387 CURVE SMOOTH",
"703 247 OFFCURVE",
"556 142 OFFCURVE",
"360 142 CURVE SMOOTH"
);
}
);
width = 765;
},
{
background = {
paths = (
{
closed = 1;
nodes = (
"558 -10 OFFCURVE",
"692 143 OFFCURVE",
"692 353 CURVE SMOOTH",
"692 563 OFFCURVE",
"556 716 OFFCURVE",
"364 716 CURVE SMOOTH",
"172 716 OFFCURVE",
"36 563 OFFCURVE",
"36 353 CURVE SMOOTH",
"36 143 OFFCURVE",
"174 -10 OFFCURVE",
"366 -10 CURVE SMOOTH"
);
},
{
closed = 1;
nodes = (
"192 146 OFFCURVE",
"70 234 OFFCURVE",
"70 354 CURVE SMOOTH",
"70 474 OFFCURVE",
"192 562 OFFCURVE",
"364 562 CURVE SMOOTH",
"536 562 OFFCURVE",
"658 474 OFFCURVE",
"658 354 CURVE SMOOTH",
"658 234 OFFCURVE",
"536 146 OFFCURVE",
"364 146 CURVE SMOOTH"
);
}
);
};
layerId = "73C3FB79-0E24-4863-9919-819B2F26AD09";
paths = (
{
closed = 1;
nodes = (
"558 -10 OFFCURVE",
"692 143 OFFCURVE",
"692 353 CURVE SMOOTH",
"692 563 OFFCURVE",
"556 716 OFFCURVE",
"364 716 CURVE SMOOTH",
"172 716 OFFCURVE",
"36 563 OFFCURVE",
"36 353 CURVE SMOOTH",
"36 143 OFFCURVE",
"174 -10 OFFCURVE",
"366 -10 CURVE SMOOTH"
);
},
{
closed = 1;
nodes = (
"192 146 OFFCURVE",
"70 234 OFFCURVE",
"70 354 CURVE SMOOTH",
"70 474 OFFCURVE",
"192 562 OFFCURVE",
"364 562 CURVE SMOOTH",
"536 562 OFFCURVE",
"658 474 OFFCURVE",
"658 354 CURVE SMOOTH",
"658 234 OFFCURVE",
"536 146 OFFCURVE",
"364 146 CURVE SMOOTH"
);
}
);
width = 728;
}
);
leftKerningGroup = O;
unicode = 004F;
},
{
glyphname = P;
lastChange = "2019-03-21 21:53:54 +0000";
layers = (
{
background = {
hints = (
{
horizontal = 1;
place = "{233, 39}";
type = Stem;
},
{
horizontal = 1;
place = "{554, 152}";
type = Stem;
},
{
place = "{56, 38}";
type = Stem;
},
{
place = "{522, 60}";
type = Stem;
}
);
paths = (
{
closed = 1;
nodes = (
"56 706 LINE",
"56 0 LINE",
"94 0 LINE",
"94 233 LINE",
"356 233 LINE SMOOTH",
"488 233 OFFCURVE",
"582 325 OFFCURVE",
"582 449 CURVE SMOOTH",
"582 599 OFFCURVE",
"480 706 OFFCURVE",
"336 706 CURVE SMOOTH"
);
},
{
closed = 1;
nodes = (
"94 272 LINE",
"94 554 LINE",
"360 554 LINE SMOOTH",
"454 554 OFFCURVE",
"522 494 OFFCURVE",
"522 412 CURVE SMOOTH",
"522 332 OFFCURVE",
"456 272 OFFCURVE",
"364 272 CURVE SMOOTH"
);
}
);
};
layerId = "C1951C01-2078-4DCF-9B04-F28136C23FC3";
width = 600;
},
{
background = {
paths = (
{
closed = 1;
nodes = (
"94 706 LINE",
"94 0 LINE",
"56 0 LINE",
"56 706 LINE"
);
},
{
closed = 1;
nodes = (
"356 233 LINE",
"488 233 OFFCURVE",
"582 325 OFFCURVE",
"582 449 CURVE SMOOTH",
"582 599 OFFCURVE",
"480 706 OFFCURVE",
"336 706 CURVE",
"360 554 LINE",
"454 554 OFFCURVE",
"522 494 OFFCURVE",
"522 412 CURVE SMOOTH",
"522 332 OFFCURVE",
"456 272 OFFCURVE",
"364 272 CURVE"
);
},
{
closed = 1;
nodes = (
"94 554 LINE",
"360 554 LINE",
"336 706 LINE",
"94 706 LINE"
);
},
{
closed = 1;
nodes = (
"94 233 LINE",
"356 233 LINE",
"364 272 LINE",
"94 272 LINE"
);
}
);
};
layerId = "73C3FB79-0E24-4863-9919-819B2F26AD09";
paths = (
{
closed = 1;
nodes = (
"94 706 LINE",
"94 0 LINE",
"56 0 LINE",
"56 706 LINE"
);
},
{
closed = 1;
nodes = (
"356 233 LINE",
"488 233 OFFCURVE",
"582 325 OFFCURVE",
"582 449 CURVE SMOOTH",
"582 599 OFFCURVE",
"480 706 OFFCURVE",
"336 706 CURVE",
"360 554 LINE",
"454 554 OFFCURVE",
"522 494 OFFCURVE",
"522 412 CURVE SMOOTH",
"522 332 OFFCURVE",
"456 272 OFFCURVE",
"364 272 CURVE"
);
},
{
closed = 1;
nodes = (
"94 554 LINE",
"360 554 LINE",
"336 706 LINE",
"94 706 LINE"
);
},
{
closed = 1;
nodes = (
"94 233 LINE",
"356 233 LINE",
"364 272 LINE",
"94 272 LINE"
);
}
);
width = 602;
}
);
leftMetricsKey = N;
unicode = 0050;
},
{
glyphname = Q;
lastChange = "2019-03-21 21:53:54 +0000";
layers = (
{
background = {
hints = (
{
horizontal = 1;
place = "{562, 154}";
type = Stem;
},
{
place = "{36, 35}";
type = Stem;
},
{
place = "{352, 37}";
type = Stem;
},
{
place = "{661, 35}";
type = Stem;
},
{
place = "{354.5, 34.5}";
type = Stem;
}
);
paths = (
{
closed = 1;
nodes = (
"696 563 OFFCURVE",
"558 716 OFFCURVE",
"366 716 CURVE SMOOTH",
"174 716 OFFCURVE",
"36 563 OFFCURVE",
"36 353 CURVE SMOOTH",
"36 148 OFFCURVE",
"169 -3 OFFCURVE",
"354 -10 CURVE",
"355 -92 LINE",
"389 -92 LINE",
"389 -9 LINE",
"570 1 OFFCURVE",
"696 151 OFFCURVE",
"696 353 CURVE SMOOTH"
);
},
{
closed = 1;
nodes = (
"351 352 LINE",
"353 146 LINE",
"188 151 OFFCURVE",
"71 237 OFFCURVE",
"71 354 CURVE SMOOTH",
"71 474 OFFCURVE",
"194 562 OFFCURVE",
"366 562 CURVE SMOOTH",
"538 562 OFFCURVE",
"661 474 OFFCURVE",
"661 354 CURVE SMOOTH",
"661 239 OFFCURVE",
"549 154 OFFCURVE",
"389 147 CURVE",
"389 352 LINE"
);
}
);
};
layerId = "C1951C01-2078-4DCF-9B04-F28136C23FC3";
width = 600;
},
{
background = {
paths = (
{
closed = 1;
nodes = (
"355 -92 LINE",
"389 -92 LINE",
"389 352 LINE",
"351 352 LINE"
);
},
{
closed = 1;
nodes = (
"560 -10 OFFCURVE",
"696 143 OFFCURVE",
"696 353 CURVE SMOOTH",
"696 563 OFFCURVE",
"558 716 OFFCURVE",
"366 716 CURVE SMOOTH",
"174 716 OFFCURVE",
"36 563 OFFCURVE",
"36 353 CURVE SMOOTH",
"36 143 OFFCURVE",
"176 -10 OFFCURVE",
"368 -10 CURVE SMOOTH"
);
},
{
closed = 1;
nodes = (
"194 146 OFFCURVE",
"71 234 OFFCURVE",
"71 354 CURVE SMOOTH",
"71 474 OFFCURVE",
"194 562 OFFCURVE",
"366 562 CURVE SMOOTH",
"538 562 OFFCURVE",
"661 474 OFFCURVE",
"661 354 CURVE SMOOTH",
"661 234 OFFCURVE",
"538 146 OFFCURVE",
"366 146 CURVE SMOOTH"
);
}
);
};
layerId = "73C3FB79-0E24-4863-9919-819B2F26AD09";
paths = (
{
closed = 1;
nodes = (
"355 -92 LINE",
"389 -92 LINE",
"389 352 LINE",
"351 352 LINE"
);
},
{
closed = 1;
nodes = (
"560 -10 OFFCURVE",
"696 143 OFFCURVE",
"696 353 CURVE SMOOTH",
"696 563 OFFCURVE",
"558 716 OFFCURVE",
"366 716 CURVE SMOOTH",
"174 716 OFFCURVE",
"36 563 OFFCURVE",
"36 353 CURVE SMOOTH",
"36 143 OFFCURVE",
"176 -10 OFFCURVE",
"368 -10 CURVE SMOOTH"
);
},
{
closed = 1;
nodes = (
"194 146 OFFCURVE",
"71 234 OFFCURVE",
"71 354 CURVE SMOOTH",
"71 474 OFFCURVE",
"194 562 OFFCURVE",
"366 562 CURVE SMOOTH",
"538 562 OFFCURVE",
"661 474 OFFCURVE",
"661 354 CURVE SMOOTH",
"661 234 OFFCURVE",
"538 146 OFFCURVE",
"366 146 CURVE SMOOTH"
);
}
);
width = 732;
},
{
associatedMasterId = "73C3FB79-0E24-4863-9919-819B2F26AD09";
background = {
paths = (
{
closed = 1;
nodes = (
"799 550 OFFCURVE",
"691 719 OFFCURVE",
"428 719 CURVE SMOOTH",
"191 719 OFFCURVE",
"48 579 OFFCURVE",
"48 358 CURVE SMOOTH",
"48 140 OFFCURVE",
"176 -13 OFFCURVE",
"432 -13 CURVE SMOOTH",
"507 -13 OFFCURVE",
"573 2 OFFCURVE",
"628 32 CURVE",
"815 -97 LINE",
"863 -38 LINE",
"691 77 LINE",
"760 139 OFFCURVE",
"799 233 OFFCURVE",
"799 351 CURVE SMOOTH"
);
},
{
closed = 1;
nodes = (
"717 163 OFFCURVE",
"604 56 OFFCURVE",
"432 56 CURVE SMOOTH",
"247 56 OFFCURVE",
"130 171 OFFCURVE",
"130 361 CURVE SMOOTH",
"130 539 OFFCURVE",
"244 649 OFFCURVE",
"426 649 CURVE SMOOTH",
"606 649 OFFCURVE",
"717 544 OFFCURVE",
"717 352 CURVE SMOOTH"
);
}
);
};
layerId = "A41BD7C8-BFDE-4D47-A248-048CF06B49B2";
name = "Mar 28 17, 16:41";
paths = (
{
closed = 1;
nodes = (
"36 145 OFFCURVE",
"183 -11 OFFCURVE",
"380 -10 CURVE SMOOTH",
"441 -10 OFFCURVE",
"526 21 OFFCURVE",
"577 62 CURVE",
"615 -12 LINE",
"732 49 LINE",
"659 166 LINE",
"687 213 OFFCURVE",
"708 294 OFFCURVE",
"708 354 CURVE SMOOTH",
"708 563 OFFCURVE",
"564 719 OFFCURVE",
"372 717 CURVE SMOOTH",
"180 715 OFFCURVE",
"36 559 OFFCURVE",
"36 354 CURVE SMOOTH"
);
},
{
closed = 1;
nodes = (
"78 468 OFFCURVE",
"204 553 OFFCURVE",
"372 553 CURVE SMOOTH",
"540 553 OFFCURVE",
"666 468 OFFCURVE",
"666 354 CURVE SMOOTH",
"666 322 OFFCURVE",
"647 274 OFFCURVE",
"622 242 CURVE",
"548 371 LINE",
"435 315 LINE",
"517 173 LINE",
"478 156 OFFCURVE",
"417 150 OFFCURVE",
"376 150 CURVE SMOOTH",
"206 149 OFFCURVE",
"78 236 OFFCURVE",
"78 354 CURVE SMOOTH"
);
}
);
width = 744;
},
{
associatedMasterId = "73C3FB79-0E24-4863-9919-819B2F26AD09";
background = {
paths = (
{
closed = 1;
nodes = (
"799 550 OFFCURVE",
"691 719 OFFCURVE",
"428 719 CURVE SMOOTH",
"191 719 OFFCURVE",
"48 579 OFFCURVE",
"48 358 CURVE SMOOTH",
"48 140 OFFCURVE",
"176 -13 OFFCURVE",
"432 -13 CURVE SMOOTH",
"507 -13 OFFCURVE",
"573 2 OFFCURVE",
"628 32 CURVE",
"815 -97 LINE",
"863 -38 LINE",
"691 77 LINE",
"760 139 OFFCURVE",
"799 233 OFFCURVE",
"799 351 CURVE SMOOTH"
);
},
{
closed = 1;
nodes = (
"717 163 OFFCURVE",
"604 56 OFFCURVE",
"432 56 CURVE SMOOTH",
"247 56 OFFCURVE",
"130 171 OFFCURVE",
"130 361 CURVE SMOOTH",
"130 539 OFFCURVE",
"244 649 OFFCURVE",
"426 649 CURVE SMOOTH",
"606 649 OFFCURVE",
"717 544 OFFCURVE",
"717 352 CURVE SMOOTH"
);
}
);
};
layerId = "AFB1BCAF-8520-456A-AEF2-DA3CB41BDFF0";
name = "Mar 29 17, 23:40";
paths = (
{
closed = 1;
nodes = (
"564 -9 OFFCURVE",
"708 147 OFFCURVE",
"708 354 CURVE SMOOTH",
"708 563 OFFCURVE",
"564 719 OFFCURVE",
"372 717 CURVE SMOOTH",
"180 715 OFFCURVE",
"36 559 OFFCURVE",
"36 354 CURVE SMOOTH",
"36 145 OFFCURVE",
"180 -11 OFFCURVE",
"372 -10 CURVE SMOOTH"
);
},
{
closed = 1;
nodes = (
"204 157 OFFCURVE",
"78 241 OFFCURVE",
"78 354 CURVE SMOOTH",
"78 468 OFFCURVE",
"204 553 OFFCURVE",
"372 553 CURVE SMOOTH",
"540 553 OFFCURVE",
"666 468 OFFCURVE",
"666 354 CURVE SMOOTH",
"666 243 OFFCURVE",
"540 159 OFFCURVE",
"372 158 CURVE SMOOTH"
);
},
{
closed = 1;
nodes = (
"527 -44 OFFCURVE",
"463 1 OFFCURVE",
"463 61 CURVE",
"423 61 LINE",
"422 -84 OFFCURVE",
"503 -193 OFFCURVE",
"612 -193 CURVE",
"612 -45 LINE"
);
}
);
width = 744;
}
);
unicode = 0051;
},
{
color = 6;
glyphname = R;
lastChange = "2019-03-21 21:53:54 +0000";
layers = (
{
background = {
hints = (
{
horizontal = 1;
place = "{249, 39}";
type = Stem;
},
{
horizontal = 1;
place = "{554, 152}";
type = Stem;
},
{
place = "{56, 38}";
type = Stem;
},
{
place = "{522, 60}";
type = Stem;
}
);
paths = (
{
closed = 1;
nodes = (
"582 601 OFFCURVE",
"480 706 OFFCURVE",
"336 706 CURVE SMOOTH",
"56 706 LINE",
"56 0 LINE",
"94 0 LINE",
"94 249 LINE",
"356 249 LINE SMOOTH",
"365 249 OFFCURVE",
"373 249 OFFCURVE",
"381 250 CURVE",
"512 0 LINE",
"560 0 LINE",
"424 257 LINE",
"519 281 OFFCURVE",
"582 357 OFFCURVE",
"582 457 CURVE SMOOTH"
);
},
{
closed = 1;
nodes = (
"94 288 LINE",
"94 554 LINE",
"360 554 LINE SMOOTH",
"454 554 OFFCURVE",
"522 496 OFFCURVE",
"522 420 CURVE SMOOTH",
"522 344 OFFCURVE",
"456 288 OFFCURVE",
"364 288 CURVE SMOOTH"
);
}
);
};
layerId = "C1951C01-2078-4DCF-9B04-F28136C23FC3";
width = 600;
},
{
background = {
paths = (
{
closed = 1;
nodes = (
"94 706 LINE",
"94 0 LINE",
"56 0 LINE",
"56 706 LINE"
);
},
{
closed = 1;
nodes = (
"356 249 LINE SMOOTH",
"488 249 OFFCURVE",
"582 335 OFFCURVE",
"582 457 CURVE SMOOTH",
"582 601 OFFCURVE",
"480 706 OFFCURVE",
"336 706 CURVE SMOOTH",
"94 706 LINE",
"94 554 LINE",
"360 554 LINE SMOOTH",
"454 554 OFFCURVE",
"522 496 OFFCURVE",
"522 420 CURVE SMOOTH",
"522 344 OFFCURVE",
"456 288 OFFCURVE",
"364 288 CURVE SMOOTH",
"94 288 LINE",
"94 249 LINE"
);
},
{
closed = 1;
nodes = (
"512 0 LINE",
"560 0 LINE",
"420 264 LINE",
"378 256 LINE"
);
}
);
};
layerId = "73C3FB79-0E24-4863-9919-819B2F26AD09";
paths = (
{
closed = 1;
nodes = (
"94 706 LINE",
"94 0 LINE",
"56 0 LINE",
"56 706 LINE"
);
},
{
closed = 1;
nodes = (
"356 249 LINE SMOOTH",
"488 249 OFFCURVE",
"582 335 OFFCURVE",
"582 457 CURVE SMOOTH",
"582 601 OFFCURVE",
"480 706 OFFCURVE",
"336 706 CURVE SMOOTH",
"94 706 LINE",
"94 554 LINE",
"360 554 LINE SMOOTH",
"454 554 OFFCURVE",
"522 496 OFFCURVE",
"522 420 CURVE SMOOTH",
"522 344 OFFCURVE",
"456 288 OFFCURVE",
"364 288 CURVE SMOOTH",
"94 288 LINE",
"94 249 LINE"
);
},
{
closed = 1;
nodes = (
"512 0 LINE",
"560 0 LINE",
"420 264 LINE",
"378 256 LINE"
);
}
);
width = 614;
},
{
associatedMasterId = "73C3FB79-0E24-4863-9919-819B2F26AD09";
background = {
paths = (
{
closed = 1;
nodes = (
"426 0 LINE",
"602 0 LINE",
"432 264 LINE",
"272 264 LINE"
);
},
{
closed = 1;
nodes = (
"94 706 LINE",
"94 0 LINE",
"56 0 LINE",
"56 706 LINE"
);
},
{
closed = 1;
nodes = (
"368 252 LINE",
"503 253 OFFCURVE",
"582 326 OFFCURVE",
"582 454 CURVE SMOOTH",
"582 602 OFFCURVE",
"476 706 OFFCURVE",
"332 706 CURVE",
"360 550 LINE",
"464 550 OFFCURVE",
"542 500 OFFCURVE",
"542 418 CURVE SMOOTH",
"542 342 OFFCURVE",
"477 293 OFFCURVE",
"368 292 CURVE"
);
},
{
closed = 1;
nodes = (
"94 550 LINE",
"360 550 LINE",
"332 706 LINE",
"94 706 LINE"
);
},
{
closed = 1;
nodes = (
"94 252 LINE",
"368 252 LINE",
"368 292 LINE",
"94 292 LINE"
);
}
);
};
layerId = "A1271AFC-620B-4EB1-A5A8-E9382561C166";
name = "Oct 30 18, 21:36";
paths = (
{
closed = 1;
nodes = (
"68 235 LINE",
"346 0 LINE",
"578 0 LINE",
"252 264 LINE",
"68 264 LINE"
);
},
{
closed = 1;
nodes = (
"56 0 LINE",
"94 0 LINE",
"94 706 LINE",
"56 706 LINE"
);
},
{
closed = 1;
nodes = (
"368 252 LINE",
"503 253 OFFCURVE",
"582 326 OFFCURVE",
"582 454 CURVE SMOOTH",
"582 602 OFFCURVE",
"476 706 OFFCURVE",
"332 706 CURVE",
"360 550 LINE",
"464 550 OFFCURVE",
"542 500 OFFCURVE",
"542 418 CURVE SMOOTH",
"542 342 OFFCURVE",
"477 293 OFFCURVE",
"368 292 CURVE"
);
},
{
closed = 1;
nodes = (
"94 550 LINE",
"360 550 LINE",
"332 706 LINE",
"94 706 LINE"
);
},
{
closed = 1;
nodes = (
"94 252 LINE",
"368 252 LINE",
"368 292 LINE",
"94 292 LINE"
);
}
);
width = 620;
},
{
associatedMasterId = "73C3FB79-0E24-4863-9919-819B2F26AD09";
background = {
paths = (
{
closed = 1;
nodes = (
"426 0 LINE",
"602 0 LINE",
"432 264 LINE",
"272 264 LINE"
);
},
{
closed = 1;
nodes = (
"94 706 LINE",
"94 0 LINE",
"56 0 LINE",
"56 706 LINE"
);
},
{
closed = 1;
nodes = (
"368 252 LINE",
"503 253 OFFCURVE",
"582 326 OFFCURVE",
"582 454 CURVE SMOOTH",
"582 602 OFFCURVE",
"476 706 OFFCURVE",
"332 706 CURVE",
"360 550 LINE",
"464 550 OFFCURVE",
"542 500 OFFCURVE",
"542 418 CURVE SMOOTH",
"542 342 OFFCURVE",
"477 293 OFFCURVE",
"368 292 CURVE"
);
},
{
closed = 1;
nodes = (
"94 550 LINE",
"360 550 LINE",
"332 706 LINE",
"94 706 LINE"
);
},
{
closed = 1;
nodes = (
"94 252 LINE",
"368 252 LINE",
"368 292 LINE",
"94 292 LINE"
);
}
);
};
layerId = "502EE2DB-56FA-4A32-99D9-8CE765CD8A0D";
name = "Nov 12 18, 23:46";
paths = (
{
closed = 1;
nodes = (
"94 706 LINE",
"94 0 LINE",
"56 0 LINE",
"56 706 LINE"
);
},
{
closed = 1;
nodes = (
"368 252 LINE",
"503 253 OFFCURVE",
"582 326 OFFCURVE",
"582 454 CURVE SMOOTH",
"582 602 OFFCURVE",
"476 706 OFFCURVE",
"332 706 CURVE",
"360 550 LINE",
"464 550 OFFCURVE",
"542 500 OFFCURVE",
"542 418 CURVE SMOOTH",
"542 342 OFFCURVE",
"477 293 OFFCURVE",
"368 292 CURVE"
);
},
{
closed = 1;
nodes = (
"94 550 LINE",
"360 550 LINE",
"332 706 LINE",
"94 706 LINE"
);
},
{
closed = 1;
nodes = (
"94 252 LINE",
"368 252 LINE",
"368 292 LINE",
"94 292 LINE"
);
},
{
closed = 1;
nodes = (
"382 0 LINE",
"540 0 LINE",
"478 284 LINE",
"332 256 LINE"
);
}
);
width = 626;
},
{
associatedMasterId = "73C3FB79-0E24-4863-9919-819B2F26AD09";
background = {
paths = (
{
closed = 1;
nodes = (
"426 0 LINE",
"602 0 LINE",
"432 264 LINE",
"272 264 LINE"
);
},
{
closed = 1;
nodes = (
"94 706 LINE",
"94 0 LINE",
"56 0 LINE",
"56 706 LINE"
);
},
{
closed = 1;
nodes = (
"368 252 LINE",
"503 253 OFFCURVE",
"582 326 OFFCURVE",
"582 454 CURVE SMOOTH",
"582 602 OFFCURVE",
"476 706 OFFCURVE",
"332 706 CURVE",
"360 550 LINE",
"464 550 OFFCURVE",
"542 500 OFFCURVE",
"542 418 CURVE SMOOTH",
"542 342 OFFCURVE",
"477 293 OFFCURVE",
"368 292 CURVE"
);
},
{
closed = 1;
nodes = (
"94 550 LINE",
"360 550 LINE",
"332 706 LINE",
"94 706 LINE"
);
},
{
closed = 1;
nodes = (
"94 252 LINE",
"368 252 LINE",
"368 292 LINE",
"94 292 LINE"
);
}
);
};
layerId = "FDDE88FA-81D5-486E-A97F-B1F9AB87E845";
name = "Jan 11 19, 11:21";
paths = (
{
closed = 1;
nodes = (
"94 706 LINE",
"94 0 LINE",
"56 0 LINE",
"56 706 LINE"
);
},
{
closed = 1;
nodes = (
"356 249 LINE SMOOTH",
"488 249 OFFCURVE",
"582 335 OFFCURVE",
"582 457 CURVE SMOOTH",
"582 601 OFFCURVE",
"480 706 OFFCURVE",
"336 706 CURVE SMOOTH",
"94 706 LINE",
"94 554 LINE",
"360 554 LINE SMOOTH",
"454 554 OFFCURVE",
"522 496 OFFCURVE",
"522 420 CURVE SMOOTH",
"522 344 OFFCURVE",
"456 288 OFFCURVE",
"364 288 CURVE SMOOTH",
"94 288 LINE",
"94 249 LINE"
);
},
{
closed = 1;
nodes = (
"496 0 LINE",
"540 0 LINE",
"426 261 LINE",
"386 257 LINE"
);
}
);
width = 618;
},
{
associatedMasterId = "73C3FB79-0E24-4863-9919-819B2F26AD09";
background = {
paths = (
{
closed = 1;
nodes = (
"426 0 LINE",
"602 0 LINE",
"432 264 LINE",
"272 264 LINE"
);
},
{
closed = 1;
nodes = (
"94 706 LINE",
"94 0 LINE",
"56 0 LINE",
"56 706 LINE"
);
},
{
closed = 1;
nodes = (
"368 252 LINE",
"503 253 OFFCURVE",
"582 326 OFFCURVE",
"582 454 CURVE SMOOTH",
"582 602 OFFCURVE",
"476 706 OFFCURVE",
"332 706 CURVE",
"360 550 LINE",
"464 550 OFFCURVE",
"542 500 OFFCURVE",
"542 418 CURVE SMOOTH",
"542 342 OFFCURVE",
"477 293 OFFCURVE",
"368 292 CURVE"
);
},
{
closed = 1;
nodes = (
"94 550 LINE",
"360 550 LINE",
"332 706 LINE",
"94 706 LINE"
);
},
{
closed = 1;
nodes = (
"94 252 LINE",
"368 252 LINE",
"368 292 LINE",
"94 292 LINE"
);
}
);
};
layerId = "CA32A3B2-C7DC-46EC-8920-ECE684722434";
name = "Mar 19 19, 14:46";
paths = (
{
closed = 1;
nodes = (
"94 706 LINE",
"94 0 LINE",
"56 0 LINE",
"56 706 LINE"
);
},
{
closed = 1;
nodes = (
"356 249 LINE SMOOTH",
"488 249 OFFCURVE",
"582 335 OFFCURVE",
"582 457 CURVE SMOOTH",
"582 601 OFFCURVE",
"480 706 OFFCURVE",
"336 706 CURVE SMOOTH",
"94 706 LINE",
"94 554 LINE",
"360 554 LINE SMOOTH",
"454 554 OFFCURVE",
"522 496 OFFCURVE",
"522 420 CURVE SMOOTH",
"522 344 OFFCURVE",
"456 288 OFFCURVE",
"364 288 CURVE SMOOTH",
"94 288 LINE",
"94 249 LINE"
);
},
{
closed = 1;
nodes = (
"426 0 LINE",
"586 0 LINE",
"458 276 LINE",
"316 257 LINE"
);
}
);
width = 614;
}
);
leftMetricsKey = N;
unicode = 0052;
},
{
glyphname = S;
lastChange = "2019-03-21 21:53:54 +0000";
layers = (
{
background = {
hints = (
{
horizontal = 1;
place = "{-10, 152}";
type = Stem;
},
{
horizontal = 1;
place = "{339, 35}";
type = Stem;
},
{
horizontal = 1;
place = "{568, 150}";
type = Stem;
},
{
place = "{40, 16}";
type = Stem;
},
{
place = "{80, 64}";
type = Stem;
},
{
place = "{526, 68}";
type = Stem;
},
{
place = "{578, 16}";
type = Stem;
}
);
paths = (
{
closed = 1;
nodes = (
"40 274 LINE",
"40 106 OFFCURVE",
"168 -10 OFFCURVE",
"332 -10 CURVE SMOOTH",
"484 -10 OFFCURVE",
"594 96 OFFCURVE",
"594 220 CURVE SMOOTH",
"594 228 LINE SMOOTH",
"594 304 OFFCURVE",
"529 357 OFFCURVE",
"389 369 CURVE SMOOTH",
"281 379 LINE SMOOTH",
"197 387 OFFCURVE",
"144 422 OFFCURVE",
"144 470 CURVE SMOOTH",
"144 526 OFFCURVE",
"228 568 OFFCURVE",
"340 568 CURVE SMOOTH",
"448 568 OFFCURVE",
"550 520 OFFCURVE",
"578 452 CURVE",
"594 452 LINE",
"594 604 OFFCURVE",
"490 718 OFFCURVE",
"342 718 CURVE SMOOTH",
"196 718 OFFCURVE",
"80 630 OFFCURVE",
"80 498 CURVE SMOOTH",
"80 490 LINE SMOOTH",
"80 416 OFFCURVE",
"129 353 OFFCURVE",
"261 343 CURVE SMOOTH",
"369 335 LINE SMOOTH",
"470 327 OFFCURVE",
"526 292 OFFCURVE",
"526 240 CURVE SMOOTH",
"526 184 OFFCURVE",
"448 142 OFFCURVE",
"328 142 CURVE SMOOTH",
"200 142 OFFCURVE",
"92 186 OFFCURVE",
"56 274 CURVE"
);
}
);
};
layerId = "C1951C01-2078-4DCF-9B04-F28136C23FC3";
width = 600;
},
{
background = {
paths = (
{
closed = 1;
nodes = (
"40 106 OFFCURVE",
"168 -10 OFFCURVE",
"332 -10 CURVE SMOOTH",
"484 -10 OFFCURVE",
"594 96 OFFCURVE",
"594 220 CURVE",
"594 228 LINE",
"594 304 OFFCURVE",
"529 357 OFFCURVE",
"389 369 CURVE",
"281 379 LINE",
"197 387 OFFCURVE",
"144 422 OFFCURVE",
"144 470 CURVE SMOOTH",
"144 526 OFFCURVE",
"228 568 OFFCURVE",
"340 568 CURVE SMOOTH",
"448 568 OFFCURVE",
"550 520 OFFCURVE",
"578 452 CURVE",
"594 452 LINE",
"594 604 OFFCURVE",
"490 718 OFFCURVE",
"342 718 CURVE SMOOTH",
"196 718 OFFCURVE",
"80 630 OFFCURVE",
"80 498 CURVE",
"80 490 LINE",
"80 416 OFFCURVE",
"129 353 OFFCURVE",
"261 343 CURVE",
"369 335 LINE",
"470 327 OFFCURVE",
"526 292 OFFCURVE",
"526 240 CURVE SMOOTH",
"526 184 OFFCURVE",
"448 142 OFFCURVE",
"328 142 CURVE SMOOTH",
"200 142 OFFCURVE",
"92 186 OFFCURVE",
"56 274 CURVE",
"40 274 LINE"
);
}
);
};
layerId = "73C3FB79-0E24-4863-9919-819B2F26AD09";
paths = (
{
closed = 1;
nodes = (
"40 106 OFFCURVE",
"168 -10 OFFCURVE",
"332 -10 CURVE SMOOTH",
"484 -10 OFFCURVE",
"594 96 OFFCURVE",
"594 220 CURVE",
"594 228 LINE",
"594 304 OFFCURVE",
"529 357 OFFCURVE",
"389 369 CURVE",
"281 379 LINE",
"197 387 OFFCURVE",
"144 422 OFFCURVE",
"144 470 CURVE SMOOTH",
"144 526 OFFCURVE",
"228 568 OFFCURVE",
"340 568 CURVE SMOOTH",
"448 568 OFFCURVE",
"550 520 OFFCURVE",
"578 452 CURVE",
"594 452 LINE",
"594 604 OFFCURVE",
"490 718 OFFCURVE",
"342 718 CURVE SMOOTH",
"196 718 OFFCURVE",
"80 630 OFFCURVE",
"80 498 CURVE",
"80 490 LINE",
"80 416 OFFCURVE",
"129 353 OFFCURVE",
"261 343 CURVE",
"369 335 LINE",
"470 327 OFFCURVE",
"526 292 OFFCURVE",
"526 240 CURVE SMOOTH",
"526 184 OFFCURVE",
"448 142 OFFCURVE",
"328 142 CURVE SMOOTH",
"200 142 OFFCURVE",
"92 186 OFFCURVE",
"56 274 CURVE",
"40 274 LINE"
);
}
);
width = 638;
},
{
associatedMasterId = "73C3FB79-0E24-4863-9919-819B2F26AD09";
background = {
paths = (
{
closed = 1;
nodes = (
"36 115 OFFCURVE",
"161 -10 OFFCURVE",
"324 -10 CURVE SMOOTH",
"483 -10 OFFCURVE",
"602 95 OFFCURVE",
"602 234 CURVE SMOOTH",
"602 309 OFFCURVE",
"520 360 OFFCURVE",
"380 372 CURVE",
"280 382 LINE",
"162 393 OFFCURVE",
"92 426 OFFCURVE",
"92 472 CURVE SMOOTH",
"92 526 OFFCURVE",
"190 562 OFFCURVE",
"320 562 CURVE SMOOTH",
"438 562 OFFCURVE",
"547 516 OFFCURVE",
"574 454 CURVE",
"594 454 LINE",
"590 605 OFFCURVE",
"476 718 OFFCURVE",
"328 718 CURVE SMOOTH",
"170 718 OFFCURVE",
"52 616 OFFCURVE",
"52 476 CURVE SMOOTH",
"52 402 OFFCURVE",
"130 354 OFFCURVE",
"261 343 CURVE",
"368 334 LINE",
"490 323 OFFCURVE",
"562 288 OFFCURVE",
"562 240 CURVE SMOOTH",
"562 180 OFFCURVE",
"462 142 OFFCURVE",
"328 142 CURVE SMOOTH",
"200 142 OFFCURVE",
"82 202 OFFCURVE",
"52 282 CURVE",
"32 282 LINE"
);
}
);
};
layerId = "30966B73-E497-481C-82FD-C4A85F50EE7F";
name = "Nov 11 18, 12:26";
paths = (
{
closed = 1;
nodes = (
"44 106 OFFCURVE",
"168 -10 OFFCURVE",
"332 -10 CURVE SMOOTH",
"484 -10 OFFCURVE",
"586 96 OFFCURVE",
"586 220 CURVE",
"586 228 LINE",
"586 304 OFFCURVE",
"525 357 OFFCURVE",
"385 369 CURVE",
"281 379 LINE",
"163 390 OFFCURVE",
"132 430 OFFCURVE",
"132 470 CURVE SMOOTH",
"132 522 OFFCURVE",
"206 568 OFFCURVE",
"336 568 CURVE SMOOTH",
"444 568 OFFCURVE",
"538 520 OFFCURVE",
"566 452 CURVE",
"582 452 LINE",
"582 604 OFFCURVE",
"486 718 OFFCURVE",
"338 718 CURVE SMOOTH",
"192 718 OFFCURVE",
"80 630 OFFCURVE",
"80 498 CURVE",
"80 490 LINE",
"80 416 OFFCURVE",
"129 353 OFFCURVE",
"261 343 CURVE",
"369 335 LINE",
"491 324 OFFCURVE",
"538 288 OFFCURVE",
"538 240 CURVE SMOOTH",
"538 180 OFFCURVE",
"462 142 OFFCURVE",
"328 142 CURVE SMOOTH",
"200 142 OFFCURVE",
"96 186 OFFCURVE",
"60 274 CURVE",
"44 274 LINE"
);
}
);
width = 626;
}
);
unicode = 0053;
},
{
glyphname = T;
lastChange = "2019-03-21 21:53:54 +0000";
layers = (
{
background = {
hints = (
{
horizontal = 1;
place = "{556, 150}";
type = Stem;
},
{
place = "{297, 38}";
type = Stem;
}
);
paths = (
{
closed = 1;
nodes = (
"616 706 LINE",
"16 706 LINE",
"16 556 LINE",
"297 556 LINE",
"297 0 LINE",
"335 0 LINE",
"335 556 LINE",
"616 556 LINE"
);
}
);
};
layerId = "C1951C01-2078-4DCF-9B04-F28136C23FC3";
width = 600;
},
{
background = {
paths = (
{
closed = 1;
nodes = (
"335 706 LINE",
"335 0 LINE",
"297 0 LINE",
"297 706 LINE"
);
},
{
closed = 1;
nodes = (
"616 706 LINE",
"616 556 LINE",
"16 556 LINE",
"16 706 LINE"
);
}
);
};
layerId = "73C3FB79-0E24-4863-9919-819B2F26AD09";
paths = (
{
closed = 1;
nodes = (
"335 706 LINE",
"335 0 LINE",
"297 0 LINE",
"297 706 LINE"
);
},
{
closed = 1;
nodes = (
"616 706 LINE",
"616 556 LINE",
"16 556 LINE",
"16 706 LINE"
);
}
);
width = 632;
}
);
unicode = 0054;
},
{
glyphname = U;
lastChange = "2019-03-21 21:53:54 +0000";
layers = (
{
background = {
hints = (
{
horizontal = 1;
place = "{-10, 156}";
type = Stem;
},
{
place = "{48, 38}";
type = Stem;
},
{
place = "{558, 38}";
type = Stem;
}
);
paths = (
{
closed = 1;
nodes = (
"558 705 LINE",
"558 304 LINE SMOOTH",
"558 218 OFFCURVE",
"458 146 OFFCURVE",
"322 146 CURVE SMOOTH",
"186 146 OFFCURVE",
"86 222 OFFCURVE",
"86 308 CURVE SMOOTH",
"86 705 LINE",
"48 705 LINE",
"48 288 LINE SMOOTH",
"48 116 OFFCURVE",
"163 -10 OFFCURVE",
"323 -10 CURVE SMOOTH",
"483 -10 OFFCURVE",
"596 112 OFFCURVE",
"596 284 CURVE SMOOTH",
"596 705 LINE"
);
}
);
};
layerId = "C1951C01-2078-4DCF-9B04-F28136C23FC3";
width = 600;
},
{
background = {
paths = (
{
closed = 1;
nodes = (
"558 304 LINE",
"558 218 OFFCURVE",
"458 146 OFFCURVE",
"322 146 CURVE SMOOTH",
"186 146 OFFCURVE",
"86 222 OFFCURVE",
"86 308 CURVE",
"48 288 LINE",
"48 116 OFFCURVE",
"163 -10 OFFCURVE",
"323 -10 CURVE SMOOTH",
"483 -10 OFFCURVE",
"596 112 OFFCURVE",
"596 284 CURVE"
);
},
{
closed = 1;
nodes = (
"86 705 LINE",
"86 308 LINE",
"48 288 LINE",
"48 705 LINE"
);
},
{
closed = 1;
nodes = (
"596 705 LINE",
"596 284 LINE",
"558 304 LINE",
"558 705 LINE"
);
}
);
};
layerId = "73C3FB79-0E24-4863-9919-819B2F26AD09";
paths = (
{
closed = 1;
nodes = (
"558 304 LINE",
"558 218 OFFCURVE",
"458 146 OFFCURVE",
"322 146 CURVE SMOOTH",
"186 146 OFFCURVE",
"86 222 OFFCURVE",
"86 308 CURVE",
"48 288 LINE",
"48 116 OFFCURVE",
"163 -10 OFFCURVE",
"323 -10 CURVE SMOOTH",
"483 -10 OFFCURVE",
"596 112 OFFCURVE",
"596 284 CURVE"
);
},
{
closed = 1;
nodes = (
"86 705 LINE",
"86 308 LINE",
"48 288 LINE",
"48 705 LINE"
);
},
{
closed = 1;
nodes = (
"596 705 LINE",
"596 284 LINE",
"558 304 LINE",
"558 705 LINE"
);
}
);
width = 642;
}
);
unicode = 0055;
},
{
color = 3;
glyphname = V;
lastChange = "2019-03-21 21:53:54 +0000";
layers = (
{
background = {
hints = (
{
horizontal = 1;
place = "{0, 706}";
type = Stem;
},
{
place = "{4, 650}";
type = Stem;
},
{
horizontal = 1;
place = "{0, 136}";
type = Stem;
}
);
paths = (
{
closed = 1;
nodes = (
"654 706 LINE",
"612 706 LINE",
"396 136 LINE",
"388 136 LINE",
"158 706 LINE",
"4 706 LINE",
"298 0 LINE",
"384 0 LINE"
);
}
);
};
layerId = "C1951C01-2078-4DCF-9B04-F28136C23FC3";
width = 600;
},
{
background = {
paths = (
{
closed = 1;
nodes = (
"612 706 LINE",
"396 136 LINE",
"388 136 LINE",
"158 706 LINE",
"4 706 LINE",
"298 0 LINE",
"384 0 LINE",
"654 706 LINE"
);
}
);
};
layerId = "73C3FB79-0E24-4863-9919-819B2F26AD09";
paths = (
{
closed = 1;
nodes = (
"612 706 LINE",
"396 136 LINE",
"388 136 LINE",
"158 706 LINE",
"4 706 LINE",
"298 0 LINE",
"384 0 LINE",
"654 706 LINE"
);
}
);
width = 656;
},
{
associatedMasterId = "73C3FB79-0E24-4863-9919-819B2F26AD09";
background = {
paths = (
{
closed = 1;
nodes = (
"428 0 LINE",
"740 706 LINE",
"623 706 LINE",
"459 330 OFFCURVE",
"409 211 OFFCURVE",
"374 117 CURVE",
"338 213 OFFCURVE",
"291 325 OFFCURVE",
"122 706 CURVE",
"6 706 LINE",
"316 0 LINE"
);
}
);
};
layerId = "5A348C57-C6D6-4610-8535-A9143DB8C994";
name = "Nov 24 17, 17:40";
paths = (
{
closed = 1;
nodes = (
"168 706 LINE",
"387 140 LINE",
"610 706 LINE",
"654 706 LINE",
"379 0 LINE",
"304 0 LINE",
"12 706 LINE"
);
}
);
visible = 1;
width = 666;
}
);
leftKerningGroup = V;
note = "troppo nera";
rightKerningGroup = V;
unicode = 0056;
},
{
color = 3;
glyphname = W;
lastChange = "2019-03-21 21:53:54 +0000";
layers = (
{
background = {
hints = (
{
horizontal = 1;
place = "{0, 706}";
type = Stem;
},
{
place = "{4, 932}";
type = Stem;
}
);
paths = (
{
closed = 1;
nodes = (
"4 706 LINE",
"256 0 LINE",
"327 0 LINE",
"462 455 LINE",
"470 455 LINE",
"642 0 LINE",
"706 0 LINE",
"936 706 LINE",
"894 706 LINE",
"723 181 LINE",
"715 181 LINE",
"524 706 LINE",
"496 706 LINE",
"341 179 LINE",
"333 179 LINE",
"152 706 LINE"
);
}
);
};
layerId = "C1951C01-2078-4DCF-9B04-F28136C23FC3";
width = 600;
},
{
background = {
paths = (
{
closed = 1;
nodes = (
"256 0 LINE",
"327 0 LINE",
"462 455 LINE",
"470 455 LINE",
"642 0 LINE",
"706 0 LINE",
"936 706 LINE",
"894 706 LINE",
"723 181 LINE",
"715 181 LINE",
"524 706 LINE",
"496 706 LINE",
"341 179 LINE",
"333 179 LINE",
"152 706 LINE",
"4 706 LINE"
);
}
);
};
layerId = "73C3FB79-0E24-4863-9919-819B2F26AD09";
paths = (
{
closed = 1;
nodes = (
"256 0 LINE",
"327 0 LINE",
"462 455 LINE",
"470 455 LINE",
"642 0 LINE",
"706 0 LINE",
"936 706 LINE",
"894 706 LINE",
"723 181 LINE",
"715 181 LINE",
"524 706 LINE",
"496 706 LINE",
"341 179 LINE",
"333 179 LINE",
"152 706 LINE",
"4 706 LINE"
);
}
);
width = 938;
},
{
associatedMasterId = "73C3FB79-0E24-4863-9919-819B2F26AD09";
background = {
paths = (
{
closed = 1;
nodes = (
"168 706 LINE",
"355 178 LINE",
"522 706 LINE",
"558 706 LINE",
"558 673 LINE",
"347 0 LINE",
"273 0 LINE",
"8 706 LINE"
);
},
{
closed = 1;
nodes = (
"558 706 LINE",
"763 174 LINE",
"940 706 LINE",
"984 706 LINE",
"753 0 LINE",
"683 0 LINE",
"483 492 LINE"
);
}
);
};
layerId = "39DF69FD-863F-4790-B614-036C8B2F6D07";
name = "Nov 14 18, 23:32";
paths = (
{
closed = 1;
nodes = (
"166 706 LINE",
"352 176 LINE",
"358 176 LINE",
"522 706 LINE",
"558 706 LINE",
"760 171 LINE",
"766 171 LINE",
"940 706 LINE",
"984 706 LINE",
"751 0 LINE",
"673 0 LINE",
"495 464 LINE",
"489 464 LINE",
"341 0 LINE",
"259 0 LINE",
"6 706 LINE"
);
}
);
width = 992;
}
);
note = "troppo nera";
unicode = 0057;
},
{
color = 3;
glyphname = X;
lastChange = "2019-03-21 21:53:54 +0000";
layers = (
{
background = {
hints = (
{
horizontal = 1;
place = "{0, 706}";
type = Stem;
},
{
place = "{6, 696}";
type = Stem;
}
);
paths = (
{
closed = 1;
nodes = (
"6 706 LINE",
"186 706 LINE",
"381 430 LINE",
"590 706 LINE",
"646 706 LINE",
"407 390 LINE",
"702 0 LINE",
"520 0 LINE",
"313 284 LINE",
"84 0 LINE",
"26 0 LINE",
"287 324 LINE"
);
}
);
};
layerId = "C1951C01-2078-4DCF-9B04-F28136C23FC3";
width = 600;
},
{
background = {
paths = (
{
closed = 1;
nodes = (
"186 706 LINE",
"381 430 LINE",
"590 706 LINE",
"646 706 LINE",
"407 390 LINE",
"702 0 LINE",
"520 0 LINE",
"313 284 LINE",
"84 0 LINE",
"26 0 LINE",
"287 324 LINE",
"6 706 LINE"
);
}
);
};
layerId = "73C3FB79-0E24-4863-9919-819B2F26AD09";
paths = (
{
closed = 1;
nodes = (
"186 706 LINE",
"381 430 LINE",
"590 706 LINE",
"646 706 LINE",
"407 390 LINE",
"702 0 LINE",
"520 0 LINE",
"313 284 LINE",
"84 0 LINE",
"26 0 LINE",
"287 324 LINE",
"6 706 LINE"
);
}
);
width = 706;
},
{
associatedMasterId = "73C3FB79-0E24-4863-9919-819B2F26AD09";
background = {
paths = (
{
closed = 1;
nodes = (
"700 0 LINE",
"526 0 LINE",
"4 706 LINE",
"176 706 LINE"
);
},
{
closed = 1;
nodes = (
"656 710 LINE",
"82 -6 LINE",
"24 -6 LINE",
"600 710 LINE"
);
}
);
};
layerId = "EDB17455-D943-424C-A0F5-ADC14B2AAE40";
name = "Nov 15 18, 00:09";
paths = (
{
closed = 1;
nodes = (
"708 0 LINE",
"522 0 LINE",
"4 706 LINE",
"186 706 LINE"
);
},
{
closed = 1;
nodes = (
"652 710 LINE",
"84 -2 LINE",
"28 -2 LINE",
"596 710 LINE"
);
}
);
width = 704;
}
);
rightKerningGroup = X;
unicode = 0058;
},
{
glyphname = Y;
lastChange = "2019-03-21 21:53:54 +0000";
layers = (
{
background = {
hints = (
{
horizontal = 1;
place = "{0, 708}";
type = Stem;
},
{
place = "{2, 582}";
type = Stem;
}
);
paths = (
{
closed = 1;
nodes = (
"2 706 LINE",
"158 706 LINE",
"356 350 LINE",
"364 350 LINE",
"542 708 LINE",
"584 708 LINE",
"336 198 LINE",
"336 0 LINE",
"298 0 LINE",
"298 198 LINE"
);
}
);
};
layerId = "C1951C01-2078-4DCF-9B04-F28136C23FC3";
width = 600;
},
{
background = {
paths = (
{
closed = 1;
nodes = (
"158 706 LINE",
"356 350 LINE",
"364 350 LINE",
"542 708 LINE",
"584 708 LINE",
"336 198 LINE",
"336 0 LINE",
"298 0 LINE",
"298 198 LINE",
"2 706 LINE"
);
}
);
};
layerId = "73C3FB79-0E24-4863-9919-819B2F26AD09";
paths = (
{
closed = 1;
nodes = (
"158 706 LINE",
"356 350 LINE",
"364 350 LINE",
"542 708 LINE",
"584 708 LINE",
"336 198 LINE",
"336 0 LINE",
"298 0 LINE",
"298 198 LINE",
"2 706 LINE"
);
}
);
width = 584;
}
);
unicode = 0059;
},
{
glyphname = Z;
lastChange = "2019-03-21 21:53:54 +0000";
layers = (
{
background = {
hints = (
{
horizontal = 1;
place = "{0, 152}";
type = Stem;
},
{
horizontal = 1;
place = "{558, 148}";
type = Stem;
},
{
place = "{48, 76}";
type = Stem;
},
{
place = "{521, 74}";
type = Stem;
}
);
paths = (
{
closed = 1;
nodes = (
"124 152 LINE",
"124 160 LINE",
"595 562 LINE",
"595 706 LINE",
"60 706 LINE",
"60 558 LINE",
"521 558 LINE",
"521 550 LINE",
"48 148 LINE",
"48 0 LINE",
"599 0 LINE",
"599 152 LINE"
);
}
);
};
layerId = "C1951C01-2078-4DCF-9B04-F28136C23FC3";
width = 600;
},
{
background = {
paths = (
{
closed = 1;
nodes = (
"60 558 LINE",
"521 558 LINE",
"521 550 LINE",
"595 562 LINE",
"595 706 LINE",
"60 706 LINE"
);
},
{
closed = 1;
nodes = (
"48 0 LINE",
"599 0 LINE",
"599 152 LINE",
"124 152 LINE",
"124 160 LINE",
"48 148 LINE"
);
},
{
closed = 1;
nodes = (
"48 148 LINE",
"124 160 LINE",
"595 562 LINE",
"521 550 LINE"
);
}
);
};
layerId = "73C3FB79-0E24-4863-9919-819B2F26AD09";
paths = (
{
closed = 1;
nodes = (
"60 558 LINE",
"521 558 LINE",
"521 550 LINE",
"595 562 LINE",
"595 706 LINE",
"60 706 LINE"
);
},
{
closed = 1;
nodes = (
"48 0 LINE",
"599 0 LINE",
"599 152 LINE",
"124 152 LINE",
"124 160 LINE",
"48 148 LINE"
);
},
{
closed = 1;
nodes = (
"48 148 LINE",
"124 160 LINE",
"595 562 LINE",
"521 550 LINE"
);
}
);
width = 639;
}
);
unicode = 005A;
},
{
glyphname = a;
lastChange = "2019-03-21 21:53:54 +0000";
layers = (
{
background = {
hints = (
{
horizontal = 1;
place = "{-8, 128}";
type = Stem;
},
{
horizontal = 1;
place = "{232, 36}";
type = Stem;
},
{
horizontal = 1;
place = "{373, 120}";
type = Stem;
},
{
place = "{28, 60}";
type = Stem;
},
{
place = "{390, 40}";
type = Stem;
},
{
place = "{67, 18}";
type = Stem;
}
);
paths = (
{
closed = 1;
nodes = (
"139 493 OFFCURVE",
"67 409 OFFCURVE",
"67 297 CURVE",
"85 297 LINE",
"105 341 OFFCURVE",
"169 373 OFFCURVE",
"241 373 CURVE SMOOTH",
"325 373 OFFCURVE",
"386 334 OFFCURVE",
"390 282 CURVE",
"390 268 LINE",
"192 268 LINE SMOOTH",
"100 268 OFFCURVE",
"28 220 OFFCURVE",
"28 148 CURVE SMOOTH",
"28 56 OFFCURVE",
"104 -8 OFFCURVE",
"208 -8 CURVE SMOOTH",
"288 -8 OFFCURVE",
"366 44 OFFCURVE",
"390 108 CURVE",
"398 108 LINE",
"390 0 LINE",
"430 0 LINE",
"430 289 LINE SMOOTH",
"430 409 OFFCURVE",
"353 493 OFFCURVE",
"245 493 CURVE SMOOTH"
);
},
{
closed = 1;
nodes = (
"390 208 LINE",
"382 148 OFFCURVE",
"296 120 OFFCURVE",
"200 120 CURVE SMOOTH",
"144 120 OFFCURVE",
"88 142 OFFCURVE",
"88 178 CURVE SMOOTH",
"88 210 OFFCURVE",
"128 232 OFFCURVE",
"188 232 CURVE SMOOTH",
"390 232 LINE"
);
}
);
};
guideLines = (
{
angle = 77;
position = "{261, 223}";
}
);
layerId = "C1951C01-2078-4DCF-9B04-F28136C23FC3";
paths = (
{
closed = 1;
nodes = (
"355 -10 OFFCURVE",
"456 75 OFFCURVE",
"476 223 CURVE",
"548 383 OFFCURVE",
"499 495 OFFCURVE",
"319 495 CURVE SMOOTH",
"168 495 OFFCURVE",
"54 392 OFFCURVE",
"54 255 CURVE",
"-33 104 OFFCURVE",
"31 -10 OFFCURVE",
"203 -10 CURVE SMOOTH"
);
},
{
closed = 1;
nodes = (
"140 118 OFFCURVE",
"70 161 OFFCURVE",
"70 219 CURVE SMOOTH",
"70 301 OFFCURVE",
"166 363 OFFCURVE",
"293 363 CURVE SMOOTH",
"391 363 OFFCURVE",
"464 318 OFFCURVE",
"464 259 CURVE SMOOTH",
"464 178 OFFCURVE",
"365 118 OFFCURVE",
"235 118 CURVE SMOOTH"
);
},
{
closed = 1;
nodes = (
"503 405 LINE",
"499 403 LINE",
"471 259 LINE",
"419 82 LINE",
"423 80 LINE",
"371 0 LINE",
"479 0 LINE",
"483 223 LINE",
"591 485 LINE",
"483 485 LINE"
);
}
);
width = 577;
},
{
background = {
paths = (
{
closed = 1;
nodes = (
"430 289 LINE",
"430 0 LINE",
"390 0 LINE",
"398 108 LINE",
"390 108 LINE",
"390 282 LINE"
);
},
{
closed = 1;
nodes = (
"390 232 LINE",
"188 232 LINE SMOOTH",
"128 232 OFFCURVE",
"88 210 OFFCURVE",
"88 178 CURVE SMOOTH",
"88 142 OFFCURVE",
"144 120 OFFCURVE",
"200 120 CURVE SMOOTH",
"296 120 OFFCURVE",
"382 148 OFFCURVE",
"390 208 CURVE",
"390 108 LINE",
"366 44 OFFCURVE",
"288 -8 OFFCURVE",
"208 -8 CURVE SMOOTH",
"104 -8 OFFCURVE",
"28 56 OFFCURVE",
"28 148 CURVE SMOOTH",
"28 220 OFFCURVE",
"100 268 OFFCURVE",
"192 268 CURVE SMOOTH",
"390 268 LINE"
);
},
{
closed = 1;
nodes = (
"85 297 LINE",
"105 341 OFFCURVE",
"169 373 OFFCURVE",
"241 373 CURVE SMOOTH",
"325 373 OFFCURVE",
"386 334 OFFCURVE",
"390 282 CURVE",
"430 289 LINE",
"430 409 OFFCURVE",
"353 493 OFFCURVE",
"245 493 CURVE SMOOTH",
"139 493 OFFCURVE",
"67 409 OFFCURVE",
"67 297 CURVE"
);
}
);
};
layerId = "73C3FB79-0E24-4863-9919-819B2F26AD09";
paths = (
{
closed = 1;
nodes = (
"430 289 LINE",
"430 0 LINE",
"390 0 LINE",
"398 108 LINE",
"390 108 LINE",
"390 282 LINE"
);
},
{
closed = 1;
nodes = (
"390 232 LINE",
"188 232 LINE SMOOTH",
"128 232 OFFCURVE",
"88 210 OFFCURVE",
"88 178 CURVE SMOOTH",
"88 142 OFFCURVE",
"144 120 OFFCURVE",
"200 120 CURVE SMOOTH",
"296 120 OFFCURVE",
"382 148 OFFCURVE",
"390 208 CURVE",
"390 108 LINE",
"366 44 OFFCURVE",
"288 -8 OFFCURVE",
"208 -8 CURVE SMOOTH",
"104 -8 OFFCURVE",
"28 56 OFFCURVE",
"28 148 CURVE SMOOTH",
"28 220 OFFCURVE",
"100 268 OFFCURVE",
"192 268 CURVE SMOOTH",
"390 268 LINE"
);
},
{
closed = 1;
nodes = (
"85 297 LINE",
"105 341 OFFCURVE",
"169 373 OFFCURVE",
"241 373 CURVE SMOOTH",
"325 373 OFFCURVE",
"386 334 OFFCURVE",
"390 282 CURVE",
"430 289 LINE",
"430 409 OFFCURVE",
"353 493 OFFCURVE",
"245 493 CURVE SMOOTH",
"139 493 OFFCURVE",
"67 409 OFFCURVE",
"67 297 CURVE"
);
}
);
width = 481;
},
{
associatedMasterId = "C1951C01-2078-4DCF-9B04-F28136C23FC3";
background = {
paths = (
{
closed = 1;
nodes = (
"413 13 OFFCURVE",
"458 -5 OFFCURVE",
"509 -5 CURVE SMOOTH",
"524 -5 OFFCURVE",
"537 -4 OFFCURVE",
"554 -1 CURVE",
"567 65 LINE",
"561 64 OFFCURVE",
"553 63 OFFCURVE",
"544 63 CURVE SMOOTH",
"513 63 OFFCURVE",
"499 79 OFFCURVE",
"499 100 CURVE SMOOTH",
"499 116 OFFCURVE",
"502 133 OFFCURVE",
"508 161 CURVE SMOOTH",
"534 283 LINE SMOOTH",
"542 318 OFFCURVE",
"545 350 OFFCURVE",
"545 370 CURVE SMOOTH",
"545 469 OFFCURVE",
"450 501 OFFCURVE",
"342 501 CURVE SMOOTH",
"194 501 OFFCURVE",
"98 449 OFFCURVE",
"81 338 CURVE",
"170 330 LINE",
"184 394 OFFCURVE",
"231 429 OFFCURVE",
"325 429 CURVE SMOOTH",
"398 429 OFFCURVE",
"451 405 OFFCURVE",
"451 354 CURVE SMOOTH",
"451 343 OFFCURVE",
"450 329 OFFCURVE",
"444 298 CURVE",
"327 297 OFFCURVE",
"230 292 OFFCURVE",
"158 276 CURVE SMOOTH",
"65 254 OFFCURVE",
"17 204 OFFCURVE",
"17 123 CURVE SMOOTH",
"17 52 OFFCURVE",
"77 -11 OFFCURVE",
"202 -11 CURVE SMOOTH",
"289 -11 OFFCURVE",
"354 11 OFFCURVE",
"407 68 CURVE"
);
},
{
closed = 1;
nodes = (
"418 176 OFFCURVE",
"408 151 OFFCURVE",
"388 127 CURVE SMOOTH",
"350 80 OFFCURVE",
"292 57 OFFCURVE",
"221 57 CURVE SMOOTH",
"148 57 OFFCURVE",
"112 93 OFFCURVE",
"112 131 CURVE SMOOTH",
"112 176 OFFCURVE",
"140 201 OFFCURVE",
"197 214 CURVE SMOOTH",
"250 227 OFFCURVE",
"325 232 OFFCURVE",
"431 234 CURVE"
);
}
);
};
guideLines = (
{
angle = 77;
position = "{264, 252}";
}
);
layerId = "867B3D09-54C5-4449-8E87-40793C34B6C5";
name = "Dec 25 17, 19:55";
paths = (
{
closed = 1;
nodes = (
"476 421 LINE",
"462 259 LINE",
"416 96 LINE",
"366 0 LINE",
"478 0 LINE",
"482 219 LINE",
"588 485 LINE",
"476 485 LINE"
);
},
{
closed = 1;
nodes = (
"358 -10 OFFCURVE",
"468 90 OFFCURVE",
"472 223 CURVE",
"495 263 OFFCURVE",
"512 313 OFFCURVE",
"512 338 CURVE SMOOTH",
"512 428 OFFCURVE",
"429 495 OFFCURVE",
"319 495 CURVE SMOOTH",
"167 495 OFFCURVE",
"53 392 OFFCURVE",
"53 254 CURVE",
"-34 103 OFFCURVE",
"35 -10 OFFCURVE",
"214 -10 CURVE SMOOTH"
);
},
{
closed = 1;
nodes = (
"141 118 OFFCURVE",
"69 161 OFFCURVE",
"69 218 CURVE SMOOTH",
"69 301 OFFCURVE",
"163 363 OFFCURVE",
"289 363 CURVE SMOOTH",
"386 363 OFFCURVE",
"458 318 OFFCURVE",
"458 259 CURVE SMOOTH",
"458 178 OFFCURVE",
"364 118 OFFCURVE",
"238 118 CURVE SMOOTH"
);
}
);
width = 576;
},
{
associatedMasterId = "C1951C01-2078-4DCF-9B04-F28136C23FC3";
background = {
paths = (
{
closed = 1;
nodes = (
"413 13 OFFCURVE",
"458 -5 OFFCURVE",
"509 -5 CURVE SMOOTH",
"524 -5 OFFCURVE",
"537 -4 OFFCURVE",
"554 -1 CURVE",
"567 65 LINE",
"561 64 OFFCURVE",
"553 63 OFFCURVE",
"544 63 CURVE SMOOTH",
"513 63 OFFCURVE",
"499 79 OFFCURVE",
"499 100 CURVE SMOOTH",
"499 116 OFFCURVE",
"502 133 OFFCURVE",
"508 161 CURVE SMOOTH",
"534 283 LINE SMOOTH",
"542 318 OFFCURVE",
"545 350 OFFCURVE",
"545 370 CURVE SMOOTH",
"545 469 OFFCURVE",
"450 501 OFFCURVE",
"342 501 CURVE SMOOTH",
"194 501 OFFCURVE",
"98 449 OFFCURVE",
"81 338 CURVE",
"170 330 LINE",
"184 394 OFFCURVE",
"231 429 OFFCURVE",
"325 429 CURVE SMOOTH",
"398 429 OFFCURVE",
"451 405 OFFCURVE",
"451 354 CURVE SMOOTH",
"451 343 OFFCURVE",
"450 329 OFFCURVE",
"444 298 CURVE",
"327 297 OFFCURVE",
"230 292 OFFCURVE",
"158 276 CURVE SMOOTH",
"65 254 OFFCURVE",
"17 204 OFFCURVE",
"17 123 CURVE SMOOTH",
"17 52 OFFCURVE",
"77 -11 OFFCURVE",
"202 -11 CURVE SMOOTH",
"289 -11 OFFCURVE",
"354 11 OFFCURVE",
"407 68 CURVE"
);
},
{
closed = 1;
nodes = (
"418 176 OFFCURVE",
"408 151 OFFCURVE",
"388 127 CURVE SMOOTH",
"350 80 OFFCURVE",
"292 57 OFFCURVE",
"221 57 CURVE SMOOTH",
"148 57 OFFCURVE",
"112 93 OFFCURVE",
"112 131 CURVE SMOOTH",
"112 176 OFFCURVE",
"140 201 OFFCURVE",
"197 214 CURVE SMOOTH",
"250 227 OFFCURVE",
"325 232 OFFCURVE",
"431 234 CURVE"
);
}
);
};
guideLines = (
{
angle = 77;
position = "{236, 122}";
}
);
layerId = "4786AF1E-C664-4065-8710-A84E3823C3A8";
name = "Jan 5 18, 22:16";
paths = (
{
closed = 1;
nodes = (
"358 -10 OFFCURVE",
"473 90 OFFCURVE",
"475 223 CURVE",
"565 378 OFFCURVE",
"498 495 OFFCURVE",
"318 495 CURVE SMOOTH",
"167 495 OFFCURVE",
"53 392 OFFCURVE",
"53 255 CURVE",
"-34 104 OFFCURVE",
"31 -10 OFFCURVE",
"206 -10 CURVE SMOOTH"
);
},
{
closed = 1;
nodes = (
"142 118 OFFCURVE",
"69 161 OFFCURVE",
"69 219 CURVE SMOOTH",
"69 301 OFFCURVE",
"165 363 OFFCURVE",
"292 363 CURVE SMOOTH",
"390 363 OFFCURVE",
"463 318 OFFCURVE",
"463 259 CURVE SMOOTH",
"463 178 OFFCURVE",
"367 118 OFFCURVE",
"239 118 CURVE SMOOTH"
);
},
{
closed = 1;
nodes = (
"487 421 LINE",
"471 259 LINE",
"454 216 LINE",
"439 112 LINE",
"437 89 OFFCURVE",
"413 55 OFFCURVE",
"383 32 CURVE",
"371 0 LINE",
"479 0 LINE",
"483 227 LINE",
"591 485 LINE",
"485 485 LINE"
);
}
);
width = 576;
}
);
leftKerningGroup = a;
unicode = 0061;
},
{
glyphname = b;
lastChange = "2019-03-21 21:53:54 +0000";
layers = (
{
background = {
hints = (
{
horizontal = 1;
place = "{-8, 140}";
type = Stem;
},
{
horizontal = 1;
place = "{355, 138}";
type = Stem;
},
{
place = "{64, 36}";
type = Stem;
},
{
place = "{468, 32}";
type = Stem;
}
);
paths = (
{
closed = 1;
nodes = (
"206 493 OFFCURVE",
"132 441 OFFCURVE",
"104 373 CURVE",
"96 373 LINE",
"104 750 LINE",
"64 750 LINE",
"64 0 LINE",
"104 0 LINE",
"100 121 LINE",
"106 121 LINE",
"130 47 OFFCURVE",
"208 -8 OFFCURVE",
"288 -8 CURVE SMOOTH",
"412 -8 OFFCURVE",
"500 99 OFFCURVE",
"500 243 CURVE SMOOTH",
"500 387 OFFCURVE",
"408 493 OFFCURVE",
"284 493 CURVE SMOOTH"
);
},
{
closed = 1;
nodes = (
"180 132 OFFCURVE",
"102 177 OFFCURVE",
"102 241 CURVE SMOOTH",
"102 305 OFFCURVE",
"180 355 OFFCURVE",
"284 355 CURVE SMOOTH",
"388 355 OFFCURVE",
"468 307 OFFCURVE",
"468 243 CURVE SMOOTH",
"468 179 OFFCURVE",
"392 132 OFFCURVE",
"288 132 CURVE SMOOTH"
);
}
);
};
guideLines = (
{
angle = 77;
position = "{329, 261}";
}
);
layerId = "C1951C01-2078-4DCF-9B04-F28136C23FC3";
paths = (
{
closed = 1;
nodes = (
"425 -10 OFFCURVE",
"539 88 OFFCURVE",
"539 219 CURVE",
"630 377 OFFCURVE",
"565 495 OFFCURVE",
"387 495 CURVE SMOOTH",
"237 495 OFFCURVE",
"125 394 OFFCURVE",
"125 259 CURVE",
"40 105 OFFCURVE",
"103 -10 OFFCURVE",
"272 -10 CURVE SMOOTH"
);
},
{
closed = 1;
nodes = (
"205 118 OFFCURVE",
"137 163 OFFCURVE",
"137 223 CURVE SMOOTH",
"137 303 OFFCURVE",
"230 363 OFFCURVE",
"353 363 CURVE SMOOTH",
"450 363 OFFCURVE",
"523 317 OFFCURVE",
"523 255 CURVE SMOOTH",
"523 177 OFFCURVE",
"426 118 OFFCURVE",
"296 118 CURVE SMOOTH"
);
},
{
closed = 1;
nodes = (
"127 332 LINE",
"-5 0 LINE",
"117 0 LINE",
"93 80 LINE",
"97 81 LINE",
"139 296 LINE",
"281 750 LINE",
"157 750 LINE"
);
}
);
width = 596;
},
{
background = {
paths = (
{
closed = 1;
nodes = (
"412 -8 OFFCURVE",
"500 99 OFFCURVE",
"500 243 CURVE SMOOTH",
"500 387 OFFCURVE",
"408 493 OFFCURVE",
"284 493 CURVE SMOOTH",
"206 493 OFFCURVE",
"132 441 OFFCURVE",
"104 373 CURVE",
"82 240 LINE",
"106 121 LINE",
"130 47 OFFCURVE",
"208 -8 OFFCURVE",
"288 -8 CURVE SMOOTH"
);
},
{
closed = 1;
nodes = (
"180 132 OFFCURVE",
"102 177 OFFCURVE",
"102 241 CURVE SMOOTH",
"102 305 OFFCURVE",
"180 355 OFFCURVE",
"284 355 CURVE SMOOTH",
"388 355 OFFCURVE",
"468 307 OFFCURVE",
"468 243 CURVE SMOOTH",
"468 179 OFFCURVE",
"392 132 OFFCURVE",
"288 132 CURVE SMOOTH"
);
},
{
closed = 1;
nodes = (
"108 121 LINE",
"82 240 LINE",
"104 373 LINE",
"96 373 LINE",
"104 750 LINE",
"64 750 LINE",
"64 0 LINE",
"104 0 LINE",
"100 121 LINE"
);
}
);
};
layerId = "73C3FB79-0E24-4863-9919-819B2F26AD09";
paths = (
{
closed = 1;
nodes = (
"412 -8 OFFCURVE",
"500 99 OFFCURVE",
"500 243 CURVE SMOOTH",
"500 387 OFFCURVE",
"408 493 OFFCURVE",
"284 493 CURVE SMOOTH",
"206 493 OFFCURVE",
"132 441 OFFCURVE",
"104 373 CURVE",
"82 240 LINE",
"106 121 LINE",
"130 47 OFFCURVE",
"208 -8 OFFCURVE",
"288 -8 CURVE SMOOTH"
);
},
{
closed = 1;
nodes = (
"180 132 OFFCURVE",
"102 177 OFFCURVE",
"102 241 CURVE SMOOTH",
"102 305 OFFCURVE",
"180 355 OFFCURVE",
"284 355 CURVE SMOOTH",
"388 355 OFFCURVE",
"468 307 OFFCURVE",
"468 243 CURVE SMOOTH",
"468 179 OFFCURVE",
"392 132 OFFCURVE",
"288 132 CURVE SMOOTH"
);
},
{
closed = 1;
nodes = (
"108 121 LINE",
"82 240 LINE",
"104 373 LINE",
"96 373 LINE",
"104 750 LINE",
"64 750 LINE",
"64 0 LINE",
"104 0 LINE",
"100 121 LINE"
);
}
);
width = 538;
}
);
leftMetricsKey = l;
rightMetricsKey = o;
unicode = 0062;
},
{
glyphname = c;
lastChange = "2019-03-21 21:53:54 +0000";
layers = (
{
background = {
hints = (
{
horizontal = 1;
place = "{-8, 140}";
type = Stem;
},
{
horizontal = 1;
place = "{357, 136}";
type = Stem;
},
{
place = "{38, 32}";
type = Stem;
},
{
place = "{444, 18}";
type = Stem;
},
{
place = "{460, 18}";
type = Stem;
}
);
paths = (
{
closed = 1;
nodes = (
"462 277 LINE",
"462 401 OFFCURVE",
"377 493 OFFCURVE",
"257 493 CURVE SMOOTH",
"129 493 OFFCURVE",
"38 389 OFFCURVE",
"38 243 CURVE SMOOTH",
"38 97 OFFCURVE",
"135 -8 OFFCURVE",
"269 -8 CURVE SMOOTH",
"387 -8 OFFCURVE",
"474 84 OFFCURVE",
"478 208 CURVE",
"460 208 LINE",
"436 164 OFFCURVE",
"355 132 OFFCURVE",
"263 132 CURVE SMOOTH",
"153 132 OFFCURVE",
"70 178 OFFCURVE",
"70 242 CURVE SMOOTH",
"70 310 OFFCURVE",
"151 357 OFFCURVE",
"259 357 CURVE SMOOTH",
"347 357 OFFCURVE",
"420 325 OFFCURVE",
"444 277 CURVE"
);
}
);
};
guideLines = (
{
angle = 77;
position = "{270, 249}";
}
);
layerId = "C1951C01-2078-4DCF-9B04-F28136C23FC3";
paths = (
{
closed = 1;
nodes = (
"454 207 LINE",
"428 156 OFFCURVE",
"336 118 OFFCURVE",
"240 118 CURVE SMOOTH",
"142 118 OFFCURVE",
"69 161 OFFCURVE",
"69 218 CURVE SMOOTH",
"69 301 OFFCURVE",
"167 363 OFFCURVE",
"297 363 CURVE SMOOTH",
"395 363 OFFCURVE",
"468 325 OFFCURVE",
"468 275 CURVE",
"482 275 LINE",
"551 401 OFFCURVE",
"485 495 OFFCURVE",
"329 495 CURVE SMOOTH",
"171 495 OFFCURVE",
"53 392 OFFCURVE",
"53 254 CURVE",
"-34 103 OFFCURVE",
"38 -10 OFFCURVE",
"220 -10 CURVE SMOOTH",
"357 -10 OFFCURVE",
"464 83 OFFCURVE",
"470 207 CURVE"
);
}
);
width = 518;
},
{
background = {
paths = (
{
closed = 1;
nodes = (
"462 277 LINE",
"462 401 OFFCURVE",
"377 493 OFFCURVE",
"257 493 CURVE SMOOTH",
"129 493 OFFCURVE",
"38 389 OFFCURVE",
"38 243 CURVE SMOOTH",
"38 97 OFFCURVE",
"135 -8 OFFCURVE",
"269 -8 CURVE SMOOTH",
"387 -8 OFFCURVE",
"474 84 OFFCURVE",
"478 208 CURVE",
"460 208 LINE",
"436 164 OFFCURVE",
"355 132 OFFCURVE",
"263 132 CURVE SMOOTH",
"153 132 OFFCURVE",
"70 178 OFFCURVE",
"70 242 CURVE SMOOTH",
"70 310 OFFCURVE",
"151 357 OFFCURVE",
"259 357 CURVE SMOOTH",
"347 357 OFFCURVE",
"420 325 OFFCURVE",
"444 277 CURVE"
);
}
);
};
layerId = "73C3FB79-0E24-4863-9919-819B2F26AD09";
paths = (
{
closed = 1;
nodes = (
"462 277 LINE",
"462 401 OFFCURVE",
"377 493 OFFCURVE",
"257 493 CURVE SMOOTH",
"129 493 OFFCURVE",
"38 389 OFFCURVE",
"38 243 CURVE SMOOTH",
"38 97 OFFCURVE",
"135 -8 OFFCURVE",
"269 -8 CURVE SMOOTH",
"387 -8 OFFCURVE",
"474 84 OFFCURVE",
"478 208 CURVE",
"460 208 LINE",
"436 164 OFFCURVE",
"355 132 OFFCURVE",
"263 132 CURVE SMOOTH",
"153 132 OFFCURVE",
"70 178 OFFCURVE",
"70 242 CURVE SMOOTH",
"70 310 OFFCURVE",
"151 357 OFFCURVE",
"259 357 CURVE SMOOTH",
"347 357 OFFCURVE",
"420 325 OFFCURVE",
"444 277 CURVE"
);
}
);
width = 506;
},
{
associatedMasterId = "C1951C01-2078-4DCF-9B04-F28136C23FC3";
background = {
paths = (
{
closed = 1;
nodes = (
"476 151 LINE",
"446 90 OFFCURVE",
"397 48 OFFCURVE",
"304 48 CURVE SMOOTH",
"192 48 OFFCURVE",
"133 107 OFFCURVE",
"133 203 CURVE SMOOTH",
"133 342 OFFCURVE",
"220 437 OFFCURVE",
"358 437 CURVE SMOOTH",
"431 437 OFFCURVE",
"494 407 OFFCURVE",
"497 336 CURVE",
"570 344 LINE",
"563 440 OFFCURVE",
"482 497 OFFCURVE",
"368 497 CURVE SMOOTH",
"189 497 OFFCURVE",
"58 388 OFFCURVE",
"58 190 CURVE SMOOTH",
"58 75 OFFCURVE",
"143 -12 OFFCURVE",
"289 -12 CURVE SMOOTH",
"445 -12 OFFCURVE",
"512 64 OFFCURVE",
"545 136 CURVE"
);
}
);
};
layerId = "F5A325B1-94C3-4F61-AE2E-9C915DEB6497";
name = "Mar 29 17, 02:11";
paths = (
{
closed = 1;
nodes = (
"488 315 LINE",
"536 419 OFFCURVE",
"469 497 OFFCURVE",
"332 496 CURVE SMOOTH",
"167 495 OFFCURVE",
"43 397 OFFCURVE",
"43 268 CURVE",
"-54 108 OFFCURVE",
"21 -12 OFFCURVE",
"218 -11 CURVE SMOOTH",
"367 -10 OFFCURVE",
"478 71 OFFCURVE",
"478 178 CURVE",
"438 178 LINE",
"402 148 OFFCURVE",
"319 125 OFFCURVE",
"246 125 CURVE SMOOTH",
"148 124 OFFCURVE",
"75 163 OFFCURVE",
"75 216 CURVE SMOOTH",
"75 304 OFFCURVE",
"170 369 OFFCURVE",
"296 368 CURVE SMOOTH",
"357 367 OFFCURVE",
"421 344 OFFCURVE",
"446 315 CURVE"
);
}
);
width = 514;
}
);
leftMetricsKey = o;
unicode = 0063;
},
{
glyphname = d;
lastChange = "2019-03-21 21:53:54 +0000";
layers = (
{
background = {
hints = (
{
horizontal = 1;
place = "{-8, 140}";
type = Stem;
},
{
horizontal = 1;
place = "{355, 138}";
type = Stem;
},
{
place = "{38, 32}";
type = Stem;
},
{
place = "{436, 38}";
type = Stem;
}
);
paths = (
{
closed = 1;
nodes = (
"434 750 LINE",
"442 365 LINE",
"434 365 LINE",
"410 443 OFFCURVE",
"335 493 OFFCURVE",
"253 493 CURVE SMOOTH",
"127 493 OFFCURVE",
"38 388 OFFCURVE",
"38 242 CURVE SMOOTH",
"38 96 OFFCURVE",
"131 -8 OFFCURVE",
"261 -8 CURVE SMOOTH",
"337 -8 OFFCURVE",
"402 37 OFFCURVE",
"430 101 CURVE",
"438 101 LINE",
"434 0 LINE",
"474 0 LINE",
"474 750 LINE"
);
},
{
closed = 1;
nodes = (
"148 132 OFFCURVE",
"70 178 OFFCURVE",
"70 240 CURVE SMOOTH",
"70 306 OFFCURVE",
"148 355 OFFCURVE",
"253 355 CURVE SMOOTH",
"358 355 OFFCURVE",
"436 307 OFFCURVE",
"436 242 CURVE SMOOTH",
"436 179 OFFCURVE",
"358 132 OFFCURVE",
"253 132 CURVE SMOOTH"
);
}
);
};
guideLines = (
{
angle = 77;
position = "{276, 289}";
}
);
layerId = "C1951C01-2078-4DCF-9B04-F28136C23FC3";
paths = (
{
closed = 1;
nodes = (
"657 750 LINE",
"507 296 LINE",
"489 0 LINE",
"371 0 LINE",
"423 81 LINE",
"419 83 LINE",
"493 332 LINE",
"533 750 LINE"
);
},
{
closed = 1;
nodes = (
"31 -10 OFFCURVE",
"-33 104 OFFCURVE",
"54 255 CURVE",
"54 392 OFFCURVE",
"168 495 OFFCURVE",
"319 495 CURVE SMOOTH",
"499 495 OFFCURVE",
"548 382 OFFCURVE",
"476 223 CURVE",
"456 75 OFFCURVE",
"355 -10 OFFCURVE",
"203 -10 CURVE SMOOTH"
);
},
{
closed = 1;
nodes = (
"366 118 OFFCURVE",
"464 178 OFFCURVE",
"464 259 CURVE SMOOTH",
"464 318 OFFCURVE",
"391 363 OFFCURVE",
"293 363 CURVE SMOOTH",
"166 363 OFFCURVE",
"70 301 OFFCURVE",
"70 219 CURVE SMOOTH",
"70 161 OFFCURVE",
"141 118 OFFCURVE",
"236 118 CURVE SMOOTH"
);
}
);
width = 585;
},
{
background = {
paths = (
{
closed = 1;
nodes = (
"337 -8 OFFCURVE",
"402 37 OFFCURVE",
"430 101 CURVE",
"456 242 LINE",
"434 365 LINE",
"410 443 OFFCURVE",
"335 493 OFFCURVE",
"253 493 CURVE SMOOTH",
"127 493 OFFCURVE",
"38 388 OFFCURVE",
"38 242 CURVE SMOOTH",
"38 96 OFFCURVE",
"131 -8 OFFCURVE",
"261 -8 CURVE SMOOTH"
);
},
{
closed = 1;
nodes = (
"148 132 OFFCURVE",
"70 178 OFFCURVE",
"70 240 CURVE SMOOTH",
"70 306 OFFCURVE",
"148 355 OFFCURVE",
"253 355 CURVE SMOOTH",
"358 355 OFFCURVE",
"436 307 OFFCURVE",
"436 242 CURVE SMOOTH",
"436 179 OFFCURVE",
"358 132 OFFCURVE",
"253 132 CURVE SMOOTH"
);
},
{
closed = 1;
nodes = (
"434 0 LINE",
"474 0 LINE",
"474 750 LINE",
"434 750 LINE",
"442 365 LINE",
"434 365 LINE",
"456 242 LINE",
"430 101 LINE",
"438 101 LINE"
);
}
);
};
layerId = "73C3FB79-0E24-4863-9919-819B2F26AD09";
paths = (
{
closed = 1;
nodes = (
"337 -8 OFFCURVE",
"402 37 OFFCURVE",
"430 101 CURVE",
"456 242 LINE",
"434 365 LINE",
"410 443 OFFCURVE",
"335 493 OFFCURVE",
"253 493 CURVE SMOOTH",
"127 493 OFFCURVE",
"38 388 OFFCURVE",
"38 242 CURVE SMOOTH",
"38 96 OFFCURVE",
"131 -8 OFFCURVE",
"261 -8 CURVE SMOOTH"
);
},
{
closed = 1;
nodes = (
"148 132 OFFCURVE",
"70 178 OFFCURVE",
"70 240 CURVE SMOOTH",
"70 306 OFFCURVE",
"148 355 OFFCURVE",
"253 355 CURVE SMOOTH",
"358 355 OFFCURVE",
"436 307 OFFCURVE",
"436 242 CURVE SMOOTH",
"436 179 OFFCURVE",
"358 132 OFFCURVE",
"253 132 CURVE SMOOTH"
);
},
{
closed = 1;
nodes = (
"434 0 LINE",
"474 0 LINE",
"474 750 LINE",
"434 750 LINE",
"442 365 LINE",
"434 365 LINE",
"456 242 LINE",
"430 101 LINE",
"438 101 LINE"
);
}
);
width = 538;
},
{
associatedMasterId = "C1951C01-2078-4DCF-9B04-F28136C23FC3";
background = {
paths = (
{
closed = 1;
nodes = (
"546 0 LINE",
"703 706 LINE",
"609 706 LINE",
"542 412 LINE",
"515 469 OFFCURVE",
"442 499 OFFCURVE",
"355 499 CURVE SMOOTH",
"275 499 OFFCURVE",
"208 471 OFFCURVE",
"157 424 CURVE SMOOTH",
"94 367 OFFCURVE",
"58 279 OFFCURVE",
"58 185 CURVE SMOOTH",
"58 65 OFFCURVE",
"143 -9 OFFCURVE",
"266 -9 CURVE SMOOTH",
"361 -9 OFFCURVE",
"428 25 OFFCURVE",
"474 83 CURVE",
"455 0 LINE"
);
},
{
closed = 1;
nodes = (
"512 256 OFFCURVE",
"495 196 OFFCURVE",
"466 152 CURVE SMOOTH",
"425 88 OFFCURVE",
"358 64 OFFCURVE",
"296 64 CURVE SMOOTH",
"213 64 OFFCURVE",
"159 115 OFFCURVE",
"159 197 CURVE SMOOTH",
"159 266 OFFCURVE",
"185 327 OFFCURVE",
"226 369 CURVE SMOOTH",
"262 406 OFFCURVE",
"313 426 OFFCURVE",
"368 426 CURVE SMOOTH",
"456 426 OFFCURVE",
"512 386 OFFCURVE",
"512 309 CURVE SMOOTH"
);
}
);
};
layerId = "0D9B6F76-2261-4DAF-A78E-854EC12A017A";
name = "Jan 8 18, 00:18";
paths = (
{
closed = 1;
nodes = (
"662 750 LINE",
"516 296 LINE",
"504 0 LINE",
"368 0 LINE",
"411 84 LINE",
"502 332 LINE",
"526 750 LINE"
);
},
{
closed = 1;
nodes = (
"40 -10 OFFCURVE",
"-35 110 OFFCURVE",
"57 269 CURVE",
"57 398 OFFCURVE",
"175 495 OFFCURVE",
"332 495 CURVE SMOOTH",
"498 495 OFFCURVE",
"557 380 OFFCURVE",
"469 227 CURVE",
"469 103 OFFCURVE",
"362 -10 OFFCURVE",
"204 -10 CURVE SMOOTH"
);
},
{
closed = 1;
nodes = (
"368 126 OFFCURVE",
"461 186 OFFCURVE",
"461 267 CURVE SMOOTH",
"461 318 OFFCURVE",
"392 357 OFFCURVE",
"292 357 CURVE SMOOTH",
"168 357 OFFCURVE",
"75 298 OFFCURVE",
"75 219 CURVE SMOOTH",
"75 166 OFFCURVE",
"147 126 OFFCURVE",
"244 126 CURVE SMOOTH"
);
}
);
width = 604;
}
);
leftMetricsKey = o;
rightMetricsKey = l;
unicode = 0064;
},
{
glyphname = e;
lastChange = "2019-03-21 21:53:54 +0000";
layers = (
{
background = {
hints = (
{
horizontal = 1;
place = "{-8, 126}";
type = Stem;
},
{
horizontal = 1;
place = "{226, 32}";
type = Stem;
},
{
horizontal = 1;
place = "{369, 124}";
type = Stem;
},
{
place = "{38, 33}";
type = Stem;
},
{
place = "{454, 18}";
type = Stem;
},
{
place = "{426, 32}";
type = Stem;
}
);
paths = (
{
closed = 1;
nodes = (
"454 204 LINE",
"430 156 OFFCURVE",
"349 118 OFFCURVE",
"259 118 CURVE SMOOTH",
"157 118 OFFCURVE",
"85 162 OFFCURVE",
"72 223 CURVE",
"457 229 LINE",
"458 234 OFFCURVE",
"458 248 OFFCURVE",
"458 261 CURVE SMOOTH",
"458 397 OFFCURVE",
"375 493 OFFCURVE",
"255 493 CURVE SMOOTH",
"127 493 OFFCURVE",
"38 387 OFFCURVE",
"38 243 CURVE SMOOTH",
"38 99 OFFCURVE",
"133 -8 OFFCURVE",
"267 -8 CURVE SMOOTH",
"381 -8 OFFCURVE",
"468 80 OFFCURVE",
"472 204 CURVE"
);
},
{
closed = 1;
nodes = (
"343 369 OFFCURVE",
"414 325 OFFCURVE",
"426 261 CURVE",
"71 255 LINE",
"79 322 OFFCURVE",
"153 369 OFFCURVE",
"255 369 CURVE SMOOTH"
);
}
);
};
guideLines = (
{
angle = 77;
position = "{263, 243}";
}
);
layerId = "C1951C01-2078-4DCF-9B04-F28136C23FC3";
paths = (
{
closed = 1;
nodes = (
"461 203 LINE",
"434 150 OFFCURVE",
"340 110 OFFCURVE",
"242 110 CURVE SMOOTH",
"143 110 OFFCURVE",
"69 156 OFFCURVE",
"69 218 CURVE SMOOTH",
"69 305 OFFCURVE",
"167 371 OFFCURVE",
"298 371 CURVE SMOOTH",
"408 371 OFFCURVE",
"481 324 OFFCURVE",
"468 261 CURVE",
"457 225 LINE",
"481 225 LINE",
"570 379 OFFCURVE",
"504 495 OFFCURVE",
"326 495 CURVE SMOOTH",
"170 495 OFFCURVE",
"53 392 OFFCURVE",
"53 254 CURVE",
"-34 103 OFFCURVE",
"39 -10 OFFCURVE",
"222 -10 CURVE SMOOTH",
"362 -10 OFFCURVE",
"471 81 OFFCURVE",
"477 203 CURVE"
);
},
{
closed = 1;
nodes = (
"53 225 LINE",
"472 225 LINE",
"482 261 LINE",
"63 261 LINE"
);
}
);
width = 534;
},
{
background = {
paths = (
{
closed = 1;
nodes = (
"414 325 OFFCURVE",
"426 261 CURVE",
"426 260 LINE",
"458 261 LINE",
"458 397 OFFCURVE",
"375 493 OFFCURVE",
"255 493 CURVE SMOOTH",
"127 493 OFFCURVE",
"38 387 OFFCURVE",
"38 243 CURVE SMOOTH",
"38 99 OFFCURVE",
"133 -8 OFFCURVE",
"267 -8 CURVE SMOOTH",
"381 -8 OFFCURVE",
"468 80 OFFCURVE",
"472 204 CURVE",
"454 204 LINE",
"430 156 OFFCURVE",
"349 118 OFFCURVE",
"259 118 CURVE SMOOTH",
"147 118 OFFCURVE",
"70 172 OFFCURVE",
"70 242 CURVE SMOOTH",
"70 316 OFFCURVE",
"147 369 OFFCURVE",
"255 369 CURVE SMOOTH",
"343 369 OFFCURVE"
);
},
{
closed = 1;
nodes = (
"70 223 LINE",
"457 229 LINE",
"458 234 OFFCURVE",
"458 248 OFFCURVE",
"458 261 CURVE",
"70 255 LINE"
);
}
);
};
layerId = "73C3FB79-0E24-4863-9919-819B2F26AD09";
paths = (
{
closed = 1;
nodes = (
"414 325 OFFCURVE",
"426 261 CURVE",
"426 260 LINE",
"458 261 LINE",
"458 397 OFFCURVE",
"375 493 OFFCURVE",
"255 493 CURVE SMOOTH",
"127 493 OFFCURVE",
"38 387 OFFCURVE",
"38 243 CURVE SMOOTH",
"38 99 OFFCURVE",
"133 -8 OFFCURVE",
"267 -8 CURVE SMOOTH",
"381 -8 OFFCURVE",
"468 80 OFFCURVE",
"472 204 CURVE",
"454 204 LINE",
"430 156 OFFCURVE",
"349 118 OFFCURVE",
"259 118 CURVE SMOOTH",
"147 118 OFFCURVE",
"70 172 OFFCURVE",
"70 242 CURVE SMOOTH",
"70 316 OFFCURVE",
"147 369 OFFCURVE",
"255 369 CURVE SMOOTH",
"343 369 OFFCURVE"
);
},
{
closed = 1;
nodes = (
"70 223 LINE",
"457 229 LINE",
"458 234 OFFCURVE",
"458 248 OFFCURVE",
"458 261 CURVE",
"70 255 LINE"
);
}
);
width = 512;
},
{
associatedMasterId = "73C3FB79-0E24-4863-9919-819B2F26AD09";
background = {
paths = (
{
closed = 1;
nodes = (
"495 157 LINE",
"476 96 OFFCURVE",
"412 64 OFFCURVE",
"335 64 CURVE SMOOTH",
"229 64 OFFCURVE",
"141 111 OFFCURVE",
"140 228 CURVE",
"592 228 LINE",
"591 400 OFFCURVE",
"500 505 OFFCURVE",
"322 505 CURVE SMOOTH",
"151 505 OFFCURVE",
"41 408 OFFCURVE",
"41 251 CURVE SMOOTH",
"41 87 OFFCURVE",
"141 -13 OFFCURVE",
"333 -13 CURVE SMOOTH",
"458 -13 OFFCURVE",
"552 42 OFFCURVE",
"588 131 CURVE"
);
},
{
closed = 1;
nodes = (
"142 298 LINE",
"152 386 OFFCURVE",
"219 432 OFFCURVE",
"323 432 CURVE SMOOTH",
"433 432 OFFCURVE",
"482 374 OFFCURVE",
"488 298 CURVE"
);
}
);
};
layerId = "D04C1795-C1E2-4191-B3EB-DA2F7ACE92BA";
name = "Apr 27 17, 21:39";
paths = (
{
closed = 1;
nodes = (
"66 228 LINE",
"483 228 LINE",
"483 268 LINE",
"66 268 LINE"
);
},
{
closed = 1;
nodes = (
"508 228 LINE",
"508 233 OFFCURVE",
"508 245 OFFCURVE",
"508 250 CURVE SMOOTH",
"508 392 OFFCURVE",
"416 497 OFFCURVE",
"293 496 CURVE SMOOTH",
"150 495 OFFCURVE",
"42 384 OFFCURVE",
"42 236 CURVE SMOOTH",
"42 94 OFFCURVE",
"150 -12 OFFCURVE",
"293 -11 CURVE SMOOTH",
"391 -10 OFFCURVE",
"484 69 OFFCURVE",
"510 174 CURVE",
"474 174 LINE",
"430 147 OFFCURVE",
"349 126 OFFCURVE",
"285 125 CURVE SMOOTH",
"169 126 OFFCURVE",
"82 175 OFFCURVE",
"82 240 CURVE SMOOTH",
"82 313 OFFCURVE",
"169 368 OFFCURVE",
"285 368 CURVE SMOOTH",
"394 368 OFFCURVE",
"474 308 OFFCURVE",
"470 228 CURVE"
);
}
);
width = 552;
},
{
associatedMasterId = "73C3FB79-0E24-4863-9919-819B2F26AD09";
background = {
paths = (
{
closed = 1;
nodes = (
"464 203 LINE",
"449 154 OFFCURVE",
"365 118 OFFCURVE",
"268 118 CURVE SMOOTH",
"155 118 OFFCURVE",
"70 172 OFFCURVE",
"70 244 CURVE SMOOTH",
"70 312 OFFCURVE",
"153 363 OFFCURVE",
"264 363 CURVE SMOOTH",
"355 363 OFFCURVE",
"437 319 OFFCURVE",
"454 261 CURVE",
"454 225 LINE",
"480 225 LINE",
"481 234 OFFCURVE",
"482 248 OFFCURVE",
"482 257 CURVE SMOOTH",
"482 393 OFFCURVE",
"389 495 OFFCURVE",
"266 495 CURVE SMOOTH",
"136 495 OFFCURVE",
"38 387 OFFCURVE",
"38 244 CURVE SMOOTH",
"38 99 OFFCURVE",
"138 -10 OFFCURVE",
"272 -10 CURVE SMOOTH",
"388 -10 OFFCURVE",
"477 81 OFFCURVE",
"480 203 CURVE"
);
},
{
closed = 1;
nodes = (
"68 225 LINE",
"454 225 LINE",
"454 261 LINE",
"68 261 LINE"
);
}
);
};
layerId = "4AD5347D-3690-4989-9EDC-12DAAF6F9302";
name = "Nov 2 18, 19:14";
paths = (
{
closed = 1;
nodes = (
"464 203 LINE",
"449 154 OFFCURVE",
"365 118 OFFCURVE",
"268 118 CURVE SMOOTH",
"155 118 OFFCURVE",
"70 172 OFFCURVE",
"70 244 CURVE SMOOTH",
"70 312 OFFCURVE",
"153 363 OFFCURVE",
"264 363 CURVE SMOOTH",
"355 363 OFFCURVE",
"437 319 OFFCURVE",
"454 261 CURVE",
"454 225 LINE",
"480 225 LINE",
"481 234 OFFCURVE",
"482 248 OFFCURVE",
"482 257 CURVE SMOOTH",
"482 393 OFFCURVE",
"389 495 OFFCURVE",
"266 495 CURVE SMOOTH",
"136 495 OFFCURVE",
"38 387 OFFCURVE",
"38 244 CURVE SMOOTH",
"38 99 OFFCURVE",
"138 -10 OFFCURVE",
"272 -10 CURVE SMOOTH",
"388 -10 OFFCURVE",
"477 81 OFFCURVE",
"480 203 CURVE"
);
},
{
closed = 1;
nodes = (
"68 225 LINE",
"454 225 LINE",
"454 261 LINE",
"68 261 LINE"
);
}
);
width = 520;
}
);
leftMetricsKey = o;
unicode = 0065;
},
{
glyphname = f;
lastChange = "2019-03-21 21:53:54 +0000";
layers = (
{
background = {
hints = (
{
horizontal = 1;
place = "{311, 146}";
type = Stem;
},
{
horizontal = 1;
place = "{618, 140}";
type = Stem;
},
{
place = "{82, 40}";
type = Stem;
}
);
paths = (
{
closed = 1;
nodes = (
"272 618 OFFCURVE",
"312 608 OFFCURVE",
"330 594 CURVE",
"332 726 LINE",
"316 744 OFFCURVE",
"280 758 OFFCURVE",
"242 758 CURVE SMOOTH",
"150 758 OFFCURVE",
"82 674 OFFCURVE",
"82 562 CURVE SMOOTH",
"82 457 LINE",
"16 457 LINE",
"16 311 LINE",
"82 311 LINE",
"82 0 LINE",
"122 0 LINE",
"122 311 LINE",
"314 311 LINE",
"314 457 LINE",
"122 457 LINE",
"122 530 LINE SMOOTH",
"122 582 OFFCURVE",
"170 618 OFFCURVE",
"234 618 CURVE SMOOTH"
);
}
);
};
guideLines = (
{
angle = 77;
position = "{171, 538}";
}
);
layerId = "C1951C01-2078-4DCF-9B04-F28136C23FC3";
paths = (
{
closed = 1;
nodes = (
"433 596 LINE",
"414 608 OFFCURVE",
"380 618 OFFCURVE",
"341 618 CURVE SMOOTH",
"274 618 OFFCURVE",
"209 575 OFFCURVE",
"188 517 CURVE",
"156 565 LINE",
"169 676 OFFCURVE",
"265 760 OFFCURVE",
"381 760 CURVE SMOOTH",
"421 760 OFFCURVE",
"453 748 OFFCURVE",
"471 732 CURVE"
);
},
{
closed = 1;
nodes = (
"75 465 LINE",
"371 465 LINE",
"339 325 LINE",
"43 325 LINE"
);
},
{
closed = 1;
nodes = (
"188 517 LINE",
"146 411 LINE",
"114 0 LINE",
"-16 0 LINE",
"130 375 LINE",
"156 565 LINE"
);
}
);
width = 366;
},
{
background = {
paths = (
{
closed = 1;
nodes = (
"82 562 LINE",
"122 530 LINE",
"122 0 LINE",
"82 0 LINE"
);
},
{
closed = 1;
nodes = (
"16 457 LINE",
"314 457 LINE",
"314 311 LINE",
"16 311 LINE"
);
},
{
closed = 1;
nodes = (
"82 562 LINE",
"82 674 OFFCURVE",
"150 758 OFFCURVE",
"242 758 CURVE SMOOTH",
"280 758 OFFCURVE",
"316 744 OFFCURVE",
"332 726 CURVE",
"330 594 LINE",
"312 608 OFFCURVE",
"272 618 OFFCURVE",
"234 618 CURVE SMOOTH",
"170 618 OFFCURVE",
"122 582 OFFCURVE",
"122 530 CURVE"
);
}
);
};
layerId = "73C3FB79-0E24-4863-9919-819B2F26AD09";
paths = (
{
closed = 1;
nodes = (
"82 562 LINE",
"122 530 LINE",
"122 0 LINE",
"82 0 LINE"
);
},
{
closed = 1;
nodes = (
"16 457 LINE",
"314 457 LINE",
"314 311 LINE",
"16 311 LINE"
);
},
{
closed = 1;
nodes = (
"82 562 LINE",
"82 674 OFFCURVE",
"150 758 OFFCURVE",
"242 758 CURVE SMOOTH",
"280 758 OFFCURVE",
"316 744 OFFCURVE",
"332 726 CURVE",
"330 594 LINE",
"312 608 OFFCURVE",
"272 618 OFFCURVE",
"234 618 CURVE SMOOTH",
"170 618 OFFCURVE",
"122 582 OFFCURVE",
"122 530 CURVE"
);
}
);
width = 336;
},
{
associatedMasterId = "73C3FB79-0E24-4863-9919-819B2F26AD09";
background = {
paths = (
{
closed = 1;
nodes = (
"178 0 LINE",
"178 422 LINE",
"297 422 LINE",
"297 492 LINE",
"178 492 LINE",
"178 566 LINE SMOOTH",
"178 596 OFFCURVE",
"184 612 OFFCURVE",
"195 623 CURVE SMOOTH",
"206 634 OFFCURVE",
"224 639 OFFCURVE",
"248 639 CURVE SMOOTH",
"268 639 OFFCURVE",
"288 636 OFFCURVE",
"309 629 CURVE",
"309 704 LINE",
"283 711 OFFCURVE",
"262 714 OFFCURVE",
"231 714 CURVE SMOOTH",
"182 714 OFFCURVE",
"140 703 OFFCURVE",
"114 676 CURVE SMOOTH",
"92 654 OFFCURVE",
"82 622 OFFCURVE",
"82 576 CURVE SMOOTH",
"82 492 LINE",
"-14 492 LINE",
"-14 422 LINE",
"82 422 LINE",
"82 0 LINE"
);
}
);
};
layerId = "69F58792-2765-4C23-AEF6-3E5E33652F0B";
name = "Jul 30 17, 16:48";
paths = (
{
closed = 1;
nodes = (
"88 542 LINE",
"126 534 LINE",
"126 0 LINE",
"88 0 LINE"
);
},
{
closed = 1;
nodes = (
"32 465 LINE",
"328 465 LINE",
"328 325 LINE",
"32 325 LINE"
);
},
{
closed = 1;
nodes = (
"88 542 LINE",
"93 679 OFFCURVE",
"157 760 OFFCURVE",
"259 760 CURVE SMOOTH",
"300 760 OFFCURVE",
"334 750 OFFCURVE",
"352 732 CURVE",
"352 598 LINE",
"328 613 OFFCURVE",
"289 622 OFFCURVE",
"247 622 CURVE SMOOTH",
"171 622 OFFCURVE",
"126 589 OFFCURVE",
"126 534 CURVE"
);
}
);
width = 368;
},
{
associatedMasterId = "C1951C01-2078-4DCF-9B04-F28136C23FC3";
background = {
paths = (
{
closed = 1;
nodes = (
"141 0 LINE",
"232 419 LINE",
"351 419 LINE",
"364 488 LINE",
"246 488 LINE",
"264 567 LINE SMOOTH",
"270 594 OFFCURVE",
"280 614 OFFCURVE",
"293 625 CURVE",
"307 636 OFFCURVE",
"325 642 OFFCURVE",
"351 642 CURVE SMOOTH",
"369 642 OFFCURVE",
"388 639 OFFCURVE",
"408 631 CURVE",
"425 703 LINE",
"401 709 OFFCURVE",
"378 714 OFFCURVE",
"348 714 CURVE SMOOTH",
"299 714 OFFCURVE",
"256 705 OFFCURVE",
"224 678 CURVE SMOOTH",
"199 658 OFFCURVE",
"183 626 OFFCURVE",
"172 576 CURVE SMOOTH",
"151 488 LINE",
"53 488 LINE",
"39 419 LINE",
"137 419 LINE",
"46 0 LINE"
);
}
);
};
guideLines = (
{
angle = 77;
position = "{171, 538}";
}
);
layerId = "1B654259-3507-4CBC-9BD9-CDB138D689E8";
name = "Dec 25 17, 19:24";
paths = (
{
closed = 1;
nodes = (
"433 596 LINE",
"414 608 OFFCURVE",
"380 618 OFFCURVE",
"341 618 CURVE SMOOTH",
"274 618 OFFCURVE",
"209 575 OFFCURVE",
"188 517 CURVE",
"156 565 LINE",
"169 676 OFFCURVE",
"265 760 OFFCURVE",
"381 760 CURVE SMOOTH",
"421 760 OFFCURVE",
"453 748 OFFCURVE",
"471 732 CURVE"
);
},
{
closed = 1;
nodes = (
"75 465 LINE",
"371 465 LINE",
"339 325 LINE",
"43 325 LINE"
);
},
{
closed = 1;
nodes = (
"188 517 LINE",
"146 411 LINE",
"114 0 LINE",
"-16 0 LINE",
"130 375 LINE",
"156 565 LINE"
);
}
);
width = 366;
},
{
associatedMasterId = "73C3FB79-0E24-4863-9919-819B2F26AD09";
background = {
paths = (
{
closed = 1;
nodes = (
"88 542 LINE",
"126 534 LINE",
"126 0 LINE",
"88 0 LINE"
);
},
{
closed = 1;
nodes = (
"32 465 LINE",
"328 465 LINE",
"328 325 LINE",
"32 325 LINE"
);
},
{
closed = 1;
nodes = (
"88 542 LINE",
"93 679 OFFCURVE",
"155 760 OFFCURVE",
"255 760 CURVE SMOOTH",
"290 760 OFFCURVE",
"330 750 OFFCURVE",
"348 732 CURVE",
"344 598 LINE",
"320 613 OFFCURVE",
"282 622 OFFCURVE",
"243 622 CURVE SMOOTH",
"169 622 OFFCURVE",
"126 589 OFFCURVE",
"126 534 CURVE"
);
}
);
};
layerId = "C0344261-9E83-4F46-AC54-3A1B6444B6C4";
name = "Nov 15 18, 00:24";
paths = (
{
closed = 1;
nodes = (
"88 542 LINE",
"126 534 LINE",
"126 0 LINE",
"88 0 LINE"
);
},
{
closed = 1;
nodes = (
"32 465 LINE",
"328 465 LINE",
"328 325 LINE",
"32 325 LINE"
);
},
{
closed = 1;
nodes = (
"88 542 LINE",
"93 679 OFFCURVE",
"155 760 OFFCURVE",
"255 760 CURVE SMOOTH",
"290 760 OFFCURVE",
"330 750 OFFCURVE",
"348 732 CURVE",
"344 598 LINE",
"320 613 OFFCURVE",
"282 622 OFFCURVE",
"243 622 CURVE SMOOTH",
"169 622 OFFCURVE",
"126 589 OFFCURVE",
"126 534 CURVE"
);
}
);
width = 364;
}
);
unicode = 0066;
},
{
color = 6;
glyphname = g;
lastChange = "2019-03-21 21:53:54 +0000";
layers = (
{
background = {
hints = (
{
horizontal = 1;
place = "{-214, 120}";
type = Stem;
},
{
horizontal = 1;
place = "{-8, 132}";
type = Stem;
},
{
horizontal = 1;
place = "{355, 138}";
type = Stem;
},
{
place = "{38, 32}";
type = Stem;
},
{
place = "{436, 38}";
type = Stem;
},
{
place = "{70, 16}";
type = Stem;
}
);
paths = (
{
closed = 1;
nodes = (
"434 485 LINE",
"442 365 LINE",
"434 365 LINE",
"410 443 OFFCURVE",
"335 493 OFFCURVE",
"253 493 CURVE SMOOTH",
"127 493 OFFCURVE",
"38 388 OFFCURVE",
"38 242 CURVE SMOOTH",
"38 96 OFFCURVE",
"131 -8 OFFCURVE",
"261 -8 CURVE SMOOTH",
"337 -8 OFFCURVE",
"402 37 OFFCURVE",
"430 101 CURVE",
"438 101 LINE",
"436 61 LINE SMOOTH",
"431 -31 OFFCURVE",
"360 -94 OFFCURVE",
"264 -94 CURVE SMOOTH",
"183 -94 OFFCURVE",
"110 -60 OFFCURVE",
"86 -8 CURVE",
"70 -8 LINE",
"70 -128 OFFCURVE",
"152 -214 OFFCURVE",
"276 -214 CURVE SMOOTH",
"392 -214 OFFCURVE",
"474 -111 OFFCURVE",
"474 33 CURVE SMOOTH",
"474 485 LINE"
);
},
{
closed = 1;
nodes = (
"147 124 OFFCURVE",
"70 172 OFFCURVE",
"70 240 CURVE SMOOTH",
"70 308 OFFCURVE",
"147 355 OFFCURVE",
"253 355 CURVE SMOOTH",
"359 355 OFFCURVE",
"436 308 OFFCURVE",
"436 242 CURVE SMOOTH",
"436 174 OFFCURVE",
"359 124 OFFCURVE",
"253 124 CURVE SMOOTH"
);
}
);
};
layerId = "C1951C01-2078-4DCF-9B04-F28136C23FC3";
paths = (
{
closed = 1;
nodes = (
"5 -2 OFFCURVE",
"-61 116 OFFCURVE",
"31 269 CURVE",
"31 398 OFFCURVE",
"151 495 OFFCURVE",
"308 495 CURVE SMOOTH",
"474 495 OFFCURVE",
"530 375 OFFCURVE",
"445 227 CURVE",
"445 104 OFFCURVE",
"338 -2 OFFCURVE",
"180 -2 CURVE SMOOTH"
);
},
{
closed = 1;
nodes = (
"344 130 OFFCURVE",
"437 186 OFFCURVE",
"437 267 CURVE SMOOTH",
"437 318 OFFCURVE",
"368 357 OFFCURVE",
"268 357 CURVE SMOOTH",
"144 357 OFFCURVE",
"51 298 OFFCURVE",
"51 219 CURVE SMOOTH",
"51 168 OFFCURVE",
"123 130 OFFCURVE",
"220 130 CURVE SMOOTH"
);
},
{
closed = 1;
nodes = (
"583 485 LINE",
"443 90 LINE",
"415 118 LINE",
"469 413 LINE",
"455 485 LINE"
);
},
{
closed = 1;
nodes = (
"415 118 LINE",
"407 0 OFFCURVE",
"296 -88 OFFCURVE",
"156 -88 CURVE SMOOTH",
"45 -88 OFFCURVE",
"-32 -43 OFFCURVE",
"-24 17 CURVE",
"-40 17 LINE",
"-119 -116 OFFCURVE",
"-47 -216 OFFCURVE",
"128 -216 CURVE SMOOTH",
"310 -216 OFFCURVE",
"443 -85 OFFCURVE",
"443 90 CURVE"
);
}
);
width = 527;
},
{
background = {
paths = (
{
closed = 1;
nodes = (
"337 -8 OFFCURVE",
"402 37 OFFCURVE",
"430 101 CURVE",
"456 242 LINE",
"434 365 LINE",
"410 443 OFFCURVE",
"335 493 OFFCURVE",
"253 493 CURVE SMOOTH",
"127 493 OFFCURVE",
"38 388 OFFCURVE",
"38 242 CURVE SMOOTH",
"38 96 OFFCURVE",
"131 -8 OFFCURVE",
"261 -8 CURVE SMOOTH"
);
},
{
closed = 1;
nodes = (
"147 124 OFFCURVE",
"70 172 OFFCURVE",
"70 240 CURVE SMOOTH",
"70 308 OFFCURVE",
"147 355 OFFCURVE",
"253 355 CURVE SMOOTH",
"359 355 OFFCURVE",
"436 308 OFFCURVE",
"436 242 CURVE SMOOTH",
"436 174 OFFCURVE",
"359 124 OFFCURVE",
"253 124 CURVE SMOOTH"
);
},
{
closed = 1;
nodes = (
"70 -128 OFFCURVE",
"152 -214 OFFCURVE",
"276 -214 CURVE SMOOTH",
"392 -214 OFFCURVE",
"474 -111 OFFCURVE",
"474 33 CURVE SMOOTH",
"474 485 LINE",
"434 485 LINE",
"442 365 LINE",
"434 365 LINE",
"456 242 LINE",
"430 101 LINE",
"438 101 LINE",
"436 61 LINE SMOOTH",
"431 -31 OFFCURVE",
"360 -94 OFFCURVE",
"264 -94 CURVE SMOOTH",
"183 -94 OFFCURVE",
"110 -60 OFFCURVE",
"86 -8 CURVE",
"70 -8 LINE"
);
}
);
};
layerId = "73C3FB79-0E24-4863-9919-819B2F26AD09";
paths = (
{
closed = 1;
nodes = (
"337 -8 OFFCURVE",
"402 37 OFFCURVE",
"430 101 CURVE",
"456 242 LINE",
"434 365 LINE",
"410 443 OFFCURVE",
"335 493 OFFCURVE",
"253 493 CURVE SMOOTH",
"127 493 OFFCURVE",
"38 388 OFFCURVE",
"38 242 CURVE SMOOTH",
"38 96 OFFCURVE",
"131 -8 OFFCURVE",
"261 -8 CURVE SMOOTH"
);
},
{
closed = 1;
nodes = (
"147 124 OFFCURVE",
"70 172 OFFCURVE",
"70 240 CURVE SMOOTH",
"70 308 OFFCURVE",
"147 355 OFFCURVE",
"253 355 CURVE SMOOTH",
"359 355 OFFCURVE",
"436 308 OFFCURVE",
"436 242 CURVE SMOOTH",
"436 174 OFFCURVE",
"359 124 OFFCURVE",
"253 124 CURVE SMOOTH"
);
},
{
closed = 1;
nodes = (
"70 -128 OFFCURVE",
"152 -214 OFFCURVE",
"276 -214 CURVE SMOOTH",
"392 -214 OFFCURVE",
"474 -111 OFFCURVE",
"474 33 CURVE SMOOTH",
"474 485 LINE",
"434 485 LINE",
"442 365 LINE",
"434 365 LINE",
"456 242 LINE",
"430 101 LINE",
"438 101 LINE",
"436 61 LINE SMOOTH",
"431 -31 OFFCURVE",
"360 -94 OFFCURVE",
"264 -94 CURVE SMOOTH",
"183 -94 OFFCURVE",
"110 -60 OFFCURVE",
"86 -8 CURVE",
"70 -8 LINE"
);
}
);
width = 538;
},
{
associatedMasterId = "C1951C01-2078-4DCF-9B04-F28136C23FC3";
background = {
paths = (
{
closed = 1;
nodes = (
"443 13 LINE SMOOTH",
"431 -42 OFFCURVE",
"416 -80 OFFCURVE",
"391 -107 CURVE SMOOTH",
"355 -145 OFFCURVE",
"308 -156 OFFCURVE",
"242 -156 CURVE SMOOTH",
"154 -156 OFFCURVE",
"91 -122 OFFCURVE",
"85 -61 CURVE",
"8 -70 LINE",
"17 -159 OFFCURVE",
"103 -216 OFFCURVE",
"233 -216 CURVE SMOOTH",
"340 -216 OFFCURVE",
"416 -194 OFFCURVE",
"468 -123 CURVE SMOOTH",
"492 -91 OFFCURVE",
"507 -36 OFFCURVE",
"518 14 CURVE SMOOTH",
"623 485 LINE",
"552 485 LINE",
"532 400 LINE",
"513 455 OFFCURVE",
"445 495 OFFCURVE",
"351 495 CURVE SMOOTH",
"176 495 OFFCURVE",
"49 373 OFFCURVE",
"49 184 CURVE SMOOTH",
"49 70 OFFCURVE",
"130 -5 OFFCURVE",
"257 -5 CURVE SMOOTH",
"347 -5 OFFCURVE",
"409 22 OFFCURVE",
"460 85 CURVE"
);
},
{
closed = 1;
nodes = (
"505 252 OFFCURVE",
"485 185 OFFCURVE",
"451 138 CURVE SMOOTH",
"409 79 OFFCURVE",
"346 53 OFFCURVE",
"278 53 CURVE SMOOTH",
"184 53 OFFCURVE",
"127 108 OFFCURVE",
"127 197 CURVE SMOOTH",
"127 344 OFFCURVE",
"227 437 OFFCURVE",
"355 437 CURVE SMOOTH",
"443 437 OFFCURVE",
"505 394 OFFCURVE",
"505 308 CURVE SMOOTH"
);
}
);
};
layerId = "C43EDC56-9289-4A0A-A14F-03E9A7069678";
name = "Mar 24 17, 22:34";
paths = (
{
closed = 1;
nodes = (
"489 361 LINE",
"399 72 LINE",
"455 108 LINE",
"609 485 LINE",
"465 485 LINE"
);
},
{
closed = 1;
nodes = (
"350 -10 OFFCURVE",
"461 91 OFFCURVE",
"461 225 CURVE",
"555 381 OFFCURVE",
"500 497 OFFCURVE",
"334 496 CURVE SMOOTH",
"174 495 OFFCURVE",
"49 397 OFFCURVE",
"43 268 CURVE",
"-52 108 OFFCURVE",
"16 -12 OFFCURVE",
"203 -11 CURVE SMOOTH"
);
},
{
closed = 1;
nodes = (
"141 132 OFFCURVE",
"71 169 OFFCURVE",
"71 220 CURVE SMOOTH",
"71 298 OFFCURVE",
"170 356 OFFCURVE",
"302 356 CURVE SMOOTH",
"386 356 OFFCURVE",
"449 320 OFFCURVE",
"449 273 CURVE SMOOTH",
"449 194 OFFCURVE",
"357 134 OFFCURVE",
"235 133 CURVE SMOOTH"
);
},
{
closed = 1;
nodes = (
"399 72 LINE",
"374 -14 OFFCURVE",
"279 -80 OFFCURVE",
"177 -81 CURVE SMOOTH",
"100 -82 OFFCURVE",
"31 -56 OFFCURVE",
"15 -21 CURVE",
"-25 -21 LINE",
"-87 -134 OFFCURVE",
"-14 -218 OFFCURVE",
"145 -217 CURVE SMOOTH",
"322 -216 OFFCURVE",
"455 -77 OFFCURVE",
"455 108 CURVE"
);
}
);
width = 563;
},
{
associatedMasterId = "C1951C01-2078-4DCF-9B04-F28136C23FC3";
background = {
paths = (
{
closed = 1;
nodes = (
"443 13 LINE SMOOTH",
"431 -42 OFFCURVE",
"416 -80 OFFCURVE",
"391 -107 CURVE SMOOTH",
"355 -145 OFFCURVE",
"308 -156 OFFCURVE",
"242 -156 CURVE SMOOTH",
"154 -156 OFFCURVE",
"91 -122 OFFCURVE",
"85 -61 CURVE",
"8 -70 LINE",
"17 -159 OFFCURVE",
"103 -216 OFFCURVE",
"233 -216 CURVE SMOOTH",
"340 -216 OFFCURVE",
"416 -194 OFFCURVE",
"468 -123 CURVE SMOOTH",
"492 -91 OFFCURVE",
"507 -36 OFFCURVE",
"518 14 CURVE SMOOTH",
"623 485 LINE",
"552 485 LINE",
"532 400 LINE",
"513 455 OFFCURVE",
"445 495 OFFCURVE",
"351 495 CURVE SMOOTH",
"176 495 OFFCURVE",
"49 373 OFFCURVE",
"49 184 CURVE SMOOTH",
"49 70 OFFCURVE",
"130 -5 OFFCURVE",
"257 -5 CURVE SMOOTH",
"347 -5 OFFCURVE",
"409 22 OFFCURVE",
"460 85 CURVE"
);
},
{
closed = 1;
nodes = (
"505 252 OFFCURVE",
"485 185 OFFCURVE",
"451 138 CURVE SMOOTH",
"409 79 OFFCURVE",
"346 53 OFFCURVE",
"278 53 CURVE SMOOTH",
"184 53 OFFCURVE",
"127 108 OFFCURVE",
"127 197 CURVE SMOOTH",
"127 344 OFFCURVE",
"227 437 OFFCURVE",
"355 437 CURVE SMOOTH",
"443 437 OFFCURVE",
"505 394 OFFCURVE",
"505 308 CURVE SMOOTH"
);
}
);
};
layerId = "02A3BA73-7DD6-41E2-89D4-F80862E21741";
name = "Mar 26 17, 17:59";
paths = (
{
closed = 1;
nodes = (
"489 361 LINE",
"399 72 LINE",
"455 108 LINE",
"609 485 LINE",
"465 485 LINE"
);
},
{
closed = 1;
nodes = (
"350 -10 OFFCURVE",
"461 91 OFFCURVE",
"461 225 CURVE",
"555 381 OFFCURVE",
"500 497 OFFCURVE",
"334 496 CURVE SMOOTH",
"174 495 OFFCURVE",
"49 397 OFFCURVE",
"43 268 CURVE",
"-52 108 OFFCURVE",
"16 -12 OFFCURVE",
"203 -11 CURVE SMOOTH"
);
},
{
closed = 1;
nodes = (
"141 132 OFFCURVE",
"71 169 OFFCURVE",
"71 220 CURVE SMOOTH",
"71 298 OFFCURVE",
"170 356 OFFCURVE",
"302 356 CURVE SMOOTH",
"386 356 OFFCURVE",
"449 320 OFFCURVE",
"449 273 CURVE SMOOTH",
"449 194 OFFCURVE",
"357 134 OFFCURVE",
"235 133 CURVE SMOOTH"
);
},
{
closed = 1;
nodes = (
"399 72 LINE",
"374 -14 OFFCURVE",
"279 -80 OFFCURVE",
"177 -81 CURVE SMOOTH",
"100 -82 OFFCURVE",
"31 -56 OFFCURVE",
"15 -21 CURVE",
"-25 -21 LINE",
"-87 -134 OFFCURVE",
"-14 -218 OFFCURVE",
"145 -217 CURVE SMOOTH",
"322 -216 OFFCURVE",
"455 -77 OFFCURVE",
"455 108 CURVE"
);
}
);
width = 563;
},
{
associatedMasterId = "73C3FB79-0E24-4863-9919-819B2F26AD09";
background = {
paths = (
{
closed = 1;
nodes = (
"476 24 LINE SMOOTH",
"476 -17 OFFCURVE",
"471 -58 OFFCURVE",
"457 -81 CURVE",
"433 -124 OFFCURVE",
"380 -137 OFFCURVE",
"314 -137 CURVE SMOOTH",
"228 -137 OFFCURVE",
"173 -101 OFFCURVE",
"155 -44 CURVE",
"58 -59 LINE",
"80 -155 OFFCURVE",
"169 -213 OFFCURVE",
"311 -213 CURVE SMOOTH",
"424 -213 OFFCURVE",
"509 -183 OFFCURVE",
"547 -109 CURVE SMOOTH",
"567 -71 OFFCURVE",
"572 -18 OFFCURVE",
"572 33 CURVE SMOOTH",
"572 493 LINE",
"480 493 LINE",
"480 425 LINE",
"449 472 OFFCURVE",
"384 501 OFFCURVE",
"294 501 CURVE SMOOTH",
"138 501 OFFCURVE",
"41 408 OFFCURVE",
"41 252 CURVE SMOOTH",
"41 96 OFFCURVE",
"132 1 OFFCURVE",
"282 1 CURVE SMOOTH",
"371 1 OFFCURVE",
"432 26 OFFCURVE",
"476 81 CURVE"
);
},
{
closed = 1;
nodes = (
"476 127 OFFCURVE",
"405 74 OFFCURVE",
"310 74 CURVE SMOOTH",
"203 74 OFFCURVE",
"140 140 OFFCURVE",
"140 257 CURVE SMOOTH",
"140 366 OFFCURVE",
"209 428 OFFCURVE",
"313 428 CURVE SMOOTH",
"414 428 OFFCURVE",
"476 370 OFFCURVE",
"476 250 CURVE SMOOTH"
);
}
);
};
layerId = "2CCB737E-9383-43BC-B3AC-E694A13C92BA";
name = "Apr 19 17, 23:50";
paths = (
{
closed = 1;
nodes = (
"374 -10 OFFCURVE",
"467 102 OFFCURVE",
"467 251 CURVE SMOOTH",
"467 392 OFFCURVE",
"374 497 OFFCURVE",
"249 496 CURVE SMOOTH",
"131 495 OFFCURVE",
"42 390 OFFCURVE",
"42 251 CURVE SMOOTH",
"42 100 OFFCURVE",
"131 -12 OFFCURVE",
"249 -11 CURVE SMOOTH"
);
},
{
closed = 1;
nodes = (
"151 132 OFFCURVE",
"78 183 OFFCURVE",
"78 251 CURVE SMOOTH",
"78 311 OFFCURVE",
"151 356 OFFCURVE",
"249 356 CURVE SMOOTH",
"360 356 OFFCURVE",
"443 311 OFFCURVE",
"443 251 CURVE SMOOTH",
"443 185 OFFCURVE",
"360 134 OFFCURVE",
"249 133 CURVE SMOOTH"
);
},
{
closed = 1;
nodes = (
"443 48 LINE",
"483 48 LINE",
"483 485 LINE",
"443 485 LINE"
);
},
{
closed = 1;
nodes = (
"443 48 LINE",
"443 -32 OFFCURVE",
"365 -92 OFFCURVE",
"261 -93 CURVE SMOOTH",
"166 -94 OFFCURVE",
"94 -59 OFFCURVE",
"94 -12 CURVE",
"54 -12 LINE",
"54 -130 OFFCURVE",
"146 -218 OFFCURVE",
"269 -217 CURVE SMOOTH",
"391 -216 OFFCURVE",
"483 -102 OFFCURVE",
"483 48 CURVE"
);
}
);
width = 539;
},
{
associatedMasterId = "73C3FB79-0E24-4863-9919-819B2F26AD09";
background = {
paths = (
{
closed = 1;
nodes = (
"470 24 LINE SMOOTH",
"470 -17 OFFCURVE",
"465 -58 OFFCURVE",
"451 -81 CURVE",
"427 -124 OFFCURVE",
"374 -137 OFFCURVE",
"308 -137 CURVE SMOOTH",
"222 -137 OFFCURVE",
"167 -101 OFFCURVE",
"149 -44 CURVE",
"52 -59 LINE",
"74 -155 OFFCURVE",
"163 -213 OFFCURVE",
"305 -213 CURVE SMOOTH",
"418 -213 OFFCURVE",
"503 -183 OFFCURVE",
"541 -109 CURVE SMOOTH",
"561 -71 OFFCURVE",
"566 -18 OFFCURVE",
"566 33 CURVE SMOOTH",
"566 493 LINE",
"474 493 LINE",
"474 425 LINE",
"443 472 OFFCURVE",
"378 501 OFFCURVE",
"288 501 CURVE SMOOTH",
"132 501 OFFCURVE",
"35 408 OFFCURVE",
"35 252 CURVE SMOOTH",
"35 96 OFFCURVE",
"126 1 OFFCURVE",
"276 1 CURVE SMOOTH",
"365 1 OFFCURVE",
"426 26 OFFCURVE",
"470 81 CURVE"
);
},
{
closed = 1;
nodes = (
"470 127 OFFCURVE",
"399 74 OFFCURVE",
"304 74 CURVE SMOOTH",
"197 74 OFFCURVE",
"134 140 OFFCURVE",
"134 257 CURVE SMOOTH",
"134 366 OFFCURVE",
"203 428 OFFCURVE",
"307 428 CURVE SMOOTH",
"408 428 OFFCURVE",
"470 370 OFFCURVE",
"470 250 CURVE SMOOTH"
);
}
);
};
layerId = "0BB900B7-49C7-4D57-9289-B140EA016034";
name = "Aug 2 17, 17:02";
paths = (
{
closed = 1;
nodes = (
"438 32 LINE",
"438 -35 OFFCURVE",
"363 -89 OFFCURVE",
"251 -89 CURVE SMOOTH",
"166 -89 OFFCURVE",
"84 -57 OFFCURVE",
"64 0 CURVE",
"48 0 LINE",
"62 -125 OFFCURVE",
"159 -217 OFFCURVE",
"263 -217 CURVE SMOOTH",
"373 -217 OFFCURVE",
"472 -113 OFFCURVE",
"476 24 CURVE"
);
},
{
closed = 1;
nodes = (
"438 32 LINE",
"476 24 LINE",
"476 485 LINE",
"438 485 LINE"
);
},
{
closed = 1;
nodes = (
"369 -10 OFFCURVE",
"458 102 OFFCURVE",
"458 251 CURVE SMOOTH",
"458 390 OFFCURVE",
"368 495 OFFCURVE",
"247 495 CURVE SMOOTH",
"126 495 OFFCURVE",
"36 385 OFFCURVE",
"36 239 CURVE SMOOTH",
"36 97 OFFCURVE",
"135 -10 OFFCURVE",
"251 -10 CURVE SMOOTH"
);
},
{
closed = 1;
nodes = (
"147 130 OFFCURVE",
"72 180 OFFCURVE",
"72 241 CURVE SMOOTH",
"72 302 OFFCURVE",
"147 347 OFFCURVE",
"247 347 CURVE SMOOTH",
"352 347 OFFCURVE",
"430 302 OFFCURVE",
"430 241 CURVE SMOOTH",
"430 180 OFFCURVE",
"352 130 OFFCURVE",
"247 130 CURVE SMOOTH"
);
}
);
width = 532;
},
{
associatedMasterId = "73C3FB79-0E24-4863-9919-819B2F26AD09";
background = {
paths = (
{
closed = 1;
nodes = (
"470 24 LINE SMOOTH",
"470 -17 OFFCURVE",
"465 -58 OFFCURVE",
"451 -81 CURVE",
"427 -124 OFFCURVE",
"374 -137 OFFCURVE",
"308 -137 CURVE SMOOTH",
"222 -137 OFFCURVE",
"167 -101 OFFCURVE",
"149 -44 CURVE",
"52 -59 LINE",
"74 -155 OFFCURVE",
"163 -213 OFFCURVE",
"305 -213 CURVE SMOOTH",
"418 -213 OFFCURVE",
"503 -183 OFFCURVE",
"541 -109 CURVE SMOOTH",
"561 -71 OFFCURVE",
"566 -18 OFFCURVE",
"566 33 CURVE SMOOTH",
"566 493 LINE",
"474 493 LINE",
"474 425 LINE",
"443 472 OFFCURVE",
"378 501 OFFCURVE",
"288 501 CURVE SMOOTH",
"132 501 OFFCURVE",
"35 408 OFFCURVE",
"35 252 CURVE SMOOTH",
"35 96 OFFCURVE",
"126 1 OFFCURVE",
"276 1 CURVE SMOOTH",
"365 1 OFFCURVE",
"426 26 OFFCURVE",
"470 81 CURVE"
);
},
{
closed = 1;
nodes = (
"470 127 OFFCURVE",
"399 74 OFFCURVE",
"304 74 CURVE SMOOTH",
"197 74 OFFCURVE",
"134 140 OFFCURVE",
"134 257 CURVE SMOOTH",
"134 366 OFFCURVE",
"203 428 OFFCURVE",
"307 428 CURVE SMOOTH",
"408 428 OFFCURVE",
"470 370 OFFCURVE",
"470 250 CURVE SMOOTH"
);
}
);
};
layerId = "2FA1FBFC-6F11-4D64-BD63-0971E951FF9C";
name = "Nov 25 17, 11:25";
paths = (
{
closed = 1;
nodes = (
"438 84 LINE",
"438 -27 OFFCURVE",
"372 -93 OFFCURVE",
"259 -93 CURVE SMOOTH",
"166 -93 OFFCURVE",
"82 -53 OFFCURVE",
"64 0 CURVE",
"48 0 LINE",
"52 -124 OFFCURVE",
"140 -217 OFFCURVE",
"254 -217 CURVE SMOOTH",
"389 -217 OFFCURVE",
"472 -129 OFFCURVE",
"476 20 CURVE"
);
},
{
closed = 1;
nodes = (
"438 84 LINE",
"476 20 LINE",
"476 485 LINE",
"438 485 LINE"
);
},
{
closed = 1;
nodes = (
"369 -10 OFFCURVE",
"458 102 OFFCURVE",
"458 251 CURVE SMOOTH",
"458 390 OFFCURVE",
"368 495 OFFCURVE",
"247 495 CURVE SMOOTH",
"126 495 OFFCURVE",
"36 385 OFFCURVE",
"36 239 CURVE SMOOTH",
"36 97 OFFCURVE",
"128 -10 OFFCURVE",
"251 -10 CURVE SMOOTH"
);
},
{
closed = 1;
nodes = (
"146 132 OFFCURVE",
"68 179 OFFCURVE",
"68 241 CURVE SMOOTH",
"68 303 OFFCURVE",
"146 349 OFFCURVE",
"251 349 CURVE SMOOTH",
"356 349 OFFCURVE",
"434 303 OFFCURVE",
"434 241 CURVE SMOOTH",
"434 179 OFFCURVE",
"356 132 OFFCURVE",
"251 132 CURVE SMOOTH"
);
}
);
width = 532;
},
{
associatedMasterId = "73C3FB79-0E24-4863-9919-819B2F26AD09";
background = {
paths = (
{
closed = 1;
nodes = (
"379 -10 OFFCURVE",
"462 101 OFFCURVE",
"462 249 CURVE SMOOTH",
"462 390 OFFCURVE",
"370 495 OFFCURVE",
"247 495 CURVE SMOOTH",
"126 495 OFFCURVE",
"36 385 OFFCURVE",
"36 239 CURVE SMOOTH",
"36 97 OFFCURVE",
"130 -10 OFFCURVE",
"255 -10 CURVE SMOOTH"
);
},
{
closed = 1;
nodes = (
"146 132 OFFCURVE",
"68 179 OFFCURVE",
"68 241 CURVE SMOOTH",
"68 303 OFFCURVE",
"146 349 OFFCURVE",
"251 349 CURVE SMOOTH",
"356 349 OFFCURVE",
"434 303 OFFCURVE",
"434 241 CURVE SMOOTH",
"434 179 OFFCURVE",
"356 132 OFFCURVE",
"251 132 CURVE SMOOTH"
);
},
{
closed = 1;
nodes = (
"46 -125 OFFCURVE",
"139 -216 OFFCURVE",
"261 -216 CURVE SMOOTH",
"380 -216 OFFCURVE",
"472 -108 OFFCURVE",
"476 36 CURVE SMOOTH",
"476 485 LINE",
"438 485 LINE",
"438 60 LINE SMOOTH",
"438 -34 OFFCURVE",
"359 -104 OFFCURVE",
"253 -104 CURVE SMOOTH",
"165 -104 OFFCURVE",
"84 -61 OFFCURVE",
"64 -4 CURVE",
"44 -4 LINE"
);
}
);
};
layerId = "09437047-2BE1-4331-A7A3-B8FE88F5C5C2";
name = "Jan 18 19, 22:13";
paths = (
{
closed = 1;
nodes = (
"339 -8 OFFCURVE",
"404 37 OFFCURVE",
"432 101 CURVE",
"458 242 LINE",
"436 365 LINE",
"412 443 OFFCURVE",
"337 493 OFFCURVE",
"255 493 CURVE SMOOTH",
"129 493 OFFCURVE",
"40 388 OFFCURVE",
"40 242 CURVE SMOOTH",
"40 96 OFFCURVE",
"133 -8 OFFCURVE",
"263 -8 CURVE SMOOTH"
);
},
{
closed = 1;
nodes = (
"149 124 OFFCURVE",
"72 172 OFFCURVE",
"72 240 CURVE SMOOTH",
"72 308 OFFCURVE",
"149 355 OFFCURVE",
"255 355 CURVE SMOOTH",
"361 355 OFFCURVE",
"438 308 OFFCURVE",
"438 242 CURVE SMOOTH",
"438 174 OFFCURVE",
"361 124 OFFCURVE",
"255 124 CURVE SMOOTH"
);
},
{
closed = 1;
nodes = (
"72 -128 OFFCURVE",
"162 -214 OFFCURVE",
"277 -214 CURVE SMOOTH",
"391 -214 OFFCURVE",
"476 -112 OFFCURVE",
"476 24 CURVE SMOOTH",
"476 485 LINE",
"436 485 LINE",
"444 365 LINE",
"436 365 LINE",
"458 242 LINE",
"432 101 LINE",
"440 101 LINE",
"436 48 LINE SMOOTH",
"430 -38 OFFCURVE",
"360 -102 OFFCURVE",
"269 -102 CURVE SMOOTH",
"189 -102 OFFCURVE",
"112 -64 OFFCURVE",
"90 -14 CURVE",
"68 -14 LINE"
);
}
);
width = 536;
}
);
note = "Aggiustare coda";
unicode = 0067;
},
{
glyphname = h;
lastChange = "2019-03-21 21:53:54 +0000";
layers = (
{
background = {
hints = (
{
horizontal = 1;
place = "{349, 144}";
type = Stem;
},
{
place = "{64, 36}";
type = Stem;
},
{
place = "{438, 40}";
type = Stem;
}
);
paths = (
{
closed = 1;
nodes = (
"207 493 OFFCURVE",
"128 439 OFFCURVE",
"104 366 CURVE",
"96 366 LINE",
"104 750 LINE",
"64 750 LINE",
"64 0 LINE",
"104 0 LINE",
"104 239 LINE",
"108 301 OFFCURVE",
"180 349 OFFCURVE",
"273 349 CURVE SMOOTH",
"367 349 OFFCURVE",
"438 300 OFFCURVE",
"438 235 CURVE SMOOTH",
"438 0 LINE",
"478 0 LINE",
"478 243 LINE SMOOTH",
"478 386 OFFCURVE",
"397 493 OFFCURVE",
"289 493 CURVE SMOOTH"
);
}
);
};
guideLines = (
{
angle = 77;
position = "{343, 355}";
}
);
layerId = "C1951C01-2078-4DCF-9B04-F28136C23FC3";
paths = (
{
closed = 1;
nodes = (
"294 750 LINE",
"134 288 LINE",
"110 0 LINE",
"-16 0 LINE",
"130 324 LINE",
"166 750 LINE"
);
},
{
closed = 1;
nodes = (
"476 0 LINE",
"350 0 LINE",
"468 216 LINE",
"492 216 LINE"
);
},
{
closed = 1;
nodes = (
"111 228 LINE",
"130 381 OFFCURVE",
"247 495 OFFCURVE",
"385 495 CURVE SMOOTH",
"554 495 OFFCURVE",
"600 375 OFFCURVE",
"492 216 CURVE",
"468 216 LINE",
"508 295 OFFCURVE",
"455 355 OFFCURVE",
"343 355 CURVE SMOOTH",
"228 355 OFFCURVE",
"136 290 OFFCURVE",
"127 204 CURVE"
);
}
);
width = 576;
},
{
background = {
paths = (
{
closed = 1;
nodes = (
"478 0 LINE",
"438 0 LINE",
"438 235 LINE",
"478 243 LINE"
);
},
{
closed = 1;
nodes = (
"104 366 LINE",
"128 439 OFFCURVE",
"207 493 OFFCURVE",
"289 493 CURVE SMOOTH",
"397 493 OFFCURVE",
"478 386 OFFCURVE",
"478 243 CURVE",
"438 235 LINE",
"438 300 OFFCURVE",
"367 349 OFFCURVE",
"273 349 CURVE SMOOTH",
"180 349 OFFCURVE",
"108 301 OFFCURVE",
"104 239 CURVE"
);
},
{
closed = 1;
nodes = (
"104 750 LINE",
"96 366 LINE",
"104 366 LINE",
"104 0 LINE",
"64 0 LINE",
"64 750 LINE"
);
}
);
};
layerId = "73C3FB79-0E24-4863-9919-819B2F26AD09";
paths = (
{
closed = 1;
nodes = (
"478 0 LINE",
"438 0 LINE",
"438 235 LINE",
"478 243 LINE"
);
},
{
closed = 1;
nodes = (
"104 366 LINE",
"128 439 OFFCURVE",
"207 493 OFFCURVE",
"289 493 CURVE SMOOTH",
"397 493 OFFCURVE",
"478 386 OFFCURVE",
"478 243 CURVE",
"438 235 LINE",
"438 300 OFFCURVE",
"367 349 OFFCURVE",
"273 349 CURVE SMOOTH",
"180 349 OFFCURVE",
"108 301 OFFCURVE",
"104 239 CURVE"
);
},
{
closed = 1;
nodes = (
"104 750 LINE",
"96 366 LINE",
"104 366 LINE",
"104 0 LINE",
"64 0 LINE",
"64 750 LINE"
);
}
);
width = 526;
}
);
leftMetricsKey = l;
rightMetricsKey = n;
unicode = 0068;
},
{
glyphname = i;
lastChange = "2019-03-21 21:53:54 +0000";
layers = (
{
background = {
hints = (
{
horizontal = 1;
place = "{616, 98}";
type = Stem;
},
{
place = "{32, 96}";
type = Stem;
}
);
paths = (
{
closed = 1;
nodes = (
"107 616 OFFCURVE",
"128 637 OFFCURVE",
"128 665 CURVE SMOOTH",
"128 693 OFFCURVE",
"107 714 OFFCURVE",
"80 714 CURVE SMOOTH",
"53 714 OFFCURVE",
"32 693 OFFCURVE",
"32 665 CURVE SMOOTH",
"32 637 OFFCURVE",
"53 616 OFFCURVE",
"80 616 CURVE SMOOTH"
);
},
{
closed = 1;
nodes = (
"60 485 LINE",
"100 485 LINE",
"100 0 LINE",
"60 0 LINE"
);
}
);
};
guideLines = (
{
angle = 77;
position = "{110, 250}";
}
);
layerId = "C1951C01-2078-4DCF-9B04-F28136C23FC3";
paths = (
{
closed = 1;
nodes = (
"222 485 LINE",
"116 227 LINE",
"112 0 LINE",
"-8 0 LINE",
"100 259 LINE",
"104 485 LINE"
);
},
{
closed = 1;
nodes = (
"219 592 OFFCURVE",
"251 612 OFFCURVE",
"262 638 CURVE SMOOTH",
"281 683 OFFCURVE",
"262 716 OFFCURVE",
"216 716 CURVE SMOOTH",
"184 716 OFFCURVE",
"152 696 OFFCURVE",
"141 670 CURVE SMOOTH",
"122 625 OFFCURVE",
"141 592 OFFCURVE",
"187 592 CURVE SMOOTH"
);
}
);
width = 216;
},
{
background = {
paths = (
{
closed = 1;
nodes = (
"100 485 LINE",
"100 0 LINE",
"60 0 LINE",
"60 485 LINE"
);
},
{
closed = 1;
nodes = (
"107 616 OFFCURVE",
"128 637 OFFCURVE",
"128 665 CURVE SMOOTH",
"128 693 OFFCURVE",
"107 714 OFFCURVE",
"80 714 CURVE SMOOTH",
"53 714 OFFCURVE",
"32 693 OFFCURVE",
"32 665 CURVE SMOOTH",
"32 637 OFFCURVE",
"53 616 OFFCURVE",
"80 616 CURVE SMOOTH"
);
}
);
};
layerId = "73C3FB79-0E24-4863-9919-819B2F26AD09";
paths = (
{
closed = 1;
nodes = (
"100 485 LINE",
"100 0 LINE",
"60 0 LINE",
"60 485 LINE"
);
},
{
closed = 1;
nodes = (
"107 616 OFFCURVE",
"128 637 OFFCURVE",
"128 665 CURVE SMOOTH",
"128 693 OFFCURVE",
"107 714 OFFCURVE",
"80 714 CURVE SMOOTH",
"53 714 OFFCURVE",
"32 693 OFFCURVE",
"32 665 CURVE SMOOTH",
"32 637 OFFCURVE",
"53 616 OFFCURVE",
"80 616 CURVE SMOOTH"
);
}
);
width = 160;
}
);
unicode = 0069;
},
{
glyphname = j;
lastChange = "2019-03-21 21:53:54 +0000";
layers = (
{
background = {
hints = (
{
horizontal = 1;
place = "{-214, 140}";
type = Stem;
},
{
horizontal = 1;
place = "{616, 98}";
type = Stem;
},
{
place = "{58, 96}";
type = Stem;
},
{
place = "{86, 40}";
type = Stem;
}
);
paths = (
{
closed = 1;
nodes = (
"133 616 OFFCURVE",
"154 637 OFFCURVE",
"154 665 CURVE SMOOTH",
"154 693 OFFCURVE",
"133 714 OFFCURVE",
"106 714 CURVE SMOOTH",
"79 714 OFFCURVE",
"58 693 OFFCURVE",
"58 665 CURVE SMOOTH",
"58 637 OFFCURVE",
"79 616 OFFCURVE",
"106 616 CURVE SMOOTH"
);
},
{
closed = 1;
nodes = (
"-28 -214 LINE",
"60 -214 OFFCURVE",
"126 -126 OFFCURVE",
"126 -8 CURVE SMOOTH",
"126 485 LINE",
"86 485 LINE",
"86 8 LINE SMOOTH",
"86 -39 OFFCURVE",
"38 -74 OFFCURVE",
"-26 -74 CURVE"
);
}
);
};
guideLines = (
{
angle = 77;
position = "{79, 89}";
}
);
layerId = "C1951C01-2078-4DCF-9B04-F28136C23FC3";
paths = (
{
closed = 1;
nodes = (
"230 485 LINE",
"90 76 LINE",
"70 108 LINE",
"112 485 LINE"
);
},
{
closed = 1;
nodes = (
"-133 -217 LINE",
"15 -217 OFFCURVE",
"98 -108 OFFCURVE",
"90 76 CURVE",
"70 108 LINE",
"57 -6 OFFCURVE",
"-6 -73 OFFCURVE",
"-100 -73 CURVE"
);
},
{
closed = 1;
nodes = (
"225 592 OFFCURVE",
"257 612 OFFCURVE",
"268 638 CURVE SMOOTH",
"287 683 OFFCURVE",
"268 716 OFFCURVE",
"222 716 CURVE SMOOTH",
"190 716 OFFCURVE",
"158 696 OFFCURVE",
"147 670 CURVE SMOOTH",
"128 625 OFFCURVE",
"147 592 OFFCURVE",
"193 592 CURVE SMOOTH"
);
}
);
width = 222;
},
{
background = {
paths = (
{
closed = 1;
nodes = (
"133 616 OFFCURVE",
"154 637 OFFCURVE",
"154 665 CURVE SMOOTH",
"154 693 OFFCURVE",
"133 714 OFFCURVE",
"106 714 CURVE SMOOTH",
"79 714 OFFCURVE",
"58 693 OFFCURVE",
"58 665 CURVE SMOOTH",
"58 637 OFFCURVE",
"79 616 OFFCURVE",
"106 616 CURVE SMOOTH"
);
},
{
closed = 1;
nodes = (
"60 -214 OFFCURVE",
"126 -126 OFFCURVE",
"126 -8 CURVE SMOOTH",
"126 485 LINE",
"86 485 LINE",
"86 8 LINE SMOOTH",
"86 -39 OFFCURVE",
"38 -74 OFFCURVE",
"-26 -74 CURVE",
"-28 -214 LINE"
);
}
);
};
layerId = "73C3FB79-0E24-4863-9919-819B2F26AD09";
paths = (
{
closed = 1;
nodes = (
"133 616 OFFCURVE",
"154 637 OFFCURVE",
"154 665 CURVE SMOOTH",
"154 693 OFFCURVE",
"133 714 OFFCURVE",
"106 714 CURVE SMOOTH",
"79 714 OFFCURVE",
"58 693 OFFCURVE",
"58 665 CURVE SMOOTH",
"58 637 OFFCURVE",
"79 616 OFFCURVE",
"106 616 CURVE SMOOTH"
);
},
{
closed = 1;
nodes = (
"60 -214 OFFCURVE",
"126 -126 OFFCURVE",
"126 -8 CURVE SMOOTH",
"126 485 LINE",
"86 485 LINE",
"86 8 LINE SMOOTH",
"86 -39 OFFCURVE",
"38 -74 OFFCURVE",
"-26 -74 CURVE",
"-28 -214 LINE"
);
}
);
width = 186;
},
{
associatedMasterId = "73C3FB79-0E24-4863-9919-819B2F26AD09";
background = {
paths = (
{
closed = 1;
nodes = (
"-81 -209 LINE",
"-60 -213 OFFCURVE",
"-34 -215 OFFCURVE",
"-18 -215 CURVE SMOOTH",
"59 -215 OFFCURVE",
"102 -189 OFFCURVE",
"123 -138 CURVE SMOOTH",
"134 -111 OFFCURVE",
"137 -75 OFFCURVE",
"137 -33 CURVE SMOOTH",
"137 489 LINE",
"63 489 LINE",
"63 -28 LINE SMOOTH",
"63 -64 OFFCURVE",
"62 -93 OFFCURVE",
"54 -113 CURVE SMOOTH",
"42 -141 OFFCURVE",
"18 -155 OFFCURVE",
"-28 -155 CURVE SMOOTH",
"-45 -155 OFFCURVE",
"-64 -152 OFFCURVE",
"-81 -147 CURVE"
);
},
{
closed = 1;
nodes = (
"140 620 LINE",
"140 706 LINE",
"60 706 LINE",
"60 620 LINE"
);
}
);
};
layerId = "6D5DB3C1-6654-47D5-8296-6EC4F513D517";
name = "Mar 22 17, 16:45";
paths = (
{
closed = 1;
nodes = (
"270 0 LINE",
"226 0 LINE",
"226 485 LINE",
"270 485 LINE"
);
},
{
closed = 1;
nodes = (
"64 -81 OFFCURVE",
"97 -93 OFFCURVE",
"130 -93 CURVE",
"185 -93 OFFCURVE",
"226 -53 OFFCURVE",
"226 0 CURVE",
"270 0 LINE",
"270 -124 OFFCURVE",
"215 -217 OFFCURVE",
"142 -217 CURVE",
"68 -217 OFFCURVE",
"12 -151 OFFCURVE",
"12 -64 CURVE",
"52 -64 LINE"
);
},
{
closed = 1;
nodes = (
"275 606 OFFCURVE",
"295 627 OFFCURVE",
"295 656 CURVE SMOOTH",
"295 686 OFFCURVE",
"275 707 OFFCURVE",
"248 706 CURVE SMOOTH",
"221 705 OFFCURVE",
"201 684 OFFCURVE",
"201 656 CURVE SMOOTH",
"201 627 OFFCURVE",
"221 606 OFFCURVE",
"248 606 CURVE SMOOTH"
);
}
);
width = 326;
},
{
associatedMasterId = "73C3FB79-0E24-4863-9919-819B2F26AD09";
background = {
paths = (
{
closed = 1;
nodes = (
"-226 -209 LINE",
"-205 -213 OFFCURVE",
"-179 -215 OFFCURVE",
"-163 -215 CURVE SMOOTH",
"-86 -215 OFFCURVE",
"-43 -189 OFFCURVE",
"-22 -138 CURVE SMOOTH",
"-11 -111 OFFCURVE",
"-8 -75 OFFCURVE",
"-8 -33 CURVE SMOOTH",
"-8 489 LINE",
"-82 489 LINE",
"-82 -28 LINE SMOOTH",
"-82 -64 OFFCURVE",
"-83 -93 OFFCURVE",
"-91 -113 CURVE SMOOTH",
"-103 -141 OFFCURVE",
"-127 -155 OFFCURVE",
"-173 -155 CURVE SMOOTH",
"-190 -155 OFFCURVE",
"-209 -152 OFFCURVE",
"-226 -147 CURVE"
);
},
{
closed = 1;
nodes = (
"-5 620 LINE",
"-5 706 LINE",
"-85 706 LINE",
"-85 620 LINE"
);
}
);
};
layerId = "8CDA16E8-22AB-4345-AE10-06D4C81B5D07";
name = "Mar 22 17, 16:45";
paths = (
{
closed = 1;
nodes = (
"125 -206 LINE",
"81 -206 LINE",
"81 485 LINE",
"125 485 LINE"
);
},
{
closed = 1;
nodes = (
"130 606 OFFCURVE",
"150 627 OFFCURVE",
"150 656 CURVE SMOOTH",
"150 686 OFFCURVE",
"130 707 OFFCURVE",
"103 706 CURVE SMOOTH",
"76 705 OFFCURVE",
"56 684 OFFCURVE",
"56 656 CURVE SMOOTH",
"56 627 OFFCURVE",
"76 606 OFFCURVE",
"103 606 CURVE SMOOTH"
);
}
);
width = 206;
}
);
rightMetricsKey = i;
unicode = 006A;
},
{
glyphname = k;
lastChange = "2019-03-21 23:57:45 +0000";
layers = (
{
background = {
hints = (
{
horizontal = 1;
place = "{-1, 751}";
type = Stem;
},
{
place = "{64, 40}";
type = Stem;
}
);
paths = (
{
closed = 1;
nodes = (
"486 -1 LINE",
"266 310 LINE",
"468 485 LINE",
"406 485 LINE",
"106 229 LINE",
"106 750 LINE",
"66 750 LINE",
"66 0 LINE",
"106 0 LINE",
"106 171 LINE",
"154 213 LINE",
"302 -1 LINE"
);
}
);
};
guideLines = (
{
angle = 77;
position = "{264, 256}";
}
);
layerId = "C1951C01-2078-4DCF-9B04-F28136C23FC3";
paths = (
{
closed = 1;
nodes = (
"354 237 LINE",
"448 0 LINE",
"318 0 LINE",
"310 237 LINE"
);
},
{
closed = 1;
nodes = (
"130 312 LINE",
"160 750 LINE",
"284 750 LINE",
"157 369 LINE",
"165 369 LINE",
"209 447 OFFCURVE",
"280 495 OFFCURVE",
"366 495 CURVE SMOOTH",
"458 495 OFFCURVE",
"526 439 OFFCURVE",
"526 361 CURVE SMOOTH",
"526 273 OFFCURVE",
"448 213 OFFCURVE",
"338 213 CURVE",
"326 237 LINE",
"398 237 OFFCURVE",
"446 260 OFFCURVE",
"446 296 CURVE SMOOTH",
"446 332 OFFCURVE",
"394 359 OFFCURVE",
"322 359 CURVE SMOOTH",
"216 359 OFFCURVE",
"134 293 OFFCURVE",
"127 201 CURVE SMOOTH",
"112 0 LINE",
"-16 0 LINE"
);
}
);
width = 534;
},
{
background = {
paths = (
{
closed = 1;
nodes = (
"104 750 LINE",
"104 0 LINE",
"64 0 LINE",
"64 750 LINE"
);
},
{
closed = 1;
nodes = (
"104 171 LINE",
"104 229 LINE",
"404 485 LINE",
"466 485 LINE"
);
},
{
closed = 1;
nodes = (
"484 -1 LINE",
"300 -1 LINE",
"151 215 LINE",
"263 311 LINE"
);
}
);
};
layerId = "73C3FB79-0E24-4863-9919-819B2F26AD09";
paths = (
{
closed = 1;
nodes = (
"104 750 LINE",
"104 0 LINE",
"64 0 LINE",
"64 750 LINE"
);
},
{
closed = 1;
nodes = (
"104 171 LINE",
"104 229 LINE",
"404 485 LINE",
"466 485 LINE"
);
},
{
closed = 1;
nodes = (
"484 -1 LINE",
"300 -1 LINE",
"151 215 LINE",
"263 311 LINE"
);
}
);
width = 486;
},
{
associatedMasterId = "C1951C01-2078-4DCF-9B04-F28136C23FC3";
background = {
paths = (
{
closed = 1;
nodes = (
"101 0 LINE",
"134 153 LINE",
"281 254 LINE",
"442 0 LINE",
"527 0 LINE",
"338 296 LINE",
"589 485 LINE",
"488 485 LINE",
"151 234 LINE",
"255 706 LINE",
"183 706 LINE",
"28 0 LINE"
);
}
);
};
layerId = "ED453FDD-CAEC-449A-B1C4-C4387C338D36";
name = "Mar 28 17, 19:55";
paths = (
{
closed = 1;
nodes = (
"127 358 LINE",
"-5 0 LINE",
"175 0 LINE",
"175 400 LINE",
"303 750 LINE",
"127 750 LINE"
);
},
{
closed = 1;
nodes = (
"240 308 LINE",
"169 265 LINE",
"169 181 LINE",
"294 315 LINE",
"532 485 LINE",
"420 485 LINE"
);
},
{
closed = 1;
nodes = (
"311 0 LINE",
"491 0 LINE",
"294 315 LINE",
"230 267 LINE"
);
}
);
width = 517;
},
{
associatedMasterId = "C1951C01-2078-4DCF-9B04-F28136C23FC3";
background = {
paths = (
{
closed = 1;
nodes = (
"101 0 LINE",
"134 153 LINE",
"281 254 LINE",
"442 0 LINE",
"527 0 LINE",
"338 296 LINE",
"589 485 LINE",
"488 485 LINE",
"151 234 LINE",
"255 706 LINE",
"183 706 LINE",
"28 0 LINE"
);
}
);
};
layerId = "1DCDAABA-E9A0-4F3D-A5DF-7E20171F1785";
name = "Mar 28 17, 20:05";
paths = (
{
closed = 1;
nodes = (
"97 358 LINE",
"-35 0 LINE",
"145 0 LINE",
"145 400 LINE",
"273 750 LINE",
"97 750 LINE"
);
},
{
closed = 1;
nodes = (
"210 308 LINE",
"139 265 LINE",
"139 181 LINE",
"264 315 LINE",
"502 485 LINE",
"390 485 LINE"
);
},
{
closed = 1;
nodes = (
"281 0 LINE",
"461 0 LINE",
"264 315 LINE",
"200 267 LINE"
);
}
);
width = 517;
},
{
associatedMasterId = "C1951C01-2078-4DCF-9B04-F28136C23FC3";
background = {
paths = (
{
closed = 1;
nodes = (
"101 0 LINE",
"134 153 LINE",
"281 254 LINE",
"442 0 LINE",
"527 0 LINE",
"338 296 LINE",
"589 485 LINE",
"488 485 LINE",
"151 234 LINE",
"255 706 LINE",
"183 706 LINE",
"28 0 LINE"
);
}
);
};
layerId = "298FCED2-5BB8-4C2F-B02E-EA772C69341F";
name = "Mar 28 17, 20:26";
paths = (
{
closed = 1;
nodes = (
"115 330 LINE",
"-27 0 LINE",
"175 0 LINE",
"175 384 LINE",
"297 750 LINE",
"117 750 LINE"
);
},
{
closed = 1;
nodes = (
"175 266 LINE",
"175 321 OFFCURVE",
"240 363 OFFCURVE",
"327 363 CURVE SMOOTH",
"410 363 OFFCURVE",
"416 289 OFFCURVE",
"350 264 CURVE",
"363 234 LINE",
"513 297 OFFCURVE",
"549 496 OFFCURVE",
"343 495 CURVE SMOOTH",
"231 494 OFFCURVE",
"147 396 OFFCURVE",
"147 266 CURVE"
);
},
{
closed = 1;
nodes = (
"293 0 LINE",
"473 0 LINE",
"350 264 LINE",
"293 243 LINE"
);
}
);
width = 517;
},
{
associatedMasterId = "C1951C01-2078-4DCF-9B04-F28136C23FC3";
background = {
paths = (
{
closed = 1;
nodes = (
"70 0 LINE",
"103 153 LINE",
"250 254 LINE",
"411 0 LINE",
"496 0 LINE",
"307 296 LINE",
"558 485 LINE",
"457 485 LINE",
"120 234 LINE",
"224 706 LINE",
"152 706 LINE",
"-3 0 LINE"
);
}
);
};
layerId = "B40A1B25-635D-448C-BEE5-E07F958693B3";
name = "Mar 29 17, 19:29";
paths = (
{
closed = 1;
nodes = (
"275 750 LINE",
"136 372 LINE",
"105 0 LINE",
"-45 0 LINE",
"84 324 LINE",
"127 750 LINE"
);
},
{
closed = 1;
nodes = (
"331 246 LINE",
"383 254 OFFCURVE",
"422 280 OFFCURVE",
"422 307 CURVE SMOOTH",
"422 334 OFFCURVE",
"376 354 OFFCURVE",
"314 354 CURVE SMOOTH",
"206 354 OFFCURVE",
"125 315 OFFCURVE",
"125 264 CURVE",
"101 264 LINE",
"100 397 OFFCURVE",
"211 496 OFFCURVE",
"361 496 CURVE SMOOTH",
"441 496 OFFCURVE",
"501 447 OFFCURVE",
"501 381 CURVE SMOOTH",
"501 302 OFFCURVE",
"432 231 OFFCURVE",
"341 215 CURVE"
);
},
{
closed = 1;
nodes = (
"331 246 LINE",
"430 0 LINE",
"280 0 LINE",
"272 238 LINE"
);
}
);
width = 496;
},
{
associatedMasterId = "C1951C01-2078-4DCF-9B04-F28136C23FC3";
background = {
paths = (
{
closed = 1;
nodes = (
"484 -1 LINE",
"264 310 LINE",
"466 485 LINE",
"404 485 LINE",
"104 229 LINE",
"104 750 LINE",
"64 750 LINE",
"64 0 LINE",
"104 0 LINE",
"104 171 LINE",
"152 213 LINE",
"300 -1 LINE"
);
}
);
};
guideLines = (
{
angle = 77;
position = "{262, 256}";
}
);
layerId = "BDD0EEDA-2707-4C1B-BBDE-E1B55A5A2F15";
name = "Mar 22 19, 00:55";
paths = (
{
closed = 1;
nodes = (
"282 750 LINE",
"132 288 LINE",
"110 0 LINE",
"-14 0 LINE",
"128 312 LINE",
"158 750 LINE"
);
},
{
closed = 1;
nodes = (
"117 244 LINE",
"133 387 OFFCURVE",
"239 495 OFFCURVE",
"364 495 CURVE SMOOTH",
"455 495 OFFCURVE",
"524 438 OFFCURVE",
"524 361 CURVE SMOOTH",
"524 276 OFFCURVE",
"443 213 OFFCURVE",
"336 213 CURVE",
"324 237 LINE",
"393 237 OFFCURVE",
"444 262 OFFCURVE",
"444 296 CURVE SMOOTH",
"444 332 OFFCURVE",
"391 359 OFFCURVE",
"320 359 CURVE SMOOTH",
"219 359 OFFCURVE",
"135 289 OFFCURVE",
"125 198 CURVE"
);
},
{
closed = 1;
nodes = (
"352 237 LINE",
"446 0 LINE",
"316 0 LINE",
"308 237 LINE"
);
}
);
width = 532;
}
);
leftMetricsKey = l;
unicode = 006B;
},
{
glyphname = l;
lastChange = "2019-03-21 21:53:54 +0000";
layers = (
{
background = {
hints = (
{
horizontal = 1;
place = "{0, 750}";
type = Stem;
},
{
place = "{64, 40}";
type = Stem;
}
);
paths = (
{
closed = 1;
nodes = (
"64 750 LINE",
"104 750 LINE",
"104 0 LINE",
"64 0 LINE"
);
}
);
};
layerId = "C1951C01-2078-4DCF-9B04-F28136C23FC3";
paths = (
{
closed = 1;
nodes = (
"285 750 LINE",
"145 357 LINE",
"119 0 LINE",
"-11 0 LINE",
"129 393 LINE",
"157 750 LINE"
);
}
);
width = 215;
},
{
background = {
paths = (
{
closed = 1;
nodes = (
"104 750 LINE",
"104 0 LINE",
"64 0 LINE",
"64 750 LINE"
);
}
);
};
layerId = "73C3FB79-0E24-4863-9919-819B2F26AD09";
paths = (
{
closed = 1;
nodes = (
"104 750 LINE",
"104 0 LINE",
"64 0 LINE",
"64 750 LINE"
);
}
);
width = 168;
},
{
associatedMasterId = "C1951C01-2078-4DCF-9B04-F28136C23FC3";
background = {
paths = (
{
closed = 1;
nodes = (
"-27 0 LINE",
"128 706 LINE",
"55 706 LINE",
"-100 0 LINE"
);
}
);
};
layerId = "5FC00F14-87E5-4DE3-905F-85371FB9A72A";
name = "Mar 28 17, 19:38";
paths = (
{
closed = 1;
nodes = (
"127 358 LINE",
"-9 0 LINE",
"175 0 LINE",
"175 400 LINE",
"307 750 LINE",
"127 750 LINE"
);
}
);
width = 241;
},
{
associatedMasterId = "C1951C01-2078-4DCF-9B04-F28136C23FC3";
background = {
paths = (
{
closed = 1;
nodes = (
"-27 0 LINE",
"128 706 LINE",
"55 706 LINE",
"-100 0 LINE"
);
}
);
};
layerId = "E5DBFE17-3B70-4CAB-B0BD-8744FE8DA64C";
name = "Mar 28 17, 19:39";
paths = (
{
closed = 1;
nodes = (
"127 333 LINE",
"24 0 LINE",
"104 0 LINE",
"175 425 LINE",
"275 750 LINE",
"199 750 LINE"
);
}
);
width = 240;
}
);
unicode = 006C;
},
{
glyphname = m;
lastChange = "2019-03-21 21:53:54 +0000";
layers = (
{
background = {
hints = (
{
horizontal = 1;
place = "{349, 144}";
type = Stem;
},
{
place = "{60, 40}";
type = Stem;
},
{
place = "{382, 38}";
type = Stem;
},
{
place = "{694, 38}";
type = Stem;
}
);
paths = (
{
closed = 1;
nodes = (
"501 493 OFFCURVE",
"433 436 OFFCURVE",
"413 358 CURVE",
"405 358 LINE",
"380 441 OFFCURVE",
"325 493 OFFCURVE",
"255 493 CURVE SMOOTH",
"187 493 OFFCURVE",
"124 442 OFFCURVE",
"100 366 CURVE",
"92 366 LINE",
"100 485 LINE",
"60 485 LINE",
"60 0 LINE",
"100 0 LINE",
"100 251 LINE",
"104 315 OFFCURVE",
"163 349 OFFCURVE",
"243 349 CURVE SMOOTH",
"323 349 OFFCURVE",
"382 311 OFFCURVE",
"382 247 CURVE SMOOTH",
"382 0 LINE",
"420 0 LINE",
"420 247 LINE",
"424 315 OFFCURVE",
"485 349 OFFCURVE",
"561 349 CURVE SMOOTH",
"641 349 OFFCURVE",
"694 309 OFFCURVE",
"694 243 CURVE SMOOTH",
"694 0 LINE",
"732 0 LINE",
"732 247 LINE SMOOTH",
"732 393 OFFCURVE",
"665 493 OFFCURVE",
"569 493 CURVE SMOOTH"
);
}
);
};
guideLines = (
{
angle = 77;
position = "{104, 485}";
}
);
layerId = "C1951C01-2078-4DCF-9B04-F28136C23FC3";
paths = (
{
closed = 1;
nodes = (
"454 0 LINE",
"330 0 LINE",
"436 216 LINE",
"464 216 LINE"
);
},
{
closed = 1;
nodes = (
"105 232 LINE",
"124 382 OFFCURVE",
"245 493 OFFCURVE",
"373 493 CURVE SMOOTH",
"473 493 OFFCURVE",
"525 447 OFFCURVE",
"525 374 CURVE SMOOTH",
"525 330 OFFCURVE",
"464 276 OFFCURVE",
"464 216 CURVE",
"436 216 LINE",
"467 294 OFFCURVE",
"420 353 OFFCURVE",
"325 353 CURVE SMOOTH",
"212 353 OFFCURVE",
"125 283 OFFCURVE",
"121 200 CURVE"
);
},
{
closed = 1;
nodes = (
"794 0 LINE",
"670 0 LINE",
"784 216 LINE",
"808 216 LINE"
);
},
{
closed = 1;
nodes = (
"448 252 LINE",
"469 390 OFFCURVE",
"581 493 OFFCURVE",
"709 493 CURVE SMOOTH",
"874 493 OFFCURVE",
"916 374 OFFCURVE",
"808 216 CURVE",
"784 216 LINE",
"819 294 OFFCURVE",
"768 355 OFFCURVE",
"665 355 CURVE SMOOTH",
"555 355 OFFCURVE",
"469 294 OFFCURVE",
"464 216 CURVE"
);
},
{
closed = 1;
nodes = (
"218 485 LINE",
"166 389 LINE",
"170 387 LINE",
"122 260 LINE",
"118 0 LINE",
"-6 0 LINE",
"100 224 LINE",
"104 485 LINE"
);
}
);
width = 894;
},
{
background = {
paths = (
{
closed = 1;
nodes = (
"420 0 LINE",
"382 0 LINE",
"382 247 LINE",
"420 251 LINE"
);
},
{
closed = 1;
nodes = (
"732 0 LINE",
"694 0 LINE",
"694 243 LINE",
"732 247 LINE"
);
},
{
closed = 1;
nodes = (
"100 366 LINE",
"124 442 OFFCURVE",
"187 493 OFFCURVE",
"255 493 CURVE SMOOTH",
"351 493 OFFCURVE",
"420 394 OFFCURVE",
"420 251 CURVE",
"382 247 LINE",
"382 311 OFFCURVE",
"323 349 OFFCURVE",
"243 349 CURVE SMOOTH",
"163 349 OFFCURVE",
"104 315 OFFCURVE",
"100 251 CURVE"
);
},
{
closed = 1;
nodes = (
"100 485 LINE",
"92 366 LINE",
"100 366 LINE",
"100 0 LINE",
"60 0 LINE",
"60 485 LINE"
);
},
{
closed = 1;
nodes = (
"405 358 LINE",
"413 358 LINE",
"433 436 OFFCURVE",
"501 493 OFFCURVE",
"569 493 CURVE SMOOTH",
"665 493 OFFCURVE",
"732 393 OFFCURVE",
"732 247 CURVE",
"694 243 LINE",
"694 309 OFFCURVE",
"641 349 OFFCURVE",
"561 349 CURVE SMOOTH",
"485 349 OFFCURVE",
"424 315 OFFCURVE",
"420 247 CURVE"
);
}
);
};
layerId = "73C3FB79-0E24-4863-9919-819B2F26AD09";
paths = (
{
closed = 1;
nodes = (
"420 0 LINE",
"382 0 LINE",
"382 247 LINE",
"420 251 LINE"
);
},
{
closed = 1;
nodes = (
"732 0 LINE",
"694 0 LINE",
"694 243 LINE",
"732 247 LINE"
);
},
{
closed = 1;
nodes = (
"100 366 LINE",
"124 442 OFFCURVE",
"187 493 OFFCURVE",
"255 493 CURVE SMOOTH",
"351 493 OFFCURVE",
"420 394 OFFCURVE",
"420 251 CURVE",
"382 247 LINE",
"382 311 OFFCURVE",
"323 349 OFFCURVE",
"243 349 CURVE SMOOTH",
"163 349 OFFCURVE",
"104 315 OFFCURVE",
"100 251 CURVE"
);
},
{
closed = 1;
nodes = (
"100 485 LINE",
"92 366 LINE",
"100 366 LINE",
"100 0 LINE",
"60 0 LINE",
"60 485 LINE"
);
},
{
closed = 1;
nodes = (
"405 358 LINE",
"413 358 LINE",
"433 436 OFFCURVE",
"501 493 OFFCURVE",
"569 493 CURVE SMOOTH",
"665 493 OFFCURVE",
"732 393 OFFCURVE",
"732 247 CURVE",
"694 243 LINE",
"694 309 OFFCURVE",
"641 349 OFFCURVE",
"561 349 CURVE SMOOTH",
"485 349 OFFCURVE",
"424 315 OFFCURVE",
"420 247 CURVE"
);
}
);
width = 780;
}
);
leftMetricsKey = n;
rightMetricsKey = n;
unicode = 006D;
},
{
glyphname = n;
lastChange = "2019-03-21 21:53:54 +0000";
layers = (
{
background = {
hints = (
{
horizontal = 1;
place = "{349, 144}";
type = Stem;
},
{
place = "{60, 40}";
type = Stem;
},
{
place = "{434, 40}";
type = Stem;
}
);
paths = (
{
closed = 1;
nodes = (
"474 243 LINE",
"474 386 OFFCURVE",
"391 493 OFFCURVE",
"283 493 CURVE SMOOTH",
"201 493 OFFCURVE",
"124 445 OFFCURVE",
"100 365 CURVE",
"92 365 LINE",
"100 485 LINE",
"60 485 LINE",
"60 0 LINE",
"100 0 LINE",
"100 239 LINE",
"104 301 OFFCURVE",
"178 349 OFFCURVE",
"271 349 CURVE SMOOTH",
"365 349 OFFCURVE",
"434 300 OFFCURVE",
"434 235 CURVE SMOOTH",
"435 0 LINE",
"475 0 LINE"
);
}
);
};
guideLines = (
{
angle = 77;
position = "{341, 355}";
}
);
layerId = "C1951C01-2078-4DCF-9B04-F28136C23FC3";
paths = (
{
closed = 1;
nodes = (
"486 0 LINE",
"362 0 LINE",
"478 216 LINE",
"502 216 LINE"
);
},
{
closed = 1;
nodes = (
"105 232 LINE",
"124 382 OFFCURVE",
"245 495 OFFCURVE",
"387 495 CURVE SMOOTH",
"560 495 OFFCURVE",
"609 375 OFFCURVE",
"502 216 CURVE",
"478 216 LINE",
"518 295 OFFCURVE",
"459 355 OFFCURVE",
"341 355 CURVE SMOOTH",
"220 355 OFFCURVE",
"125 289 OFFCURVE",
"121 200 CURVE"
);
},
{
closed = 1;
nodes = (
"218 485 LINE",
"166 389 LINE",
"170 387 LINE",
"122 260 LINE",
"118 0 LINE",
"-6 0 LINE",
"100 224 LINE",
"104 485 LINE"
);
}
);
width = 586;
},
{
background = {
paths = (
{
closed = 1;
nodes = (
"475 0 LINE",
"435 0 LINE",
"434 235 LINE",
"474 243 LINE"
);
},
{
closed = 1;
nodes = (
"100 365 LINE",
"124 445 OFFCURVE",
"201 493 OFFCURVE",
"283 493 CURVE SMOOTH",
"391 493 OFFCURVE",
"474 386 OFFCURVE",
"474 243 CURVE",
"434 235 LINE",
"434 300 OFFCURVE",
"365 349 OFFCURVE",
"271 349 CURVE SMOOTH",
"178 349 OFFCURVE",
"104 301 OFFCURVE",
"100 239 CURVE"
);
},
{
closed = 1;
nodes = (
"100 485 LINE",
"92 365 LINE",
"100 365 LINE",
"100 0 LINE",
"60 0 LINE",
"60 485 LINE"
);
}
);
};
layerId = "73C3FB79-0E24-4863-9919-819B2F26AD09";
paths = (
{
closed = 1;
nodes = (
"475 0 LINE",
"435 0 LINE",
"434 235 LINE",
"474 243 LINE"
);
},
{
closed = 1;
nodes = (
"100 365 LINE",
"124 445 OFFCURVE",
"201 493 OFFCURVE",
"283 493 CURVE SMOOTH",
"391 493 OFFCURVE",
"474 386 OFFCURVE",
"474 243 CURVE",
"434 235 LINE",
"434 300 OFFCURVE",
"365 349 OFFCURVE",
"271 349 CURVE SMOOTH",
"178 349 OFFCURVE",
"104 301 OFFCURVE",
"100 239 CURVE"
);
},
{
closed = 1;
nodes = (
"100 485 LINE",
"92 365 LINE",
"100 365 LINE",
"100 0 LINE",
"60 0 LINE",
"60 485 LINE"
);
}
);
width = 523;
},
{
associatedMasterId = "C1951C01-2078-4DCF-9B04-F28136C23FC3";
layerId = "E6AD55CE-7B1D-4A6D-8178-91F6B820CB7E";
name = "Mar 15 17, 19:32";
paths = (
{
closed = 1;
nodes = (
"638 0 LINE",
"464 0 LINE",
"596 216 LINE",
"638 216 LINE"
);
},
{
closed = 1;
nodes = (
"176 284 LINE",
"250 426 OFFCURVE",
"390 510 OFFCURVE",
"552 510 CURVE",
"759 510 OFFCURVE",
"791 401 OFFCURVE",
"638 216 CURVE",
"596 216 LINE",
"636 298 OFFCURVE",
"606 346 OFFCURVE",
"516 346 CURVE",
"317 346 OFFCURVE",
"200 280 OFFCURVE",
"200 168 CURVE"
);
},
{
closed = 1;
nodes = (
"332 500 LINE",
"200 300 LINE",
"200 0 LINE",
"32 0 LINE",
"164 240 LINE",
"164 500 LINE"
);
}
);
width = 798;
},
{
associatedMasterId = "73C3FB79-0E24-4863-9919-819B2F26AD09";
background = {
paths = (
{
closed = 1;
nodes = (
"162 0 LINE",
"162 258 LINE SMOOTH",
"162 304 OFFCURVE",
"170 337 OFFCURVE",
"205 372 CURVE SMOOTH",
"238 406 OFFCURVE",
"293 420 OFFCURVE",
"335 420 CURVE SMOOTH",
"378 420 OFFCURVE",
"419 411 OFFCURVE",
"439 390 CURVE SMOOTH",
"460 369 OFFCURVE",
"470 338 OFFCURVE",
"470 285 CURVE SMOOTH",
"470 0 LINE",
"566 0 LINE",
"566 303 LINE SMOOTH",
"566 380 OFFCURVE",
"552 420 OFFCURVE",
"527 448 CURVE SMOOTH",
"493 485 OFFCURVE",
"439 502 OFFCURVE",
"371 502 CURVE SMOOTH",
"275 502 OFFCURVE",
"199 461 OFFCURVE",
"160 403 CURVE",
"160 492 LINE",
"67 492 LINE",
"67 0 LINE"
);
}
);
};
layerId = "C6D721C1-BD6C-4C86-91B6-014FD63B39E9";
name = "Dec 3 17, 22:46";
paths = (
{
closed = 1;
nodes = (
"464 0 LINE",
"426 0 LINE",
"426 240 LINE",
"464 240 LINE"
);
},
{
closed = 1;
nodes = (
"74 352 LINE",
"86 433 OFFCURVE",
"191 493 OFFCURVE",
"283 493 CURVE SMOOTH",
"397 493 OFFCURVE",
"464 399 OFFCURVE",
"464 240 CURVE",
"426 240 LINE",
"426 302 OFFCURVE",
"356 339 OFFCURVE",
"271 339 CURVE SMOOTH",
"180 339 OFFCURVE",
"106 298 OFFCURVE",
"94 244 CURVE"
);
},
{
closed = 1;
nodes = (
"94 485 LINE",
"94 0 LINE",
"56 0 LINE",
"56 485 LINE"
);
}
);
width = 516;
}
);
unicode = 006E;
},
{
glyphname = o;
lastChange = "2019-03-21 21:53:54 +0000";
layers = (
{
background = {
hints = (
{
horizontal = 1;
place = "{-8, 140}";
type = Stem;
},
{
horizontal = 1;
place = "{355, 138}";
type = Stem;
},
{
place = "{38, 32}";
type = Stem;
},
{
place = "{480, 32}";
type = Stem;
}
);
paths = (
{
closed = 1;
nodes = (
"412 -8 OFFCURVE",
"512 94 OFFCURVE",
"512 242 CURVE SMOOTH",
"512 390 OFFCURVE",
"411 493 OFFCURVE",
"275 493 CURVE SMOOTH",
"139 493 OFFCURVE",
"38 390 OFFCURVE",
"38 242 CURVE SMOOTH",
"38 94 OFFCURVE",
"140 -8 OFFCURVE",
"276 -8 CURVE SMOOTH"
);
},
{
closed = 1;
nodes = (
"157 132 OFFCURVE",
"70 176 OFFCURVE",
"70 242 CURVE SMOOTH",
"70 310 OFFCURVE",
"157 355 OFFCURVE",
"275 355 CURVE SMOOTH",
"393 355 OFFCURVE",
"480 310 OFFCURVE",
"480 242 CURVE SMOOTH",
"480 176 OFFCURVE",
"393 132 OFFCURVE",
"275 132 CURVE SMOOTH"
);
}
);
};
guideLines = (
{
angle = 76.9666;
position = "{277, 243}";
}
);
layerId = "C1951C01-2078-4DCF-9B04-F28136C23FC3";
paths = (
{
closed = 1;
nodes = (
"381 -10 OFFCURVE",
"504 90 OFFCURVE",
"504 223 CURVE",
"594 378 OFFCURVE",
"522 495 OFFCURVE",
"336 495 CURVE SMOOTH",
"175 495 OFFCURVE",
"54 394 OFFCURVE",
"54 259 CURVE",
"-35 105 OFFCURVE",
"35 -10 OFFCURVE",
"218 -10 CURVE SMOOTH"
);
},
{
closed = 1;
nodes = (
"147 122 OFFCURVE",
"70 165 OFFCURVE",
"70 223 CURVE SMOOTH",
"70 301 OFFCURVE",
"170 359 OFFCURVE",
"304 359 CURVE SMOOTH",
"409 359 OFFCURVE",
"488 316 OFFCURVE",
"488 259 CURVE SMOOTH",
"488 181 OFFCURVE",
"386 122 OFFCURVE",
"249 122 CURVE SMOOTH"
);
}
);
width = 559;
},
{
background = {
paths = (
{
closed = 1;
nodes = (
"412 -8 OFFCURVE",
"512 94 OFFCURVE",
"512 242 CURVE SMOOTH",
"512 390 OFFCURVE",
"411 493 OFFCURVE",
"275 493 CURVE SMOOTH",
"139 493 OFFCURVE",
"38 390 OFFCURVE",
"38 242 CURVE SMOOTH",
"38 94 OFFCURVE",
"140 -8 OFFCURVE",
"276 -8 CURVE SMOOTH"
);
},
{
closed = 1;
nodes = (
"157 132 OFFCURVE",
"70 176 OFFCURVE",
"70 242 CURVE SMOOTH",
"70 310 OFFCURVE",
"157 355 OFFCURVE",
"275 355 CURVE SMOOTH",
"393 355 OFFCURVE",
"480 310 OFFCURVE",
"480 242 CURVE SMOOTH",
"480 176 OFFCURVE",
"393 132 OFFCURVE",
"275 132 CURVE SMOOTH"
);
}
);
};
layerId = "73C3FB79-0E24-4863-9919-819B2F26AD09";
paths = (
{
closed = 1;
nodes = (
"412 -8 OFFCURVE",
"512 94 OFFCURVE",
"512 242 CURVE SMOOTH",
"512 390 OFFCURVE",
"411 493 OFFCURVE",
"275 493 CURVE SMOOTH",
"139 493 OFFCURVE",
"38 390 OFFCURVE",
"38 242 CURVE SMOOTH",
"38 94 OFFCURVE",
"140 -8 OFFCURVE",
"276 -8 CURVE SMOOTH"
);
},
{
closed = 1;
nodes = (
"157 132 OFFCURVE",
"70 176 OFFCURVE",
"70 242 CURVE SMOOTH",
"70 310 OFFCURVE",
"157 355 OFFCURVE",
"275 355 CURVE SMOOTH",
"393 355 OFFCURVE",
"480 310 OFFCURVE",
"480 242 CURVE SMOOTH",
"480 176 OFFCURVE",
"393 132 OFFCURVE",
"275 132 CURVE SMOOTH"
);
}
);
width = 550;
},
{
associatedMasterId = "C1951C01-2078-4DCF-9B04-F28136C23FC3";
background = {
paths = (
{
closed = 1;
nodes = (
"609 429 OFFCURVE",
"505 497 OFFCURVE",
"351 497 CURVE SMOOTH",
"256 497 OFFCURVE",
"174 464 OFFCURVE",
"121 406 CURVE SMOOTH",
"75 354 OFFCURVE",
"48 284 OFFCURVE",
"48 201 CURVE SMOOTH",
"48 69 OFFCURVE",
"143 -12 OFFCURVE",
"309 -12 CURVE SMOOTH",
"397 -12 OFFCURVE",
"474 17 OFFCURVE",
"524 68 CURVE SMOOTH",
"582 126 OFFCURVE",
"609 210 OFFCURVE",
"609 289 CURVE SMOOTH"
);
},
{
closed = 1;
nodes = (
"532 219 OFFCURVE",
"508 148 OFFCURVE",
"464 103 CURVE SMOOTH",
"425 63 OFFCURVE",
"368 47 OFFCURVE",
"314 47 CURVE SMOOTH",
"191 47 OFFCURVE",
"124 112 OFFCURVE",
"124 212 CURVE SMOOTH",
"124 273 OFFCURVE",
"145 327 OFFCURVE",
"179 367 CURVE SMOOTH",
"218 413 OFFCURVE",
"275 438 OFFCURVE",
"345 438 CURVE SMOOTH",
"465 438 OFFCURVE",
"532 381 OFFCURVE",
"532 284 CURVE SMOOTH"
);
}
);
};
layerId = "7F3C3434-BC5B-49E8-BCB8-D9F9A5E6EC82";
name = "Mar 15 17, 20:39";
paths = (
{
closed = 1;
nodes = (
"481 -12 OFFCURVE",
"568 65 OFFCURVE",
"568 224 CURVE",
"700 405 OFFCURVE",
"645 512 OFFCURVE",
"430 512 CURVE SMOOTH",
"197 512 OFFCURVE",
"90 446 OFFCURVE",
"90 276 CURVE",
"-42 95 OFFCURVE",
"33 -12 OFFCURVE",
"251 -12 CURVE"
);
},
{
closed = 1;
nodes = (
"175 138 OFFCURVE",
"124 169 OFFCURVE",
"124 228 CURVE SMOOTH",
"124 317 OFFCURVE",
"245 353 OFFCURVE",
"381 353 CURVE SMOOTH",
"518 353 OFFCURVE",
"534 324 OFFCURVE",
"534 264 CURVE SMOOTH",
"534 175 OFFCURVE",
"447 138 OFFCURVE",
"311 138 CURVE SMOOTH"
);
}
);
width = 668;
},
{
associatedMasterId = "73C3FB79-0E24-4863-9919-819B2F26AD09";
background = {
paths = (
{
closed = 1;
nodes = (
"606 414 OFFCURVE",
"497 505 OFFCURVE",
"329 505 CURVE SMOOTH",
"145 505 OFFCURVE",
"35 410 OFFCURVE",
"35 245 CURVE SMOOTH",
"35 84 OFFCURVE",
"138 -13 OFFCURVE",
"322 -13 CURVE SMOOTH",
"487 -13 OFFCURVE",
"606 79 OFFCURVE",
"606 247 CURVE SMOOTH"
);
},
{
closed = 1;
nodes = (
"506 130 OFFCURVE",
"438 64 OFFCURVE",
"322 64 CURVE SMOOTH",
"205 64 OFFCURVE",
"135 129 OFFCURVE",
"135 252 CURVE SMOOTH",
"135 364 OFFCURVE",
"207 429 OFFCURVE",
"326 429 CURVE SMOOTH",
"435 429 OFFCURVE",
"506 369 OFFCURVE",
"506 249 CURVE SMOOTH"
);
}
);
};
layerId = "5849875D-AC32-47F8-BD9A-7DDD0AD4C4B2";
name = "Oct 20 17, 21:55";
paths = (
{
closed = 1;
nodes = (
"408 -10 OFFCURVE",
"510 98 OFFCURVE",
"510 243 CURVE SMOOTH",
"510 387 OFFCURVE",
"408 495 OFFCURVE",
"273 495 CURVE SMOOTH",
"138 495 OFFCURVE",
"36 387 OFFCURVE",
"36 243 CURVE SMOOTH",
"36 98 OFFCURVE",
"138 -10 OFFCURVE",
"273 -10 CURVE SMOOTH"
);
},
{
closed = 1;
nodes = (
"159 136 OFFCURVE",
"74 185 OFFCURVE",
"74 243 CURVE SMOOTH",
"74 301 OFFCURVE",
"159 345 OFFCURVE",
"273 345 CURVE SMOOTH",
"387 345 OFFCURVE",
"472 301 OFFCURVE",
"472 243 CURVE SMOOTH",
"472 185 OFFCURVE",
"387 136 OFFCURVE",
"273 136 CURVE SMOOTH"
);
}
);
width = 546;
}
);
unicode = 006F;
},
{
glyphname = p;
lastChange = "2019-03-21 21:53:54 +0000";
layers = (
{
background = {
hints = (
{
horizontal = 1;
place = "{-8, 140}";
type = Stem;
},
{
horizontal = 1;
place = "{355, 138}";
type = Stem;
},
{
place = "{64, 38}";
type = Stem;
},
{
place = "{468, 32}";
type = Stem;
}
);
paths = (
{
closed = 1;
nodes = (
"206 493 OFFCURVE",
"132 441 OFFCURVE",
"104 373 CURVE",
"96 373 LINE",
"104 485 LINE",
"64 485 LINE",
"64 -206 LINE",
"104 -206 LINE",
"100 121 LINE",
"106 121 LINE",
"130 47 OFFCURVE",
"208 -8 OFFCURVE",
"288 -8 CURVE SMOOTH",
"412 -8 OFFCURVE",
"500 99 OFFCURVE",
"500 243 CURVE SMOOTH",
"500 387 OFFCURVE",
"408 493 OFFCURVE",
"284 493 CURVE SMOOTH"
);
},
{
closed = 1;
nodes = (
"180 132 OFFCURVE",
"102 177 OFFCURVE",
"102 241 CURVE SMOOTH",
"102 305 OFFCURVE",
"180 355 OFFCURVE",
"284 355 CURVE SMOOTH",
"388 355 OFFCURVE",
"468 307 OFFCURVE",
"468 243 CURVE SMOOTH",
"468 179 OFFCURVE",
"392 132 OFFCURVE",
"288 132 CURVE SMOOTH"
);
}
);
};
guideLines = (
{
angle = 77;
position = "{314, 233}";
}
);
layerId = "C1951C01-2078-4DCF-9B04-F28136C23FC3";
paths = (
{
closed = 1;
nodes = (
"415 -10 OFFCURVE",
"529 88 OFFCURVE",
"529 219 CURVE",
"620 377 OFFCURVE",
"555 495 OFFCURVE",
"377 495 CURVE SMOOTH",
"227 495 OFFCURVE",
"115 394 OFFCURVE",
"115 259 CURVE",
"30 105 OFFCURVE",
"93 -10 OFFCURVE",
"262 -10 CURVE SMOOTH"
);
},
{
closed = 1;
nodes = (
"195 118 OFFCURVE",
"127 163 OFFCURVE",
"127 223 CURVE SMOOTH",
"127 303 OFFCURVE",
"220 363 OFFCURVE",
"343 363 CURVE SMOOTH",
"440 363 OFFCURVE",
"513 317 OFFCURVE",
"513 255 CURVE SMOOTH",
"513 177 OFFCURVE",
"416 118 OFFCURVE",
"286 118 CURVE SMOOTH"
);
},
{
closed = 1;
nodes = (
"69 146 LINE",
"-64 -206 LINE",
"60 -206 LINE",
"87 144 LINE",
"166 402 LINE",
"162 405 LINE",
"208 485 LINE",
"96 485 LINE"
);
}
);
width = 586;
},
{
background = {
paths = (
{
closed = 1;
nodes = (
"412 -8 OFFCURVE",
"500 99 OFFCURVE",
"500 243 CURVE SMOOTH",
"500 387 OFFCURVE",
"408 493 OFFCURVE",
"284 493 CURVE SMOOTH",
"206 493 OFFCURVE",
"132 441 OFFCURVE",
"104 373 CURVE",
"82 240 LINE",
"106 121 LINE",
"130 47 OFFCURVE",
"208 -8 OFFCURVE",
"288 -8 CURVE SMOOTH"
);
},
{
closed = 1;
nodes = (
"180 132 OFFCURVE",
"102 177 OFFCURVE",
"102 241 CURVE SMOOTH",
"102 305 OFFCURVE",
"180 355 OFFCURVE",
"284 355 CURVE SMOOTH",
"388 355 OFFCURVE",
"468 307 OFFCURVE",
"468 243 CURVE SMOOTH",
"468 179 OFFCURVE",
"392 132 OFFCURVE",
"288 132 CURVE SMOOTH"
);
},
{
closed = 1;
nodes = (
"108 121 LINE",
"82 240 LINE",
"104 373 LINE",
"96 373 LINE",
"104 485 LINE",
"64 485 LINE",
"64 -206 LINE",
"104 -206 LINE",
"100 121 LINE"
);
}
);
};
layerId = "73C3FB79-0E24-4863-9919-819B2F26AD09";
paths = (
{
closed = 1;
nodes = (
"412 -8 OFFCURVE",
"500 99 OFFCURVE",
"500 243 CURVE SMOOTH",
"500 387 OFFCURVE",
"408 493 OFFCURVE",
"284 493 CURVE SMOOTH",
"206 493 OFFCURVE",
"132 441 OFFCURVE",
"104 373 CURVE",
"82 240 LINE",
"106 121 LINE",
"130 47 OFFCURVE",
"208 -8 OFFCURVE",
"288 -8 CURVE SMOOTH"
);
},
{
closed = 1;
nodes = (
"180 132 OFFCURVE",
"102 177 OFFCURVE",
"102 241 CURVE SMOOTH",
"102 305 OFFCURVE",
"180 355 OFFCURVE",
"284 355 CURVE SMOOTH",
"388 355 OFFCURVE",
"468 307 OFFCURVE",
"468 243 CURVE SMOOTH",
"468 179 OFFCURVE",
"392 132 OFFCURVE",
"288 132 CURVE SMOOTH"
);
},
{
closed = 1;
nodes = (
"108 121 LINE",
"82 240 LINE",
"104 373 LINE",
"96 373 LINE",
"104 485 LINE",
"64 485 LINE",
"64 -206 LINE",
"104 -206 LINE",
"100 121 LINE"
);
}
);
width = 538;
}
);
leftMetricsKey = l;
rightMetricsKey = o;
unicode = 0070;
},
{
glyphname = q;
lastChange = "2019-03-21 21:53:54 +0000";
layers = (
{
background = {
hints = (
{
horizontal = 1;
place = "{-8, 140}";
type = Stem;
},
{
horizontal = 1;
place = "{355, 138}";
type = Stem;
},
{
place = "{38, 32}";
type = Stem;
},
{
place = "{436, 38}";
type = Stem;
}
);
paths = (
{
closed = 1;
nodes = (
"434 485 LINE",
"442 365 LINE",
"436 365 LINE",
"412 443 OFFCURVE",
"335 493 OFFCURVE",
"253 493 CURVE SMOOTH",
"127 493 OFFCURVE",
"38 388 OFFCURVE",
"38 242 CURVE SMOOTH",
"38 96 OFFCURVE",
"131 -8 OFFCURVE",
"261 -8 CURVE SMOOTH",
"337 -8 OFFCURVE",
"402 37 OFFCURVE",
"430 101 CURVE",
"438 101 LINE",
"434 -206 LINE",
"474 -206 LINE",
"474 485 LINE"
);
},
{
closed = 1;
nodes = (
"148 132 OFFCURVE",
"70 178 OFFCURVE",
"70 240 CURVE SMOOTH",
"70 306 OFFCURVE",
"148 355 OFFCURVE",
"253 355 CURVE SMOOTH",
"358 355 OFFCURVE",
"436 307 OFFCURVE",
"436 242 CURVE SMOOTH",
"436 179 OFFCURVE",
"358 132 OFFCURVE",
"253 132 CURVE SMOOTH"
);
}
);
};
guideLines = (
{
angle = 77;
position = "{277, 292}";
}
);
layerId = "C1951C01-2078-4DCF-9B04-F28136C23FC3";
paths = (
{
closed = 1;
nodes = (
"595 485 LINE",
"467 146 LINE",
"435 -206 LINE",
"311 -206 LINE",
"427 94 LINE",
"449 144 LINE",
"497 403 LINE",
"503 405 LINE",
"483 485 LINE"
);
},
{
closed = 1;
nodes = (
"31 -10 OFFCURVE",
"-33 104 OFFCURVE",
"54 255 CURVE",
"54 392 OFFCURVE",
"168 495 OFFCURVE",
"319 495 CURVE SMOOTH",
"499 495 OFFCURVE",
"548 382 OFFCURVE",
"476 223 CURVE",
"456 75 OFFCURVE",
"355 -10 OFFCURVE",
"203 -10 CURVE SMOOTH"
);
},
{
closed = 1;
nodes = (
"367 118 OFFCURVE",
"464 178 OFFCURVE",
"464 259 CURVE SMOOTH",
"464 318 OFFCURVE",
"391 363 OFFCURVE",
"293 363 CURVE SMOOTH",
"166 363 OFFCURVE",
"70 301 OFFCURVE",
"70 219 CURVE SMOOTH",
"70 161 OFFCURVE",
"141 118 OFFCURVE",
"236 118 CURVE SMOOTH"
);
}
);
width = 579;
},
{
background = {
paths = (
{
closed = 1;
nodes = (
"337 -8 OFFCURVE",
"402 37 OFFCURVE",
"430 101 CURVE",
"456 242 LINE",
"436 365 LINE",
"412 443 OFFCURVE",
"335 493 OFFCURVE",
"253 493 CURVE SMOOTH",
"127 493 OFFCURVE",
"38 388 OFFCURVE",
"38 242 CURVE SMOOTH",
"38 96 OFFCURVE",
"131 -8 OFFCURVE",
"261 -8 CURVE SMOOTH"
);
},
{
closed = 1;
nodes = (
"148 132 OFFCURVE",
"70 178 OFFCURVE",
"70 240 CURVE SMOOTH",
"70 306 OFFCURVE",
"148 355 OFFCURVE",
"253 355 CURVE SMOOTH",
"358 355 OFFCURVE",
"436 307 OFFCURVE",
"436 242 CURVE SMOOTH",
"436 179 OFFCURVE",
"358 132 OFFCURVE",
"253 132 CURVE SMOOTH"
);
},
{
closed = 1;
nodes = (
"434 -206 LINE",
"474 -206 LINE",
"474 485 LINE",
"434 485 LINE",
"442 365 LINE",
"434 365 LINE",
"456 242 LINE",
"430 101 LINE",
"438 101 LINE"
);
}
);
};
layerId = "73C3FB79-0E24-4863-9919-819B2F26AD09";
paths = (
{
closed = 1;
nodes = (
"337 -8 OFFCURVE",
"402 37 OFFCURVE",
"430 101 CURVE",
"456 242 LINE",
"436 365 LINE",
"412 443 OFFCURVE",
"335 493 OFFCURVE",
"253 493 CURVE SMOOTH",
"127 493 OFFCURVE",
"38 388 OFFCURVE",
"38 242 CURVE SMOOTH",
"38 96 OFFCURVE",
"131 -8 OFFCURVE",
"261 -8 CURVE SMOOTH"
);
},
{
closed = 1;
nodes = (
"148 132 OFFCURVE",
"70 178 OFFCURVE",
"70 240 CURVE SMOOTH",
"70 306 OFFCURVE",
"148 355 OFFCURVE",
"253 355 CURVE SMOOTH",
"358 355 OFFCURVE",
"436 307 OFFCURVE",
"436 242 CURVE SMOOTH",
"436 179 OFFCURVE",
"358 132 OFFCURVE",
"253 132 CURVE SMOOTH"
);
},
{
closed = 1;
nodes = (
"434 -206 LINE",
"474 -206 LINE",
"474 485 LINE",
"434 485 LINE",
"442 365 LINE",
"434 365 LINE",
"456 242 LINE",
"430 101 LINE",
"438 101 LINE"
);
}
);
width = 538;
},
{
associatedMasterId = "C1951C01-2078-4DCF-9B04-F28136C23FC3";
background = {
paths = (
{
closed = 1;
nodes = (
"473 -203 LINE",
"625 488 LINE",
"532 488 LINE",
"515 412 LINE",
"487 469 OFFCURVE",
"415 499 OFFCURVE",
"330 499 CURVE SMOOTH",
"171 499 OFFCURVE",
"29 386 OFFCURVE",
"29 180 CURVE SMOOTH",
"29 67 OFFCURVE",
"113 -8 OFFCURVE",
"236 -8 CURVE SMOOTH",
"327 -8 OFFCURVE",
"393 20 OFFCURVE",
"442 81 CURVE",
"379 -203 LINE"
);
},
{
closed = 1;
nodes = (
"483 258 OFFCURVE",
"467 198 OFFCURVE",
"437 152 CURVE SMOOTH",
"402 100 OFFCURVE",
"343 65 OFFCURVE",
"270 65 CURVE SMOOTH",
"181 65 OFFCURVE",
"130 118 OFFCURVE",
"130 196 CURVE SMOOTH",
"130 322 OFFCURVE",
"214 426 OFFCURVE",
"336 426 CURVE SMOOTH",
"419 426 OFFCURVE",
"483 390 OFFCURVE",
"483 306 CURVE SMOOTH"
);
}
);
};
layerId = "1933DE1B-493E-4DEE-A8B6-2D53FC70B9DA";
name = "Jan 9 18, 22:34";
paths = (
{
closed = 1;
nodes = (
"40 -10 OFFCURVE",
"-35 110 OFFCURVE",
"57 269 CURVE",
"57 398 OFFCURVE",
"175 495 OFFCURVE",
"332 495 CURVE SMOOTH",
"498 495 OFFCURVE",
"554 375 OFFCURVE",
"469 227 CURVE",
"469 104 OFFCURVE",
"362 -10 OFFCURVE",
"204 -10 CURVE SMOOTH"
);
},
{
closed = 1;
nodes = (
"368 126 OFFCURVE",
"461 186 OFFCURVE",
"461 267 CURVE SMOOTH",
"461 318 OFFCURVE",
"392 357 OFFCURVE",
"292 357 CURVE SMOOTH",
"168 357 OFFCURVE",
"75 298 OFFCURVE",
"75 219 CURVE SMOOTH",
"75 166 OFFCURVE",
"147 126 OFFCURVE",
"244 126 CURVE SMOOTH"
);
},
{
closed = 1;
nodes = (
"607 485 LINE",
"475 146 LINE",
"445 -206 LINE",
"309 -206 LINE",
"455 182 LINE",
"493 413 LINE",
"479 485 LINE"
);
}
);
width = 591;
},
{
associatedMasterId = "73C3FB79-0E24-4863-9919-819B2F26AD09";
background = {
paths = (
{
closed = 1;
nodes = (
"436 -206 LINE",
"474 -206 LINE",
"474 485 LINE",
"436 485 LINE"
);
},
{
closed = 1;
nodes = (
"371 -10 OFFCURVE",
"460 102 OFFCURVE",
"460 251 CURVE SMOOTH",
"460 390 OFFCURVE",
"370 495 OFFCURVE",
"249 495 CURVE SMOOTH",
"125 495 OFFCURVE",
"38 385 OFFCURVE",
"38 239 CURVE SMOOTH",
"38 97 OFFCURVE",
"137 -10 OFFCURVE",
"253 -10 CURVE SMOOTH"
);
},
{
closed = 1;
nodes = (
"147 134 OFFCURVE",
"70 181 OFFCURVE",
"70 243 CURVE SMOOTH",
"70 302 OFFCURVE",
"147 347 OFFCURVE",
"249 347 CURVE SMOOTH",
"354 347 OFFCURVE",
"432 302 OFFCURVE",
"432 243 CURVE SMOOTH",
"432 184 OFFCURVE",
"354 134 OFFCURVE",
"249 134 CURVE SMOOTH"
);
}
);
};
layerId = "068A905D-0CF2-4BDA-9D6B-74C572EDB196";
name = "Nov 1 18, 19:26";
paths = (
{
closed = 1;
nodes = (
"436 -206 LINE",
"474 -206 LINE",
"474 485 LINE",
"436 485 LINE"
);
},
{
closed = 1;
nodes = (
"371 -10 OFFCURVE",
"460 102 OFFCURVE",
"460 251 CURVE SMOOTH",
"460 390 OFFCURVE",
"370 495 OFFCURVE",
"249 495 CURVE SMOOTH",
"125 495 OFFCURVE",
"38 385 OFFCURVE",
"38 239 CURVE SMOOTH",
"38 97 OFFCURVE",
"137 -10 OFFCURVE",
"253 -10 CURVE SMOOTH"
);
},
{
closed = 1;
nodes = (
"147 134 OFFCURVE",
"70 181 OFFCURVE",
"70 243 CURVE SMOOTH",
"70 302 OFFCURVE",
"147 347 OFFCURVE",
"249 347 CURVE SMOOTH",
"354 347 OFFCURVE",
"432 302 OFFCURVE",
"432 243 CURVE SMOOTH",
"432 184 OFFCURVE",
"354 134 OFFCURVE",
"249 134 CURVE SMOOTH"
);
}
);
width = 538;
}
);
leftMetricsKey = o;
rightMetricsKey = l;
unicode = 0071;
},
{
glyphname = r;
lastChange = "2019-03-21 21:53:54 +0000";
layers = (
{
background = {
hints = (
{
horizontal = 1;
place = "{341, 152}";
type = Stem;
},
{
place = "{60, 40}";
type = Stem;
}
);
paths = (
{
closed = 1;
nodes = (
"183 493 OFFCURVE",
"116 441 OFFCURVE",
"100 365 CURVE",
"92 365 LINE",
"100 485 LINE",
"60 485 LINE",
"60 0 LINE",
"100 0 LINE",
"100 229 LINE",
"104 293 OFFCURVE",
"165 341 OFFCURVE",
"241 341 CURVE SMOOTH",
"289 341 OFFCURVE",
"337 321 OFFCURVE",
"357 301 CURVE",
"359 445 LINE",
"343 473 OFFCURVE",
"297 493 OFFCURVE",
"253 493 CURVE SMOOTH"
);
}
);
};
guideLines = (
{
angle = 77;
position = "{322, 406}";
}
);
layerId = "C1951C01-2078-4DCF-9B04-F28136C23FC3";
paths = (
{
closed = 1;
nodes = (
"113 230 LINE",
"137 380 OFFCURVE",
"240 493 OFFCURVE",
"354 493 CURVE SMOOTH",
"406 493 OFFCURVE",
"454 469 OFFCURVE",
"474 429 CURVE",
"432 289 LINE",
"408 325 OFFCURVE",
"359 341 OFFCURVE",
"307 341 CURVE SMOOTH",
"204 341 OFFCURVE",
"123 280 OFFCURVE",
"119 198 CURVE"
);
},
{
closed = 1;
nodes = (
"218 485 LINE",
"170 385 LINE",
"174 383 LINE",
"120 260 LINE",
"116 0 LINE",
"-8 0 LINE",
"98 224 LINE",
"104 485 LINE"
);
}
);
width = 459;
},
{
background = {
paths = (
{
closed = 1;
nodes = (
"100 365 LINE",
"116 441 OFFCURVE",
"183 493 OFFCURVE",
"253 493 CURVE SMOOTH",
"297 493 OFFCURVE",
"343 473 OFFCURVE",
"359 445 CURVE",
"357 301 LINE",
"337 321 OFFCURVE",
"289 341 OFFCURVE",
"241 341 CURVE SMOOTH",
"165 341 OFFCURVE",
"104 293 OFFCURVE",
"100 229 CURVE"
);
},
{
closed = 1;
nodes = (
"100 485 LINE",
"92 365 LINE",
"100 365 LINE",
"100 0 LINE",
"60 0 LINE",
"60 485 LINE"
);
}
);
};
layerId = "73C3FB79-0E24-4863-9919-819B2F26AD09";
paths = (
{
closed = 1;
nodes = (
"100 365 LINE",
"116 441 OFFCURVE",
"183 493 OFFCURVE",
"253 493 CURVE SMOOTH",
"297 493 OFFCURVE",
"343 473 OFFCURVE",
"359 445 CURVE",
"357 301 LINE",
"337 321 OFFCURVE",
"289 341 OFFCURVE",
"241 341 CURVE SMOOTH",
"165 341 OFFCURVE",
"104 293 OFFCURVE",
"100 229 CURVE"
);
},
{
closed = 1;
nodes = (
"100 485 LINE",
"92 365 LINE",
"100 365 LINE",
"100 0 LINE",
"60 0 LINE",
"60 485 LINE"
);
}
);
width = 375;
},
{
associatedMasterId = "C1951C01-2078-4DCF-9B04-F28136C23FC3";
background = {
paths = (
{
closed = 1;
nodes = (
"118 0 LINE",
"169 229 LINE SMOOTH",
"181 282 OFFCURVE",
"193 318 OFFCURVE",
"218 345 CURVE SMOOTH",
"257 389 OFFCURVE",
"305 412 OFFCURVE",
"362 412 CURVE SMOOTH",
"382 412 OFFCURVE",
"406 409 OFFCURVE",
"427 400 CURVE",
"447 487 LINE",
"430 493 OFFCURVE",
"409 495 OFFCURVE",
"387 495 CURVE SMOOTH",
"322 495 OFFCURVE",
"249 466 OFFCURVE",
"203 403 CURVE",
"224 488 LINE",
"131 488 LINE",
"24 0 LINE"
);
}
);
};
layerId = "8F7EB677-EBE2-4381-9B50-195FAE50E63E";
name = "Jan 13 18, 00:07";
paths = (
{
closed = 1;
nodes = (
"109 230 LINE",
"133 381 OFFCURVE",
"235 495 OFFCURVE",
"347 495 CURVE SMOOTH",
"399 495 OFFCURVE",
"443 473 OFFCURVE",
"463 437 CURVE",
"423 303 LINE",
"399 331 OFFCURVE",
"356 343 OFFCURVE",
"307 343 CURVE SMOOTH",
"201 343 OFFCURVE",
"119 281 OFFCURVE",
"115 198 CURVE"
);
},
{
closed = 1;
nodes = (
"212 485 LINE",
"164 385 LINE",
"168 383 LINE",
"116 260 LINE",
"112 0 LINE",
"-12 0 LINE",
"94 224 LINE",
"98 485 LINE"
);
}
);
width = 442;
}
);
leftMetricsKey = n;
unicode = 0072;
},
{
glyphname = s;
lastChange = "2019-03-21 21:53:54 +0000";
layers = (
{
background = {
hints = (
{
horizontal = 1;
place = "{-8, 122}";
type = Stem;
},
{
horizontal = 1;
place = "{229, 29.5}";
type = Stem;
},
{
horizontal = 1;
place = "{373, 120}";
type = Stem;
},
{
place = "{36, 18}";
type = Stem;
},
{
place = "{66, 54}";
type = Stem;
},
{
place = "{371, 56}";
type = Stem;
},
{
place = "{403, 18}";
type = Stem;
}
);
paths = (
{
closed = 1;
nodes = (
"36 196 LINE",
"36 84 OFFCURVE",
"123 -8 OFFCURVE",
"239 -8 CURVE SMOOTH",
"349 -8 OFFCURVE",
"427 56 OFFCURVE",
"427 144 CURVE SMOOTH",
"427 150 LINE SMOOTH",
"427 208 OFFCURVE",
"378 246 OFFCURVE",
"298 254 CURVE SMOOTH",
"212 263 LINE SMOOTH",
"152 271 OFFCURVE",
"120 288 OFFCURVE",
"120 316 CURVE SMOOTH",
"120 346 OFFCURVE",
"166 373 OFFCURVE",
"250 373 CURVE SMOOTH",
"330 373 OFFCURVE",
"383 349 OFFCURVE",
"403 309 CURVE",
"421 309 LINE",
"421 419 OFFCURVE",
"358 493 OFFCURVE",
"250 493 CURVE SMOOTH",
"142 493 OFFCURVE",
"66 428 OFFCURVE",
"66 344 CURVE SMOOTH",
"66 336 LINE SMOOTH",
"66 282 OFFCURVE",
"112 241 OFFCURVE",
"192 233 CURVE SMOOTH",
"268 225 LINE SMOOTH",
"332 217 OFFCURVE",
"371 200 OFFCURVE",
"371 172 CURVE SMOOTH",
"371 136 OFFCURVE",
"321 114 OFFCURVE",
"233 114 CURVE SMOOTH",
"143 114 OFFCURVE",
"70 152 OFFCURVE",
"54 196 CURVE"
);
}
);
};
guideLines = (
{
angle = 77;
position = "{231, 160}";
}
);
layerId = "C1951C01-2078-4DCF-9B04-F28136C23FC3";
paths = (
{
closed = 1;
nodes = (
"48 196 LINE",
"48 147 OFFCURVE",
"123 115 OFFCURVE",
"224 115 CURVE SMOOTH",
"325 115 OFFCURVE",
"400 137 OFFCURVE",
"400 175 CURVE SMOOTH",
"400 203 OFFCURVE",
"365 219 OFFCURVE",
"289 225 CURVE",
"192 235 LINE",
"92 243 OFFCURVE",
"53 284 OFFCURVE",
"89 339 CURVE",
"89 430 OFFCURVE",
"187 497 OFFCURVE",
"317 496 CURVE SMOOTH",
"466 495 OFFCURVE",
"530 405 OFFCURVE",
"465 285 CURVE",
"451 285 LINE",
"451 335 OFFCURVE",
"378 368 OFFCURVE",
"281 368 CURVE SMOOTH",
"183 368 OFFCURVE",
"109 347 OFFCURVE",
"109 309 CURVE SMOOTH",
"109 283 OFFCURVE",
"150 267 OFFCURVE",
"218 263 CURVE",
"321 253 LINE",
"421 243 OFFCURVE",
"456 203 OFFCURVE",
"420 147 CURVE",
"420 56 OFFCURVE",
"322 -12 OFFCURVE",
"192 -11 CURVE SMOOTH",
"40 -10 OFFCURVE",
"-28 79 OFFCURVE",
"32 196 CURVE"
);
}
);
width = 496;
},
{
background = {
paths = (
{
closed = 1;
nodes = (
"36 84 OFFCURVE",
"123 -8 OFFCURVE",
"239 -8 CURVE SMOOTH",
"349 -8 OFFCURVE",
"427 56 OFFCURVE",
"427 144 CURVE",
"427 150 LINE",
"427 208 OFFCURVE",
"378 246 OFFCURVE",
"298 254 CURVE",
"212 263 LINE",
"152 271 OFFCURVE",
"120 288 OFFCURVE",
"120 316 CURVE SMOOTH",
"120 346 OFFCURVE",
"166 373 OFFCURVE",
"250 373 CURVE SMOOTH",
"330 373 OFFCURVE",
"383 349 OFFCURVE",
"403 309 CURVE",
"421 309 LINE",
"421 419 OFFCURVE",
"358 493 OFFCURVE",
"250 493 CURVE SMOOTH",
"142 493 OFFCURVE",
"66 428 OFFCURVE",
"66 344 CURVE",
"66 336 LINE",
"66 282 OFFCURVE",
"112 241 OFFCURVE",
"192 233 CURVE",
"268 225 LINE",
"332 217 OFFCURVE",
"371 200 OFFCURVE",
"371 172 CURVE SMOOTH",
"371 136 OFFCURVE",
"321 114 OFFCURVE",
"233 114 CURVE SMOOTH",
"143 114 OFFCURVE",
"70 152 OFFCURVE",
"54 196 CURVE",
"36 196 LINE"
);
}
);
};
layerId = "73C3FB79-0E24-4863-9919-819B2F26AD09";
paths = (
{
closed = 1;
nodes = (
"36 84 OFFCURVE",
"123 -8 OFFCURVE",
"239 -8 CURVE SMOOTH",
"349 -8 OFFCURVE",
"427 56 OFFCURVE",
"427 144 CURVE",
"427 150 LINE",
"427 208 OFFCURVE",
"378 246 OFFCURVE",
"298 254 CURVE",
"212 263 LINE",
"152 271 OFFCURVE",
"120 288 OFFCURVE",
"120 316 CURVE SMOOTH",
"120 346 OFFCURVE",
"166 373 OFFCURVE",
"250 373 CURVE SMOOTH",
"330 373 OFFCURVE",
"383 349 OFFCURVE",
"403 309 CURVE",
"421 309 LINE",
"421 419 OFFCURVE",
"358 493 OFFCURVE",
"250 493 CURVE SMOOTH",
"142 493 OFFCURVE",
"66 428 OFFCURVE",
"66 344 CURVE",
"66 336 LINE",
"66 282 OFFCURVE",
"112 241 OFFCURVE",
"192 233 CURVE",
"268 225 LINE",
"332 217 OFFCURVE",
"371 200 OFFCURVE",
"371 172 CURVE SMOOTH",
"371 136 OFFCURVE",
"321 114 OFFCURVE",
"233 114 CURVE SMOOTH",
"143 114 OFFCURVE",
"70 152 OFFCURVE",
"54 196 CURVE",
"36 196 LINE"
);
}
);
width = 459;
},
{
associatedMasterId = "73C3FB79-0E24-4863-9919-819B2F26AD09";
background = {
paths = (
{
closed = 1;
nodes = (
"-16 108 LINE",
"18 46 OFFCURVE",
"109 -12 OFFCURVE",
"227 -12 CURVE SMOOTH",
"369 -12 OFFCURVE",
"449 51 OFFCURVE",
"449 137 CURVE SMOOTH",
"449 217 OFFCURVE",
"403 257 OFFCURVE",
"274 280 CURVE SMOOTH",
"202 293 LINE SMOOTH",
"121 308 OFFCURVE",
"94 326 OFFCURVE",
"94 367 CURVE SMOOTH",
"94 412 OFFCURVE",
"133 441 OFFCURVE",
"216 441 CURVE SMOOTH",
"296 441 OFFCURVE",
"353 414 OFFCURVE",
"387 360 CURVE",
"446 404 LINE",
"396 469 OFFCURVE",
"325 501 OFFCURVE",
"230 501 CURVE SMOOTH",
"89 501 OFFCURVE",
"18 442 OFFCURVE",
"18 364 CURVE SMOOTH",
"18 287 OFFCURVE",
"64 249 OFFCURVE",
"170 229 CURVE SMOOTH",
"248 214 LINE SMOOTH",
"343 196 OFFCURVE",
"373 177 OFFCURVE",
"373 130 CURVE SMOOTH",
"373 77 OFFCURVE",
"321 49 OFFCURVE",
"236 49 CURVE SMOOTH",
"148 49 OFFCURVE",
"83 86 OFFCURVE",
"44 150 CURVE"
);
}
);
};
layerId = "1F5D5F7E-F165-423B-9B13-250569EAA088";
name = "Mar 22 17, 17:09";
paths = (
{
closed = 1;
nodes = (
"36 79 OFFCURVE",
"115 -11 OFFCURVE",
"221 -10 CURVE SMOOTH",
"338 -9 OFFCURVE",
"425 69 OFFCURVE",
"425 171 CURVE SMOOTH",
"425 228 OFFCURVE",
"344 270 OFFCURVE",
"235 270 CURVE SMOOTH",
"152 270 OFFCURVE",
"90 289 OFFCURVE",
"90 314 CURVE SMOOTH",
"90 348 OFFCURVE",
"153 373 OFFCURVE",
"237 373 CURVE SMOOTH",
"320 373 OFFCURVE",
"382 339 OFFCURVE",
"382 294 CURVE",
"418 294 LINE",
"418 410 OFFCURVE",
"346 496 OFFCURVE",
"249 495 CURVE SMOOTH",
"131 494 OFFCURVE",
"42 416 OFFCURVE",
"42 314 CURVE SMOOTH",
"42 267 OFFCURVE",
"123 232 OFFCURVE",
"231 232 CURVE SMOOTH",
"314 232 OFFCURVE",
"377 206 OFFCURVE",
"377 171 CURVE SMOOTH",
"377 138 OFFCURVE",
"315 114 OFFCURVE",
"233 114 CURVE SMOOTH",
"141 114 OFFCURVE",
"72 150 OFFCURVE",
"72 199 CURVE",
"36 199 LINE"
);
}
);
width = 461;
},
{
associatedMasterId = "73C3FB79-0E24-4863-9919-819B2F26AD09";
background = {
paths = (
{
closed = 1;
nodes = (
"-16 108 LINE",
"18 46 OFFCURVE",
"109 -12 OFFCURVE",
"227 -12 CURVE SMOOTH",
"369 -12 OFFCURVE",
"449 51 OFFCURVE",
"449 137 CURVE SMOOTH",
"449 217 OFFCURVE",
"403 257 OFFCURVE",
"274 280 CURVE SMOOTH",
"202 293 LINE SMOOTH",
"121 308 OFFCURVE",
"94 326 OFFCURVE",
"94 367 CURVE SMOOTH",
"94 412 OFFCURVE",
"133 441 OFFCURVE",
"216 441 CURVE SMOOTH",
"296 441 OFFCURVE",
"353 414 OFFCURVE",
"387 360 CURVE",
"446 404 LINE",
"396 469 OFFCURVE",
"325 501 OFFCURVE",
"230 501 CURVE SMOOTH",
"89 501 OFFCURVE",
"18 442 OFFCURVE",
"18 364 CURVE SMOOTH",
"18 287 OFFCURVE",
"64 249 OFFCURVE",
"170 229 CURVE SMOOTH",
"248 214 LINE SMOOTH",
"343 196 OFFCURVE",
"373 177 OFFCURVE",
"373 130 CURVE SMOOTH",
"373 77 OFFCURVE",
"321 49 OFFCURVE",
"236 49 CURVE SMOOTH",
"148 49 OFFCURVE",
"83 86 OFFCURVE",
"44 150 CURVE"
);
}
);
};
layerId = "0E1DD74A-5972-49E7-9790-9F71137290A4";
name = "Mar 28 17, 16:39";
paths = (
{
closed = 1;
nodes = (
"36 69 OFFCURVE",
"121 -10 OFFCURVE",
"235 -10 CURVE SMOOTH",
"353 -10 OFFCURVE",
"442 64 OFFCURVE",
"442 162 CURVE SMOOTH",
"442 218 OFFCURVE",
"378 257 OFFCURVE",
"269 268 CURVE SMOOTH",
"177 278 OFFCURVE",
"108 303 OFFCURVE",
"108 327 CURVE SMOOTH",
"108 352 OFFCURVE",
"171 371 OFFCURVE",
"255 371 CURVE SMOOTH",
"322 371 OFFCURVE",
"386 356 OFFCURVE",
"406 335 CURVE",
"442 335 LINE",
"442 426 OFFCURVE",
"367 495 OFFCURVE",
"267 495 CURVE SMOOTH",
"151 495 OFFCURVE",
"64 421 OFFCURVE",
"64 323 CURVE SMOOTH",
"64 278 OFFCURVE",
"121 248 OFFCURVE",
"246 228 CURVE SMOOTH",
"333 215 OFFCURVE",
"398 188 OFFCURVE",
"398 166 CURVE SMOOTH",
"398 141 OFFCURVE",
"333 122 OFFCURVE",
"247 122 CURVE SMOOTH",
"170 122 OFFCURVE",
"95 144 OFFCURVE",
"72 174 CURVE",
"36 174 LINE"
);
}
);
width = 478;
},
{
associatedMasterId = "73C3FB79-0E24-4863-9919-819B2F26AD09";
background = {
paths = (
{
closed = 1;
nodes = (
"17 99 LINE",
"66 39 OFFCURVE",
"151 -13 OFFCURVE",
"271 -13 CURVE SMOOTH",
"420 -13 OFFCURVE",
"501 53 OFFCURVE",
"501 140 CURVE SMOOTH",
"501 227 OFFCURVE",
"451 266 OFFCURVE",
"326 289 CURVE SMOOTH",
"248 303 LINE SMOOTH",
"175 317 OFFCURVE",
"153 333 OFFCURVE",
"153 368 CURVE SMOOTH",
"153 404 OFFCURVE",
"185 430 OFFCURVE",
"257 430 CURVE SMOOTH",
"331 430 OFFCURVE",
"391 406 OFFCURVE",
"428 359 CURVE",
"496 422 LINE",
"440 478 OFFCURVE",
"360 505 OFFCURVE",
"277 505 CURVE SMOOTH",
"122 505 OFFCURVE",
"54 439 OFFCURVE",
"54 361 CURVE SMOOTH",
"54 280 OFFCURVE",
"105 242 OFFCURVE",
"207 222 CURVE SMOOTH",
"291 205 LINE SMOOTH",
"375 189 OFFCURVE",
"401 172 OFFCURVE",
"401 131 CURVE SMOOTH",
"401 89 OFFCURVE",
"360 64 OFFCURVE",
"286 64 CURVE SMOOTH",
"200 64 OFFCURVE",
"132 98 OFFCURVE",
"92 159 CURVE"
);
}
);
};
layerId = "435214B1-8BC5-4C39-B0B9-795B7FB49832";
name = "Aug 4 17, 11:18";
paths = (
{
closed = 1;
nodes = (
"46 79 OFFCURVE",
"134 -10 OFFCURVE",
"247 -10 CURVE SMOOTH",
"362 -10 OFFCURVE",
"448 64 OFFCURVE",
"448 162 CURVE SMOOTH",
"448 218 OFFCURVE",
"393 255 OFFCURVE",
"299 262 CURVE",
"223 268 LINE",
"143 273 OFFCURVE",
"96 292 OFFCURVE",
"96 319 CURVE SMOOTH",
"96 348 OFFCURVE",
"163 369 OFFCURVE",
"253 369 CURVE SMOOTH",
"335 369 OFFCURVE",
"412 336 OFFCURVE",
"432 291 CURVE",
"448 291 LINE",
"448 408 OFFCURVE",
"370 495 OFFCURVE",
"265 495 CURVE SMOOTH",
"144 495 OFFCURVE",
"54 420 OFFCURVE",
"54 321 CURVE SMOOTH",
"54 268 OFFCURVE",
"110 233 OFFCURVE",
"205 229 CURVE",
"275 223 LINE",
"359 216 OFFCURVE",
"408 196 OFFCURVE",
"408 168 CURVE SMOOTH",
"408 139 OFFCURVE",
"341 118 OFFCURVE",
"251 118 CURVE SMOOTH",
"160 118 OFFCURVE",
"77 152 OFFCURVE",
"58 198 CURVE",
"42 198 LINE"
);
}
);
width = 490;
},
{
associatedMasterId = "C1951C01-2078-4DCF-9B04-F28136C23FC3";
background = {
paths = (
{
closed = 1;
nodes = (
"0 106 LINE",
"54 31 OFFCURVE",
"150 -13 OFFCURVE",
"258 -13 CURVE SMOOTH",
"395 -13 OFFCURVE",
"490 38 OFFCURVE",
"490 146 CURVE SMOOTH",
"490 203 OFFCURVE",
"456 249 OFFCURVE",
"347 278 CURVE SMOOTH",
"279 297 LINE SMOOTH",
"203 318 OFFCURVE",
"182 336 OFFCURVE",
"182 363 CURVE SMOOTH",
"182 406 OFFCURVE",
"219 428 OFFCURVE",
"291 428 CURVE SMOOTH",
"363 428 OFFCURVE",
"427 404 OFFCURVE",
"464 349 CURVE",
"534 409 LINE",
"485 465 OFFCURVE",
"403 501 OFFCURVE",
"306 501 CURVE SMOOTH",
"180 501 OFFCURVE",
"86 457 OFFCURVE",
"86 353 CURVE SMOOTH",
"86 297 OFFCURVE",
"124 249 OFFCURVE",
"216 223 CURVE SMOOTH",
"295 201 LINE SMOOTH",
"376 179 OFFCURVE",
"393 162 OFFCURVE",
"393 133 CURVE SMOOTH",
"393 82 OFFCURVE",
"341 61 OFFCURVE",
"273 61 CURVE SMOOTH",
"185 61 OFFCURVE",
"115 101 OFFCURVE",
"79 162 CURVE"
);
}
);
};
layerId = "20A6E545-75F9-4BB3-8F18-7BDB1E6313AF";
name = "Aug 24 17, 20:36";
paths = (
{
closed = 1;
nodes = (
"50 174 LINE",
"75 143 OFFCURVE",
"144 120 OFFCURVE",
"210 121 CURVE SMOOTH",
"305 122 OFFCURVE",
"376 148 OFFCURVE",
"376 181 CURVE SMOOTH",
"376 210 OFFCURVE",
"317 231 OFFCURVE",
"238 231 CURVE SMOOTH",
"98 231 OFFCURVE",
"40 273 OFFCURVE",
"83 344 CURVE",
"83 432 OFFCURVE",
"186 497 OFFCURVE",
"323 496 CURVE SMOOTH",
"449 495 OFFCURVE",
"509 426 OFFCURVE",
"463 335 CURVE",
"423 335 LINE",
"406 357 OFFCURVE",
"344 373 OFFCURVE",
"279 372 CURVE SMOOTH",
"188 371 OFFCURVE",
"119 344 OFFCURVE",
"119 308 CURVE SMOOTH",
"119 283 OFFCURVE",
"184 265 OFFCURVE",
"270 265 CURVE SMOOTH",
"402 265 OFFCURVE",
"453 222 OFFCURVE",
"408 149 CURVE",
"408 57 OFFCURVE",
"309 -12 OFFCURVE",
"176 -11 CURVE SMOOTH",
"27 -10 OFFCURVE",
"-44 69 OFFCURVE",
"10 174 CURVE"
);
}
);
width = 466;
},
{
associatedMasterId = "73C3FB79-0E24-4863-9919-819B2F26AD09";
background = {
paths = (
{
closed = 1;
nodes = (
"46 77 OFFCURVE",
"136 -10 OFFCURVE",
"251 -10 CURVE SMOOTH",
"364 -10 OFFCURVE",
"448 65 OFFCURVE",
"448 165 CURVE SMOOTH",
"448 219 OFFCURVE",
"394 250 OFFCURVE",
"303 256 CURVE",
"221 262 LINE",
"137 269 OFFCURVE",
"90 289 OFFCURVE",
"90 318 CURVE SMOOTH",
"90 350 OFFCURVE",
"156 371 OFFCURVE",
"247 371 CURVE SMOOTH",
"334 371 OFFCURVE",
"412 342 OFFCURVE",
"428 303 CURVE",
"444 303 LINE",
"436 413 OFFCURVE",
"357 495 OFFCURVE",
"255 495 CURVE SMOOTH",
"140 495 OFFCURVE",
"50 424 OFFCURVE",
"50 324 CURVE SMOOTH",
"50 268 OFFCURVE",
"109 236 OFFCURVE",
"205 230 CURVE",
"279 224 LINE",
"361 217 OFFCURVE",
"408 197 OFFCURVE",
"408 169 CURVE SMOOTH",
"408 136 OFFCURVE",
"344 112 OFFCURVE",
"255 112 CURVE SMOOTH",
"161 112 OFFCURVE",
"77 147 OFFCURVE",
"58 194 CURVE",
"42 194 LINE"
);
}
);
};
layerId = "6B69DBEE-C289-4CA0-8A37-A76F3BD3EF45";
name = "Nov 13 18, 00:06";
paths = (
{
closed = 1;
nodes = (
"42 72 OFFCURVE",
"132 -8 OFFCURVE",
"245 -8 CURVE SMOOTH",
"350 -8 OFFCURVE",
"429 65 OFFCURVE",
"429 150 CURVE",
"429 154 LINE",
"429 206 OFFCURVE",
"381 249 OFFCURVE",
"284 257 CURVE",
"210 264 LINE",
"129 271 OFFCURVE",
"110 297 OFFCURVE",
"110 324 CURVE SMOOTH",
"110 360 OFFCURVE",
"161 385 OFFCURVE",
"250 385 CURVE SMOOTH",
"325 385 OFFCURVE",
"390 357 OFFCURVE",
"409 310 CURVE",
"427 310 LINE",
"427 415 OFFCURVE",
"354 493 OFFCURVE",
"252 493 CURVE SMOOTH",
"151 493 OFFCURVE",
"70 430 OFFCURVE",
"70 340 CURVE",
"70 336 LINE",
"70 285 OFFCURVE",
"105 238 OFFCURVE",
"196 231 CURVE",
"273 225 LINE",
"357 218 OFFCURVE",
"389 199 OFFCURVE",
"389 166 CURVE SMOOTH",
"389 125 OFFCURVE",
"334 104 OFFCURVE",
"242 104 CURVE SMOOTH",
"154 104 OFFCURVE",
"87 127 OFFCURVE",
"62 187 CURVE",
"42 187 LINE"
);
}
);
width = 471;
},
{
associatedMasterId = "73C3FB79-0E24-4863-9919-819B2F26AD09";
background = {
paths = (
{
closed = 1;
nodes = (
"36 77 OFFCURVE",
"126 -10 OFFCURVE",
"241 -10 CURVE SMOOTH",
"354 -10 OFFCURVE",
"438 65 OFFCURVE",
"438 165 CURVE SMOOTH",
"438 219 OFFCURVE",
"384 250 OFFCURVE",
"293 256 CURVE",
"211 262 LINE",
"127 269 OFFCURVE",
"80 289 OFFCURVE",
"80 318 CURVE SMOOTH",
"80 350 OFFCURVE",
"146 371 OFFCURVE",
"237 371 CURVE SMOOTH",
"324 371 OFFCURVE",
"402 342 OFFCURVE",
"418 303 CURVE",
"434 303 LINE",
"426 413 OFFCURVE",
"347 495 OFFCURVE",
"245 495 CURVE SMOOTH",
"130 495 OFFCURVE",
"40 424 OFFCURVE",
"40 324 CURVE SMOOTH",
"40 268 OFFCURVE",
"99 236 OFFCURVE",
"195 230 CURVE",
"269 224 LINE",
"351 217 OFFCURVE",
"398 197 OFFCURVE",
"398 169 CURVE SMOOTH",
"398 136 OFFCURVE",
"334 112 OFFCURVE",
"245 112 CURVE SMOOTH",
"151 112 OFFCURVE",
"67 147 OFFCURVE",
"48 194 CURVE",
"32 194 LINE"
);
}
);
};
layerId = "B05BBB8C-408D-4541-B486-5630344C5BD2";
name = "Nov 14 18, 23:53";
paths = (
{
closed = 1;
nodes = (
"32 73 OFFCURVE",
"119 -8 OFFCURVE",
"235 -8 CURVE SMOOTH",
"341 -8 OFFCURVE",
"427 58 OFFCURVE",
"427 150 CURVE",
"427 160 LINE",
"427 216 OFFCURVE",
"372 251 OFFCURVE",
"286 257 CURVE",
"200 266 LINE",
"136 270 OFFCURVE",
"100 290 OFFCURVE",
"100 318 CURVE SMOOTH",
"100 356 OFFCURVE",
"160 373 OFFCURVE",
"240 373 CURVE SMOOTH",
"316 373 OFFCURVE",
"391 354 OFFCURVE",
"407 310 CURVE",
"425 310 LINE",
"425 418 OFFCURVE",
"344 493 OFFCURVE",
"242 493 CURVE SMOOTH",
"136 493 OFFCURVE",
"56 430 OFFCURVE",
"56 342 CURVE",
"56 334 LINE",
"56 276 OFFCURVE",
"110 236 OFFCURVE",
"184 230 CURVE",
"264 223 LINE",
"332 219 OFFCURVE",
"383 206 OFFCURVE",
"383 174 CURVE SMOOTH",
"383 138 OFFCURVE",
"319 120 OFFCURVE",
"233 120 CURVE SMOOTH",
"151 120 OFFCURVE",
"72 139 OFFCURVE",
"52 187 CURVE",
"32 187 LINE"
);
}
);
width = 459;
},
{
associatedMasterId = "73C3FB79-0E24-4863-9919-819B2F26AD09";
background = {
paths = (
{
closed = 1;
nodes = (
"36 77 OFFCURVE",
"126 -10 OFFCURVE",
"241 -10 CURVE SMOOTH",
"354 -10 OFFCURVE",
"438 65 OFFCURVE",
"438 165 CURVE SMOOTH",
"438 219 OFFCURVE",
"384 250 OFFCURVE",
"293 256 CURVE",
"211 262 LINE",
"127 269 OFFCURVE",
"80 289 OFFCURVE",
"80 318 CURVE SMOOTH",
"80 350 OFFCURVE",
"146 371 OFFCURVE",
"237 371 CURVE SMOOTH",
"324 371 OFFCURVE",
"402 342 OFFCURVE",
"418 303 CURVE",
"434 303 LINE",
"426 413 OFFCURVE",
"347 495 OFFCURVE",
"245 495 CURVE SMOOTH",
"130 495 OFFCURVE",
"40 424 OFFCURVE",
"40 324 CURVE SMOOTH",
"40 268 OFFCURVE",
"99 236 OFFCURVE",
"195 230 CURVE",
"269 224 LINE",
"351 217 OFFCURVE",
"398 197 OFFCURVE",
"398 169 CURVE SMOOTH",
"398 136 OFFCURVE",
"334 112 OFFCURVE",
"245 112 CURVE SMOOTH",
"151 112 OFFCURVE",
"67 147 OFFCURVE",
"48 194 CURVE",
"32 194 LINE"
);
}
);
};
layerId = "A3FC5FDA-59DF-447B-AF25-7A5C1B87D7FC";
name = "Jan 6 19, 18:29";
paths = (
{
closed = 1;
nodes = (
"36 75 OFFCURVE",
"123 -8 OFFCURVE",
"239 -8 CURVE SMOOTH",
"349 -8 OFFCURVE",
"427 56 OFFCURVE",
"427 144 CURVE",
"427 150 LINE",
"427 208 OFFCURVE",
"378 246 OFFCURVE",
"290 254 CURVE",
"200 263 LINE",
"140 271 OFFCURVE",
"108 288 OFFCURVE",
"108 316 CURVE SMOOTH",
"108 346 OFFCURVE",
"154 373 OFFCURVE",
"238 373 CURVE SMOOTH",
"318 373 OFFCURVE",
"371 349 OFFCURVE",
"391 309 CURVE",
"409 309 LINE",
"409 419 OFFCURVE",
"346 493 OFFCURVE",
"238 493 CURVE SMOOTH",
"130 493 OFFCURVE",
"54 428 OFFCURVE",
"54 344 CURVE",
"54 336 LINE",
"54 282 OFFCURVE",
"100 241 OFFCURVE",
"180 233 CURVE",
"260 225 LINE",
"332 217 OFFCURVE",
"371 200 OFFCURVE",
"371 172 CURVE SMOOTH",
"371 136 OFFCURVE",
"321 114 OFFCURVE",
"233 114 CURVE SMOOTH",
"143 114 OFFCURVE",
"70 143 OFFCURVE",
"54 187 CURVE",
"36 187 LINE"
);
}
);
width = 459;
}
);
unicode = 0073;
},
{
glyphname = t;
lastChange = "2019-03-21 21:53:54 +0000";
layers = (
{
background = {
hints = (
{
horizontal = 1;
place = "{-8, 124}";
type = Stem;
},
{
horizontal = 1;
place = "{337, 148}";
type = Stem;
},
{
place = "{86, 40}";
type = Stem;
}
);
paths = (
{
closed = 1;
nodes = (
"171 116 OFFCURVE",
"126 142 OFFCURVE",
"126 176 CURVE SMOOTH",
"126 337 LINE",
"302 337 LINE",
"302 485 LINE",
"126 485 LINE",
"126 665 LINE",
"86 665 LINE",
"86 485 LINE",
"32 485 LINE",
"32 337 LINE",
"86 337 LINE",
"86 164 LINE SMOOTH",
"86 66 OFFCURVE",
"146 -8 OFFCURVE",
"226 -8 CURVE SMOOTH",
"257 -8 OFFCURVE",
"290 -3 OFFCURVE",
"304 4 CURVE",
"306 126 LINE",
"293 120 OFFCURVE",
"260 116 OFFCURVE",
"230 116 CURVE SMOOTH"
);
}
);
};
guideLines = (
{
angle = 77;
position = "{219, 218}";
}
);
layerId = "C1951C01-2078-4DCF-9B04-F28136C23FC3";
paths = (
{
closed = 1;
nodes = (
"287 5 LINE",
"271 -5 OFFCURVE",
"242 -11 OFFCURVE",
"209 -11 CURVE SMOOTH",
"72 -11 OFFCURVE",
"38 72 OFFCURVE",
"118 212 CURVE",
"142 212 LINE",
"117 147 OFFCURVE",
"151 109 OFFCURVE",
"233 109 CURVE SMOOTH",
"269 109 OFFCURVE",
"299 114 OFFCURVE",
"314 123 CURVE"
);
},
{
closed = 1;
nodes = (
"382 485 LINE",
"348 337 LINE",
"70 337 LINE",
"104 485 LINE"
);
},
{
closed = 1;
nodes = (
"310 665 LINE",
"244 485 LINE",
"198 337 LINE",
"142 212 LINE",
"118 212 LINE",
"134 337 LINE",
"168 485 LINE",
"188 665 LINE"
);
}
);
width = 396;
},
{
background = {
paths = (
{
closed = 1;
nodes = (
"126 665 LINE",
"126 176 LINE",
"86 164 LINE",
"86 665 LINE"
);
},
{
closed = 1;
nodes = (
"304 4 LINE",
"290 -3 OFFCURVE",
"257 -8 OFFCURVE",
"226 -8 CURVE SMOOTH",
"146 -8 OFFCURVE",
"86 66 OFFCURVE",
"86 164 CURVE",
"126 176 LINE",
"126 142 OFFCURVE",
"171 116 OFFCURVE",
"230 116 CURVE SMOOTH",
"260 116 OFFCURVE",
"293 120 OFFCURVE",
"306 126 CURVE"
);
},
{
closed = 1;
nodes = (
"302 485 LINE",
"302 337 LINE",
"32 337 LINE",
"32 485 LINE"
);
}
);
};
layerId = "73C3FB79-0E24-4863-9919-819B2F26AD09";
paths = (
{
closed = 1;
nodes = (
"126 665 LINE",
"126 176 LINE",
"86 164 LINE",
"86 665 LINE"
);
},
{
closed = 1;
nodes = (
"304 4 LINE",
"290 -3 OFFCURVE",
"257 -8 OFFCURVE",
"226 -8 CURVE SMOOTH",
"146 -8 OFFCURVE",
"86 66 OFFCURVE",
"86 164 CURVE",
"126 176 LINE",
"126 142 OFFCURVE",
"171 116 OFFCURVE",
"230 116 CURVE SMOOTH",
"260 116 OFFCURVE",
"293 120 OFFCURVE",
"306 126 CURVE"
);
},
{
closed = 1;
nodes = (
"302 485 LINE",
"302 337 LINE",
"32 337 LINE",
"32 485 LINE"
);
}
);
width = 338;
},
{
associatedMasterId = "C1951C01-2078-4DCF-9B04-F28136C23FC3";
background = {
paths = (
{
closed = 1;
nodes = (
"265 61 LINE",
"242 55 OFFCURVE",
"226 51 OFFCURVE",
"209 51 CURVE SMOOTH",
"171 51 OFFCURVE",
"148 66 OFFCURVE",
"148 101 CURVE SMOOTH",
"148 113 OFFCURVE",
"152 132 OFFCURVE",
"157 154 CURVE SMOOTH",
"218 429 LINE",
"340 429 LINE",
"351 485 LINE",
"230 485 LINE",
"269 663 LINE",
"198 663 LINE",
"157 485 LINE",
"56 485 LINE",
"45 429 LINE",
"145 429 LINE",
"84 155 LINE SMOOTH",
"78 129 OFFCURVE",
"74 102 OFFCURVE",
"74 80 CURVE SMOOTH",
"74 22 OFFCURVE",
"112 -8 OFFCURVE",
"180 -8 CURVE SMOOTH",
"202 -8 OFFCURVE",
"232 -4 OFFCURVE",
"253 2 CURVE"
);
}
);
};
layerId = "A403DBE7-71C4-4AD5-AA3B-933AED8A496C";
name = "Mar 16 17, 19:32";
paths = (
{
closed = 1;
nodes = (
"139 313 LINE",
"117 269 LINE",
"162 269 LINE",
"340 663 LINE",
"139 663 LINE"
);
},
{
closed = 1;
nodes = (
"541 218 LINE",
"510 173 OFFCURVE",
"418 139 OFFCURVE",
"327 138 CURVE SMOOTH",
"225 137 OFFCURVE",
"149 173 OFFCURVE",
"149 221 CURVE SMOOTH",
"149 233 OFFCURVE",
"155 253 OFFCURVE",
"162 269 CURVE",
"117 269 LINE",
"37 109 OFFCURVE",
"113 -11 OFFCURVE",
"293 -10 CURVE SMOOTH",
"460 -9 OFFCURVE",
"585 89 OFFCURVE",
"585 218 CURVE",
"585 218 OFFCURVE",
"585 218 OFFCURVE",
"585 218 CURVE SMOOTH"
);
}
);
width = 600;
},
{
associatedMasterId = "C1951C01-2078-4DCF-9B04-F28136C23FC3";
background = {
paths = (
{
closed = 1;
nodes = (
"284 76 LINE",
"261 70 OFFCURVE",
"245 66 OFFCURVE",
"228 66 CURVE SMOOTH",
"192 66 OFFCURVE",
"170 79 OFFCURVE",
"170 113 CURVE SMOOTH",
"170 125 OFFCURVE",
"173 144 OFFCURVE",
"178 164 CURVE SMOOTH",
"235 419 LINE",
"354 419 LINE",
"368 488 LINE",
"249 488 LINE",
"288 664 LINE",
"197 664 LINE",
"155 488 LINE",
"57 488 LINE",
"43 419 LINE",
"140 419 LINE",
"83 163 LINE SMOOTH",
"77 136 OFFCURVE",
"73 108 OFFCURVE",
"73 85 CURVE SMOOTH",
"73 22 OFFCURVE",
"117 -9 OFFCURVE",
"187 -9 CURVE SMOOTH",
"212 -9 OFFCURVE",
"245 -4 OFFCURVE",
"269 2 CURVE"
);
}
);
};
layerId = "EAD1D86B-88B6-4197-8717-54A52787982D";
name = "Jan 11 18, 20:14";
paths = (
{
closed = 1;
nodes = (
"293 35 LINE",
"274 9 OFFCURVE",
"224 -11 OFFCURVE",
"177 -11 CURVE SMOOTH",
"48 -11 OFFCURVE",
"19 89 OFFCURVE",
"108 222 CURVE",
"140 206 LINE",
"121 155 OFFCURVE",
"154 117 OFFCURVE",
"217 117 CURVE SMOOTH",
"258 117 OFFCURVE",
"304 135 OFFCURVE",
"325 159 CURVE"
);
},
{
closed = 1;
nodes = (
"382 485 LINE",
"348 337 LINE",
"70 337 LINE",
"104 485 LINE"
);
},
{
closed = 1;
nodes = (
"308 665 LINE",
"140 206 LINE",
"108 222 LINE",
"176 665 LINE"
);
}
);
width = 396;
}
);
unicode = 0074;
},
{
glyphname = u;
lastChange = "2019-03-21 21:53:54 +0000";
layers = (
{
background = {
hints = (
{
horizontal = 1;
place = "{-8, 140}";
type = Stem;
},
{
place = "{48, 40}";
type = Stem;
},
{
place = "{414, 40}";
type = Stem;
}
);
paths = (
{
closed = 1;
nodes = (
"414 485 LINE",
"414 234 LINE SMOOTH",
"412 176 OFFCURVE",
"340 132 OFFCURVE",
"251 132 CURVE SMOOTH",
"158 132 OFFCURVE",
"88 179 OFFCURVE",
"88 242 CURVE SMOOTH",
"88 485 LINE",
"48 485 LINE",
"48 238 LINE SMOOTH",
"48 94 OFFCURVE",
"133 -8 OFFCURVE",
"247 -8 CURVE SMOOTH",
"327 -8 OFFCURVE",
"394 44 OFFCURVE",
"414 120 CURVE",
"422 120 LINE",
"414 0 LINE",
"454 0 LINE",
"454 485 LINE"
);
}
);
};
guideLines = (
{
angle = 77;
position = "{224, 132}";
}
);
layerId = "C1951C01-2078-4DCF-9B04-F28136C23FC3";
paths = (
{
closed = 1;
nodes = (
"94 485 LINE",
"216 485 LINE",
"108 253 LINE",
"84 253 LINE"
);
},
{
closed = 1;
nodes = (
"466 241 LINE",
"462 98 OFFCURVE",
"346 -10 OFFCURVE",
"196 -10 CURVE SMOOTH",
"46 -10 OFFCURVE",
"-2 103 OFFCURVE",
"84 253 CURVE",
"108 253 LINE",
"72 184 OFFCURVE",
"125 132 OFFCURVE",
"232 132 CURVE SMOOTH",
"352 132 OFFCURVE",
"445 192 OFFCURVE",
"450 273 CURVE"
);
},
{
closed = 1;
nodes = (
"576 485 LINE",
"469 260 LINE",
"463 0 LINE",
"355 0 LINE",
"409 80 LINE",
"405 82 LINE",
"447 224 LINE",
"454 485 LINE"
);
}
);
width = 560;
},
{
background = {
paths = (
{
closed = 1;
nodes = (
"48 485 LINE",
"88 485 LINE",
"88 242 LINE",
"48 238 LINE"
);
},
{
closed = 1;
nodes = (
"414 120 LINE",
"394 44 OFFCURVE",
"327 -8 OFFCURVE",
"247 -8 CURVE SMOOTH",
"133 -8 OFFCURVE",
"48 94 OFFCURVE",
"48 238 CURVE",
"88 242 LINE",
"88 179 OFFCURVE",
"158 132 OFFCURVE",
"251 132 CURVE SMOOTH",
"340 132 OFFCURVE",
"412 176 OFFCURVE",
"414 234 CURVE"
);
},
{
closed = 1;
nodes = (
"414 0 LINE",
"422 120 LINE",
"414 120 LINE",
"414 485 LINE",
"454 485 LINE",
"454 0 LINE"
);
}
);
};
layerId = "73C3FB79-0E24-4863-9919-819B2F26AD09";
paths = (
{
closed = 1;
nodes = (
"48 485 LINE",
"88 485 LINE",
"88 242 LINE",
"48 238 LINE"
);
},
{
closed = 1;
nodes = (
"414 120 LINE",
"394 44 OFFCURVE",
"327 -8 OFFCURVE",
"247 -8 CURVE SMOOTH",
"133 -8 OFFCURVE",
"48 94 OFFCURVE",
"48 238 CURVE",
"88 242 LINE",
"88 179 OFFCURVE",
"158 132 OFFCURVE",
"251 132 CURVE SMOOTH",
"340 132 OFFCURVE",
"412 176 OFFCURVE",
"414 234 CURVE"
);
},
{
closed = 1;
nodes = (
"414 0 LINE",
"422 120 LINE",
"414 120 LINE",
"414 485 LINE",
"454 485 LINE",
"454 0 LINE"
);
}
);
width = 514;
},
{
associatedMasterId = "C1951C01-2078-4DCF-9B04-F28136C23FC3";
background = {
paths = (
{
closed = 1;
nodes = (
"427 0 LINE",
"518 0 LINE",
"626 488 LINE",
"532 488 LINE",
"478 244 LINE SMOOTH",
"468 198 OFFCURVE",
"453 161 OFFCURVE",
"409 125 CURVE SMOOTH",
"370 92 OFFCURVE",
"319 72 OFFCURVE",
"275 72 CURVE SMOOTH",
"196 72 OFFCURVE",
"155 102 OFFCURVE",
"155 160 CURVE SMOOTH",
"155 171 OFFCURVE",
"158 200 OFFCURVE",
"163 222 CURVE SMOOTH",
"223 488 LINE",
"127 488 LINE",
"67 210 LINE SMOOTH",
"59 172 OFFCURVE",
"55 141 OFFCURVE",
"55 120 CURVE SMOOTH",
"55 29 OFFCURVE",
"135 -9 OFFCURVE",
"228 -9 CURVE SMOOTH",
"329 -9 OFFCURVE",
"406 36 OFFCURVE",
"449 94 CURVE"
);
}
);
};
guideLines = (
{
angle = 77;
position = "{88, 485}";
}
);
layerId = "4379675D-0053-4C21-B68F-6E68B3E0166A";
name = "Jan 11 18, 20:04";
paths = (
{
closed = 1;
nodes = (
"88 485 LINE",
"210 485 LINE",
"104 253 LINE",
"80 253 LINE"
);
},
{
closed = 1;
nodes = (
"462 241 LINE",
"458 98 OFFCURVE",
"342 -10 OFFCURVE",
"192 -10 CURVE SMOOTH",
"42 -10 OFFCURVE",
"-6 103 OFFCURVE",
"80 253 CURVE",
"104 253 LINE",
"68 184 OFFCURVE",
"118 132 OFFCURVE",
"220 132 CURVE SMOOTH",
"344 132 OFFCURVE",
"441 192 OFFCURVE",
"446 273 CURVE"
);
},
{
closed = 1;
nodes = (
"572 485 LINE",
"465 260 LINE",
"459 0 LINE",
"351 0 LINE",
"405 80 LINE",
"401 82 LINE",
"443 224 LINE",
"450 485 LINE"
);
}
);
width = 558;
},
{
associatedMasterId = "73C3FB79-0E24-4863-9919-819B2F26AD09";
background = {
paths = (
{
closed = 1;
nodes = (
"50 485 LINE",
"88 485 LINE",
"88 238 LINE",
"50 238 LINE"
);
},
{
closed = 1;
nodes = (
"429 162 LINE",
"425 65 OFFCURVE",
"353 -8 OFFCURVE",
"260 -8 CURVE SMOOTH",
"129 -8 OFFCURVE",
"51 83 OFFCURVE",
"50 238 CURVE",
"88 238 LINE",
"88 175 OFFCURVE",
"153 138 OFFCURVE",
"264 138 CURVE SMOOTH",
"347 138 OFFCURVE",
"409 177 OFFCURVE",
"409 230 CURVE"
);
},
{
closed = 1;
nodes = (
"409 0 LINE",
"409 485 LINE",
"447 485 LINE",
"447 0 LINE"
);
}
);
};
layerId = "C6102801-42ED-4577-856E-BD0D6E345771";
name = "Nov 1 18, 19:37";
paths = (
{
closed = 1;
nodes = (
"50 485 LINE",
"88 485 LINE",
"88 238 LINE",
"50 238 LINE"
);
},
{
closed = 1;
nodes = (
"429 162 LINE",
"425 65 OFFCURVE",
"353 -8 OFFCURVE",
"260 -8 CURVE SMOOTH",
"129 -8 OFFCURVE",
"51 83 OFFCURVE",
"50 238 CURVE",
"88 238 LINE",
"88 175 OFFCURVE",
"153 138 OFFCURVE",
"264 138 CURVE SMOOTH",
"347 138 OFFCURVE",
"409 177 OFFCURVE",
"409 230 CURVE"
);
},
{
closed = 1;
nodes = (
"409 0 LINE",
"409 485 LINE",
"447 485 LINE",
"447 0 LINE"
);
}
);
width = 503;
}
);
unicode = 0075;
},
{
glyphname = v;
lastChange = "2019-03-21 21:53:54 +0000";
layers = (
{
background = {
hints = (
{
horizontal = 1;
place = "{0, 485}";
type = Stem;
},
{
place = "{4, 478}";
type = Stem;
}
);
paths = (
{
closed = 1;
nodes = (
"4 485 LINE",
"140 485 LINE",
"288 140 LINE",
"296 140 LINE",
"438 485 LINE",
"482 485 LINE",
"284 0 LINE",
"220 0 LINE"
);
}
);
};
layerId = "C1951C01-2078-4DCF-9B04-F28136C23FC3";
paths = (
{
closed = 1;
nodes = (
"96 259 LINE",
"112 227 LINE",
"218 485 LINE",
"100 485 LINE"
);
},
{
closed = 1;
nodes = (
"96 259 LINE",
"7 105 OFFCURVE",
"59 -10 OFFCURVE",
"216 -10 CURVE SMOOTH",
"366 -10 OFFCURVE",
"478 90 OFFCURVE",
"478 223 CURVE",
"565 374 OFFCURVE",
"509 487 OFFCURVE",
"347 487 CURVE",
"309 351 LINE",
"396 351 OFFCURVE",
"462 312 OFFCURVE",
"462 259 CURVE SMOOTH",
"462 181 OFFCURVE",
"370 122 OFFCURVE",
"248 122 CURVE SMOOTH",
"148 122 OFFCURVE",
"89 167 OFFCURVE",
"112 227 CURVE"
);
}
);
width = 534;
},
{
background = {
paths = (
{
closed = 1;
nodes = (
"140 485 LINE",
"288 140 LINE",
"296 140 LINE",
"438 485 LINE",
"482 485 LINE",
"284 0 LINE",
"220 0 LINE",
"4 485 LINE"
);
}
);
};
layerId = "73C3FB79-0E24-4863-9919-819B2F26AD09";
paths = (
{
closed = 1;
nodes = (
"140 485 LINE",
"288 140 LINE",
"296 140 LINE",
"438 485 LINE",
"482 485 LINE",
"284 0 LINE",
"220 0 LINE",
"4 485 LINE"
);
}
);
width = 486;
},
{
associatedMasterId = "C1951C01-2078-4DCF-9B04-F28136C23FC3";
background = {
paths = (
{
closed = 1;
nodes = (
"264 0 LINE",
"593 485 LINE",
"510 485 LINE",
"317 201 OFFCURVE",
"279 144 OFFCURVE",
"236 71 CURVE",
"221 146 OFFCURVE",
"206 203 OFFCURVE",
"135 485 CURVE",
"56 485 LINE",
"182 0 LINE"
);
}
);
};
layerId = "C103FCAD-B4EB-4D0E-9981-3F10036C4DFB";
name = "Mar 16 17, 19:33";
paths = (
{
closed = 1;
nodes = (
"178 485 LINE",
"178 268 LINE",
"312 0 LINE",
"136 0 LINE",
"136 217 LINE",
"10 485 LINE"
);
},
{
closed = 1;
nodes = (
"636 485 LINE",
"436 268 LINE",
"312 0 LINE",
"136 0 LINE",
"340 217 LINE",
"468 485 LINE"
);
}
);
width = 600;
},
{
associatedMasterId = "C1951C01-2078-4DCF-9B04-F28136C23FC3";
background = {
paths = (
{
closed = 1;
nodes = (
"351 0 LINE",
"680 485 LINE",
"597 485 LINE",
"404 201 OFFCURVE",
"366 144 OFFCURVE",
"323 71 CURVE",
"308 146 OFFCURVE",
"293 203 OFFCURVE",
"222 485 CURVE",
"143 485 LINE",
"269 0 LINE"
);
}
);
};
layerId = "1F3501CE-32C0-4F1C-B5DE-64D0D2BA7751";
name = "Mar 29 17, 20:59";
paths = (
{
closed = 1;
nodes = (
"296 485 LINE",
"292 223 LINE",
"372 0 LINE",
"188 0 LINE",
"184 247 LINE",
"96 485 LINE"
);
},
{
closed = 1;
nodes = (
"694 485 LINE",
"492 223 LINE",
"376 0 LINE",
"272 0 LINE",
"460 247 LINE",
"586 485 LINE"
);
}
);
width = 678;
},
{
associatedMasterId = "C1951C01-2078-4DCF-9B04-F28136C23FC3";
background = {
paths = (
{
closed = 1;
nodes = (
"346 0 LINE",
"675 485 LINE",
"592 485 LINE",
"399 201 OFFCURVE",
"361 144 OFFCURVE",
"318 71 CURVE",
"303 146 OFFCURVE",
"288 203 OFFCURVE",
"217 485 CURVE",
"138 485 LINE",
"264 0 LINE"
);
}
);
};
layerId = "451134A7-B8B8-4678-9625-4196C9B7BDA1";
name = "Mar 29 17, 21:49";
paths = (
{
closed = 1;
nodes = (
"477 228 LINE",
"477 94 OFFCURVE",
"366 -9 OFFCURVE",
"218 -11 CURVE",
"63 -11 OFFCURVE",
"9 103 OFFCURVE",
"92 254 CURVE",
"136 254 LINE",
"109 189 OFFCURVE",
"155 141 OFFCURVE",
"242 141 CURVE",
"352 142 OFFCURVE",
"437 193 OFFCURVE",
"441 260 CURVE"
);
},
{
closed = 1;
nodes = (
"92 254 LINE",
"96 485 LINE",
"236 485 LINE",
"136 254 LINE"
);
},
{
closed = 1;
nodes = (
"593 485 LINE",
"477 228 LINE",
"441 260 LINE",
"453 485 LINE"
);
}
);
width = 656;
},
{
associatedMasterId = "C1951C01-2078-4DCF-9B04-F28136C23FC3";
background = {
paths = (
{
closed = 1;
nodes = (
"317 0 LINE",
"646 485 LINE",
"563 485 LINE",
"370 201 OFFCURVE",
"332 144 OFFCURVE",
"289 71 CURVE",
"274 146 OFFCURVE",
"259 203 OFFCURVE",
"188 485 CURVE",
"109 485 LINE",
"235 0 LINE"
);
}
);
};
layerId = "73FC3556-3B44-449B-BFF5-6C5470B0B6A2";
name = "Mar 30 17, 23:06";
paths = (
{
closed = 1;
nodes = (
"317 342 LINE",
"377 342 OFFCURVE",
"422 312 OFFCURVE",
"421 271 CURVE",
"453 215 LINE",
"551 376 OFFCURVE",
"511 496 OFFCURVE",
"361 496 CURVE"
);
},
{
closed = 1;
nodes = (
"232 485 LINE",
"133 248 LINE",
"85 212 LINE",
"88 485 LINE"
);
},
{
closed = 1;
nodes = (
"133 248 LINE",
"107 185 OFFCURVE",
"151 137 OFFCURVE",
"235 137 CURVE SMOOTH",
"342 137 OFFCURVE",
"422 194 OFFCURVE",
"421 271 CURVE",
"453 215 LINE",
"453 86 OFFCURVE",
"349 -11 OFFCURVE",
"211 -11 CURVE SMOOTH",
"62 -11 OFFCURVE",
"8 85 OFFCURVE",
"85 212 CURVE"
);
}
);
width = 502;
}
);
leftKerningGroup = v;
rightKerningGroup = v;
unicode = 0076;
},
